<svg xmlns="http://www.w3.org/2000/svg" xmlns:xlink="http://www.w3.org/1999/xlink" contentStyleType="text/css" data-diagram-type="CLASS" height="1461px" preserveAspectRatio="none" style="width:1846px;height:1461px;background:#FFFFFF;" version="1.1" viewBox="0 0 1846 1461" width="1846px" zoomAndPan="magnify"><?plantuml 1.2026.3beta6?><defs/><g><!--class NumericScaler--><g class="entity" data-qualified-name="NumericScaler" data-source-line="1" id="ent0002"><rect fill="#F1F1F1" height="162.0781" rx="2.5" ry="2.5" style="stroke:#181818;stroke-width:0.5;" width="430.2432" x="1027.91" y="7"/><ellipse cx="1187.6009" cy="23" fill="#B4A7E5" rx="11" ry="11" style="stroke:#181818;stroke-width:1;"/><path d="M1183.5228,18.7656 L1183.5228,16.6094 L1190.9134,16.6094 L1190.9134,18.7656 L1188.4447,18.7656 L1188.4447,26.8438 L1190.9134,26.8438 L1190.9134,29 L1183.5228,29 L1183.5228,26.8438 L1185.9915,26.8438 L1185.9915,18.7656 L1183.5228,18.7656 Z " fill="#000000"/><text fill="#000000" font-family="sans-serif" font-size="14" font-style="italic" lengthAdjust="spacing" textLength="102.3613" x="1208.1009" y="27.8467">NumericScaler</text><line style="stroke:#181818;stroke-width:0.5;" x1="1028.91" x2="1457.1532" y1="39" y2="39"/><g data-visibility-modifier="PUBLIC_FIELD"><ellipse cx="1038.91" cy="52.6484" fill="none" rx="3" ry="3" style="stroke:#038048;stroke-width:1;"/></g><text fill="#000000" font-family="sans-serif" font-size="14" lengthAdjust="spacing" textLength="228.0674" x="1047.91" y="55.9951">inputMinMax: [number, number]</text><g data-visibility-modifier="PUBLIC_FIELD"><ellipse cx="1038.91" cy="68.9453" fill="none" rx="3" ry="3" style="stroke:#038048;stroke-width:1;"/></g><text fill="#000000" font-family="sans-serif" font-size="14" lengthAdjust="spacing" textLength="238.2324" x="1047.91" y="72.292">outputMinMax: [number, number]</text><g data-visibility-modifier="PUBLIC_FIELD"><ellipse cx="1038.91" cy="85.2422" fill="none" rx="3" ry="3" style="stroke:#038048;stroke-width:1;"/></g><text fill="#000000" font-family="sans-serif" font-size="14" lengthAdjust="spacing" textLength="268.5225" x="1047.91" y="88.5889">renderableMinMax: [number, number]</text><line style="stroke:#181818;stroke-width:0.5;" x1="1028.91" x2="1457.1532" y1="95.8906" y2="95.8906"/><g data-visibility-modifier="PUBLIC_METHOD"><ellipse cx="1038.91" cy="109.5391" fill="#84BE84" rx="3" ry="3" style="stroke:#038048;stroke-width:1;"/></g><text fill="#000000" font-family="sans-serif" font-size="14" lengthAdjust="spacing" textLength="307.0703" x="1047.91" y="112.8857">getProportionalValue(val: number): number</text><g data-visibility-modifier="PUBLIC_METHOD"><ellipse cx="1038.91" cy="125.8359" fill="#84BE84" rx="3" ry="3" style="stroke:#038048;stroke-width:1;"/></g><text fill="#000000" font-family="sans-serif" font-size="14" lengthAdjust="spacing" textLength="268.3652" x="1047.91" y="129.1826">getScaledValue(val: number): number</text><g data-visibility-modifier="PUBLIC_METHOD"><ellipse cx="1038.91" cy="142.1328" fill="#84BE84" rx="3" ry="3" style="stroke:#038048;stroke-width:1;"/></g><text fill="#000000" font-family="sans-serif" font-size="14" lengthAdjust="spacing" textLength="188.4053" x="1047.91" y="145.4795">getDefaultValue(): number</text><g data-visibility-modifier="PUBLIC_METHOD"><ellipse cx="1038.91" cy="158.4297" fill="#84BE84" rx="3" ry="3" style="stroke:#038048;stroke-width:1;"/></g><text fill="#000000" font-family="sans-serif" font-size="14" lengthAdjust="spacing" textLength="404.2432" x="1047.91" y="161.7764">updateOutputRange(newRange: [number, number]): void</text></g><!--class IterativeScaler--><g class="entity" data-qualified-name="IterativeScaler" data-source-line="11" id="ent0003"><rect fill="#F1F1F1" height="64.2969" rx="2.5" ry="2.5" style="stroke:#181818;stroke-width:0.5;" width="233.7373" x="1033.16" y="418.56"/><ellipse cx="1094.6458" cy="434.56" fill="#B4A7E5" rx="11" ry="11" style="stroke:#181818;stroke-width:1;"/><path d="M1090.5677,430.3256 L1090.5677,428.1694 L1097.9583,428.1694 L1097.9583,430.3256 L1095.4896,430.3256 L1095.4896,438.4037 L1097.9583,438.4037 L1097.9583,440.56 L1090.5677,440.56 L1090.5677,438.4037 L1093.0365,438.4037 L1093.0365,430.3256 L1090.5677,430.3256 Z " fill="#000000"/><text fill="#000000" font-family="sans-serif" font-size="14" font-style="italic" lengthAdjust="spacing" textLength="102.2656" x="1115.1458" y="439.4067">IterativeScaler</text><line style="stroke:#181818;stroke-width:0.5;" x1="1034.16" x2="1265.8973" y1="450.56" y2="450.56"/><line style="stroke:#181818;stroke-width:0.5;" x1="1034.16" x2="1265.8973" y1="458.56" y2="458.56"/><g data-visibility-modifier="PUBLIC_METHOD"><ellipse cx="1044.16" cy="472.2084" fill="#84BE84" rx="3" ry="3" style="stroke:#038048;stroke-width:1;"/></g><text fill="#000000" font-family="sans-serif" font-size="14" lengthAdjust="spacing" textLength="207.7373" x="1053.16" y="475.5551">pushValue(val: number): void</text></g><!--class ColourScaler--><g class="entity" data-qualified-name="ColourScaler" data-source-line="15" id="ent0004"><rect fill="#F1F1F1" height="145.7813" rx="2.5" ry="2.5" style="stroke:#181818;stroke-width:0.5;" width="442.917" x="91.57" y="748.64"/><ellipse cx="264.3552" cy="764.64" fill="#B4A7E5" rx="11" ry="11" style="stroke:#181818;stroke-width:1;"/><path d="M260.277,760.4056 L260.277,758.2494 L267.6677,758.2494 L267.6677,760.4056 L265.1989,760.4056 L265.1989,768.4837 L267.6677,768.4837 L267.6677,770.64 L260.277,770.64 L260.277,768.4837 L262.7458,768.4837 L262.7458,760.4056 L260.277,760.4056 Z " fill="#000000"/><text fill="#000000" font-family="sans-serif" font-size="14" font-style="italic" lengthAdjust="spacing" textLength="88.8467" x="284.8552" y="769.4867">ColourScaler</text><line style="stroke:#181818;stroke-width:0.5;" x1="92.57" x2="533.487" y1="780.64" y2="780.64"/><g data-visibility-modifier="PUBLIC_FIELD"><ellipse cx="102.57" cy="794.2884" fill="none" rx="3" ry="3" style="stroke:#038048;stroke-width:1;"/></g><text fill="#000000" font-family="sans-serif" font-size="14" lengthAdjust="spacing" textLength="163.8369" x="111.57" y="797.6351">hasNullValues: boolean</text><g data-visibility-modifier="PUBLIC_FIELD"><ellipse cx="102.57" cy="810.5853" fill="none" rx="3" ry="3" style="stroke:#038048;stroke-width:1;"/></g><text fill="#000000" font-family="sans-serif" font-size="14" lengthAdjust="spacing" textLength="191.748" x="111.57" y="813.932">hasNonNullValues: boolean</text><g data-visibility-modifier="PUBLIC_FIELD"><ellipse cx="102.57" cy="826.8822" fill="none" rx="3" ry="3" style="stroke:#038048;stroke-width:1;"/></g><text fill="#000000" font-family="sans-serif" font-size="14" lengthAdjust="spacing" textLength="242.9561" x="111.57" y="830.2289">hasColourOverrideValues: boolean</text><line style="stroke:#181818;stroke-width:0.5;" x1="92.57" x2="533.487" y1="837.5306" y2="837.5306"/><g data-visibility-modifier="PUBLIC_METHOD"><ellipse cx="102.57" cy="851.1791" fill="#84BE84" rx="3" ry="3" style="stroke:#038048;stroke-width:1;"/></g><text fill="#000000" font-family="sans-serif" font-size="14" lengthAdjust="spacing" textLength="275.1602" x="111.57" y="854.5257">getColourForValue(val: number): string</text><g data-visibility-modifier="PUBLIC_METHOD"><ellipse cx="102.57" cy="867.4759" fill="#84BE84" rx="3" ry="3" style="stroke:#038048;stroke-width:1;"/></g><text fill="#000000" font-family="sans-serif" font-size="14" lengthAdjust="spacing" textLength="179.8467" x="111.57" y="870.8226">getDefaultColour(): string</text><g data-visibility-modifier="PUBLIC_METHOD"><ellipse cx="102.57" cy="883.7728" fill="#84BE84" rx="3" ry="3" style="stroke:#038048;stroke-width:1;"/></g><text fill="#000000" font-family="sans-serif" font-size="14" lengthAdjust="spacing" textLength="416.917" x="111.57" y="887.1195">updateOutputColourRamp(newRange: [string, string]): void</text></g><!--class LegendGenerator--><g class="entity" data-qualified-name="LegendGenerator" data-source-line="24" id="ent0005"><rect fill="#F1F1F1" height="64.2969" rx="2.5" ry="2.5" style="stroke:#181818;stroke-width:0.5;" width="522.0566" x="569" y="789.38"/><ellipse cx="764.395" cy="805.38" fill="#B4A7E5" rx="11" ry="11" style="stroke:#181818;stroke-width:1;"/><path d="M760.3169,801.1456 L760.3169,798.9894 L767.7075,798.9894 L767.7075,801.1456 L765.2388,801.1456 L765.2388,809.2237 L767.7075,809.2237 L767.7075,811.38 L760.3169,811.38 L760.3169,809.2237 L762.7856,809.2237 L762.7856,801.1456 L760.3169,801.1456 Z " fill="#000000"/><text fill="#000000" font-family="sans-serif" font-size="14" font-style="italic" lengthAdjust="spacing" textLength="122.7666" x="784.895" y="810.2267">LegendGenerator</text><line style="stroke:#181818;stroke-width:0.5;" x1="570" x2="1090.0566" y1="821.38" y2="821.38"/><line style="stroke:#181818;stroke-width:0.5;" x1="570" x2="1090.0566" y1="829.38" y2="829.38"/><g data-visibility-modifier="PUBLIC_METHOD"><ellipse cx="580" cy="843.0284" fill="#84BE84" rx="3" ry="3" style="stroke:#038048;stroke-width:1;"/></g><text fill="#000000" font-family="sans-serif" font-size="14" lengthAdjust="spacing" textLength="496.0566" x="589" y="846.3751">getLegendEntriesDiv(options: LegendSymbolOverrides): HTMLElement</text></g><!--class NumericLinearScaler--><g class="entity" data-qualified-name="NumericLinearScaler" data-source-line="28" id="ent0006"><rect fill="#F1F1F1" height="129.4844" rx="2.5" ry="2.5" style="stroke:#181818;stroke-width:0.5;" width="430.2432" x="1027.91" y="229.08"/><ellipse cx="1165.8455" cy="245.08" fill="#ADD1B2" rx="11" ry="11" style="stroke:#181818;stroke-width:1;"/><path d="M1168.8143,250.7206 Q1168.2362,251.0175 1167.5955,251.1581 Q1166.9549,251.3144 1166.2518,251.3144 Q1163.7518,251.3144 1162.4237,249.6737 Q1161.1112,248.0175 1161.1112,244.8925 Q1161.1112,241.7675 1162.4237,240.1112 Q1163.7518,238.455 1166.2518,238.455 Q1166.9549,238.455 1167.5955,238.6112 Q1168.2518,238.7675 1168.8143,239.0644 L1168.8143,241.7831 Q1168.1893,241.205 1167.5955,240.9394 Q1167.0018,240.6581 1166.3768,240.6581 Q1165.033,240.6581 1164.3455,241.7362 Q1163.658,242.7987 1163.658,244.8925 Q1163.658,246.9862 1164.3455,248.0644 Q1165.033,249.1269 1166.3768,249.1269 Q1167.0018,249.1269 1167.5955,248.8612 Q1168.1893,248.58 1168.8143,248.0019 L1168.8143,250.7206 Z " fill="#000000"/><text fill="#000000" font-family="sans-serif" font-size="14" lengthAdjust="spacing" textLength="145.8721" x="1186.3455" y="249.9267">NumericLinearScaler</text><line style="stroke:#181818;stroke-width:0.5;" x1="1028.91" x2="1457.1532" y1="261.08" y2="261.08"/><line style="stroke:#181818;stroke-width:0.5;" x1="1028.91" x2="1457.1532" y1="269.08" y2="269.08"/><g data-visibility-modifier="PUBLIC_METHOD"><ellipse cx="1038.91" cy="282.7284" fill="#84BE84" rx="3" ry="3" style="stroke:#038048;stroke-width:1;"/></g><text fill="#000000" font-family="sans-serif" font-size="14" lengthAdjust="spacing" textLength="307.0703" x="1047.91" y="286.0751">getProportionalValue(val: number): number</text><g data-visibility-modifier="PUBLIC_METHOD"><ellipse cx="1038.91" cy="299.0253" fill="#84BE84" rx="3" ry="3" style="stroke:#038048;stroke-width:1;"/></g><text fill="#000000" font-family="sans-serif" font-size="14" lengthAdjust="spacing" textLength="268.3652" x="1047.91" y="302.372">getScaledValue(val: number): number</text><g data-visibility-modifier="PUBLIC_METHOD"><ellipse cx="1038.91" cy="315.3222" fill="#84BE84" rx="3" ry="3" style="stroke:#038048;stroke-width:1;"/></g><text fill="#000000" font-family="sans-serif" font-size="14" lengthAdjust="spacing" textLength="188.4053" x="1047.91" y="318.6689">getDefaultValue(): number</text><g data-visibility-modifier="PUBLIC_METHOD"><ellipse cx="1038.91" cy="331.6191" fill="#84BE84" rx="3" ry="3" style="stroke:#038048;stroke-width:1;"/></g><text fill="#000000" font-family="sans-serif" font-size="14" lengthAdjust="spacing" textLength="404.2432" x="1047.91" y="334.9657">updateOutputRange(newRange: [number, number]): void</text><g data-visibility-modifier="PUBLIC_METHOD"><ellipse cx="1038.91" cy="347.9159" fill="#84BE84" rx="3" ry="3" style="stroke:#038048;stroke-width:1;"/></g><text fill="#000000" font-family="sans-serif" font-size="14" lengthAdjust="spacing" textLength="207.7373" x="1047.91" y="351.2626">pushValue(val: number): void</text></g><!--class NumericPercentClipScaler--><g class="entity" data-qualified-name="NumericPercentClipScaler" data-source-line="36" id="ent0009"><rect fill="#F1F1F1" height="64.2969" rx="2.5" ry="2.5" style="stroke:#181818;stroke-width:0.5;" width="374.8652" x="1383.6" y="583.6"/><ellipse cx="1475.6391" cy="599.6" fill="#ADD1B2" rx="11" ry="11" style="stroke:#181818;stroke-width:1;"/><path d="M1478.6078,605.2406 Q1478.0297,605.5375 1477.3891,605.6781 Q1476.7484,605.8344 1476.0453,605.8344 Q1473.5453,605.8344 1472.2172,604.1937 Q1470.9047,602.5375 1470.9047,599.4125 Q1470.9047,596.2875 1472.2172,594.6312 Q1473.5453,592.975 1476.0453,592.975 Q1476.7484,592.975 1477.3891,593.1312 Q1478.0453,593.2875 1478.6078,593.5844 L1478.6078,596.3031 Q1477.9828,595.725 1477.3891,595.4594 Q1476.7953,595.1781 1476.1703,595.1781 Q1474.8266,595.1781 1474.1391,596.2562 Q1473.4516,597.3187 1473.4516,599.4125 Q1473.4516,601.5062 1474.1391,602.5844 Q1474.8266,603.6469 1476.1703,603.6469 Q1476.7953,603.6469 1477.3891,603.3812 Q1477.9828,603.1 1478.6078,602.5219 L1478.6078,605.2406 Z " fill="#000000"/><text fill="#000000" font-family="sans-serif" font-size="14" lengthAdjust="spacing" textLength="182.2871" x="1496.1391" y="604.4467">NumericPercentClipScaler</text><line style="stroke:#181818;stroke-width:0.5;" x1="1384.6" x2="1757.4652" y1="615.6" y2="615.6"/><line style="stroke:#181818;stroke-width:0.5;" x1="1384.6" x2="1757.4652" y1="623.6" y2="623.6"/><g data-visibility-modifier="PUBLIC_METHOD"><ellipse cx="1394.6" cy="637.2484" fill="#84BE84" rx="3" ry="3" style="stroke:#038048;stroke-width:1;"/></g><text fill="#000000" font-family="sans-serif" font-size="14" lengthAdjust="spacing" textLength="348.8652" x="1403.6" y="640.5951">updateClipPercentage(percentage: number): void</text></g><!--class CategoricalScaler--><g class="entity" data-qualified-name="CategoricalScaler" data-source-line="40" id="ent0011"><rect fill="#F1F1F1" height="129.4844" rx="2.5" ry="2.5" style="stroke:#181818;stroke-width:0.5;" width="356.4834" x="1474.79" y="1317.1"/><ellipse cx="1587.2104" cy="1333.1" fill="#ADD1B2" rx="11" ry="11" style="stroke:#181818;stroke-width:1;"/><path d="M1590.1792,1338.7406 Q1589.601,1339.0375 1588.9604,1339.1781 Q1588.3198,1339.3344 1587.6167,1339.3344 Q1585.1167,1339.3344 1583.7885,1337.6938 Q1582.476,1336.0375 1582.476,1332.9125 Q1582.476,1329.7875 1583.7885,1328.1313 Q1585.1167,1326.475 1587.6167,1326.475 Q1588.3198,1326.475 1588.9604,1326.6313 Q1589.6167,1326.7875 1590.1792,1327.0844 L1590.1792,1329.8031 Q1589.5542,1329.225 1588.9604,1328.9594 Q1588.3667,1328.6781 1587.7417,1328.6781 Q1586.3979,1328.6781 1585.7104,1329.7563 Q1585.0229,1330.8188 1585.0229,1332.9125 Q1585.0229,1335.0063 1585.7104,1336.0844 Q1586.3979,1337.1469 1587.7417,1337.1469 Q1588.3667,1337.1469 1588.9604,1336.8813 Q1589.5542,1336.6 1590.1792,1336.0219 L1590.1792,1338.7406 Z " fill="#000000"/><text fill="#000000" font-family="sans-serif" font-size="14" lengthAdjust="spacing" textLength="123.1426" x="1607.7104" y="1337.9467">CategoricalScaler</text><line style="stroke:#181818;stroke-width:0.5;" x1="1475.79" x2="1830.2734" y1="1349.1" y2="1349.1"/><g data-visibility-modifier="PUBLIC_FIELD"><ellipse cx="1485.79" cy="1362.7484" fill="none" rx="3" ry="3" style="stroke:#038048;stroke-width:1;"/></g><text fill="#000000" font-family="sans-serif" font-size="14" lengthAdjust="spacing" textLength="130.3408" x="1494.79" y="1366.0951">n_classes: number</text><g data-visibility-modifier="PUBLIC_FIELD"><ellipse cx="1485.79" cy="1379.0453" fill="none" rx="3" ry="3" style="stroke:#038048;stroke-width:1;"/></g><text fill="#000000" font-family="sans-serif" font-size="14" lengthAdjust="spacing" textLength="200.8193" x="1494.79" y="1382.392">has_AllOtherValues: boolean</text><g data-visibility-modifier="PUBLIC_FIELD"><ellipse cx="1485.79" cy="1395.3422" fill="none" rx="3" ry="3" style="stroke:#038048;stroke-width:1;"/></g><text fill="#000000" font-family="sans-serif" font-size="14" lengthAdjust="spacing" textLength="157.0215" x="1494.79" y="1398.6889">all_categories: string[]</text><line style="stroke:#181818;stroke-width:0.5;" x1="1475.79" x2="1830.2734" y1="1405.9906" y2="1405.9906"/><g data-visibility-modifier="PUBLIC_METHOD"><ellipse cx="1485.79" cy="1419.6391" fill="#84BE84" rx="3" ry="3" style="stroke:#038048;stroke-width:1;"/></g><text fill="#000000" font-family="sans-serif" font-size="14" lengthAdjust="spacing" textLength="277.0605" x="1494.79" y="1422.9857">pushCategory(val: string|number): void</text><g data-visibility-modifier="PUBLIC_METHOD"><ellipse cx="1485.79" cy="1435.9359" fill="#84BE84" rx="3" ry="3" style="stroke:#038048;stroke-width:1;"/></g><text fill="#000000" font-family="sans-serif" font-size="14" lengthAdjust="spacing" textLength="330.4834" x="1494.79" y="1439.2826">getValueForString(stringValue: string): number</text></g><!--class ColourLinearScaler--><g class="entity" data-qualified-name="ColourLinearScaler" data-source-line="48" id="ent0013"><rect fill="#F1F1F1" height="145.7813" rx="2.5" ry="2.5" style="stroke:#181818;stroke-width:0.5;" width="522.0566" x="741" y="542.86"/><ellipse cx="931.5996" cy="558.86" fill="#ADD1B2" rx="11" ry="11" style="stroke:#181818;stroke-width:1;"/><path d="M934.5684,564.5006 Q933.9902,564.7975 933.3496,564.9381 Q932.709,565.0944 932.0059,565.0944 Q929.5059,565.0944 928.1777,563.4537 Q926.8652,561.7975 926.8652,558.6725 Q926.8652,555.5475 928.1777,553.8912 Q929.5059,552.235 932.0059,552.235 Q932.709,552.235 933.3496,552.3912 Q934.0059,552.5475 934.5684,552.8444 L934.5684,555.5631 Q933.9434,554.985 933.3496,554.7194 Q932.7559,554.4381 932.1309,554.4381 Q930.7871,554.4381 930.0996,555.5162 Q929.4121,556.5787 929.4121,558.6725 Q929.4121,560.7662 930.0996,561.8444 Q930.7871,562.9069 932.1309,562.9069 Q932.7559,562.9069 933.3496,562.6412 Q933.9434,562.36 934.5684,561.7819 L934.5684,564.5006 Z " fill="#000000"/><text fill="#000000" font-family="sans-serif" font-size="14" lengthAdjust="spacing" textLength="132.3574" x="952.0996" y="563.7067">ColourLinearScaler</text><line style="stroke:#181818;stroke-width:0.5;" x1="742" x2="1262.0566" y1="574.86" y2="574.86"/><line style="stroke:#181818;stroke-width:0.5;" x1="742" x2="1262.0566" y1="582.86" y2="582.86"/><g data-visibility-modifier="PUBLIC_METHOD"><ellipse cx="752" cy="596.5084" fill="#84BE84" rx="3" ry="3" style="stroke:#038048;stroke-width:1;"/></g><text fill="#000000" font-family="sans-serif" font-size="14" lengthAdjust="spacing" textLength="275.1602" x="761" y="599.8551">getColourForValue(val: number): string</text><g data-visibility-modifier="PUBLIC_METHOD"><ellipse cx="752" cy="612.8053" fill="#84BE84" rx="3" ry="3" style="stroke:#038048;stroke-width:1;"/></g><text fill="#000000" font-family="sans-serif" font-size="14" lengthAdjust="spacing" textLength="319.7578" x="761" y="616.152">getColourForProportion(prop: number): string</text><g data-visibility-modifier="PUBLIC_METHOD"><ellipse cx="752" cy="629.1022" fill="#84BE84" rx="3" ry="3" style="stroke:#038048;stroke-width:1;"/></g><text fill="#000000" font-family="sans-serif" font-size="14" lengthAdjust="spacing" textLength="179.8467" x="761" y="632.4489">getDefaultColour(): string</text><g data-visibility-modifier="PUBLIC_METHOD"><ellipse cx="752" cy="645.3991" fill="#84BE84" rx="3" ry="3" style="stroke:#038048;stroke-width:1;"/></g><text fill="#000000" font-family="sans-serif" font-size="14" lengthAdjust="spacing" textLength="416.917" x="761" y="648.7457">updateOutputColourRamp(newRange: [string, string]): void</text><g data-visibility-modifier="PUBLIC_METHOD"><ellipse cx="752" cy="661.6959" fill="#84BE84" rx="3" ry="3" style="stroke:#038048;stroke-width:1;"/></g><text fill="#000000" font-family="sans-serif" font-size="14" lengthAdjust="spacing" textLength="207.7373" x="761" y="665.0426">pushValue(val: number): void</text><g data-visibility-modifier="PUBLIC_METHOD"><ellipse cx="752" cy="677.9928" fill="#84BE84" rx="3" ry="3" style="stroke:#038048;stroke-width:1;"/></g><text fill="#000000" font-family="sans-serif" font-size="14" lengthAdjust="spacing" textLength="496.0566" x="761" y="681.3395">getLegendEntriesDiv(options: LegendSymbolOverrides): HTMLElement</text></g><!--class ColourPercentClipScaler--><g class="entity" data-qualified-name="ColourPercentClipScaler" data-source-line="57" id="ent0017"><rect fill="#F1F1F1" height="64.2969" rx="2.5" ry="2.5" style="stroke:#181818;stroke-width:0.5;" width="403.3574" x="1131.35" y="789.38"/><ellipse cx="1244.3925" cy="805.38" fill="#ADD1B2" rx="11" ry="11" style="stroke:#181818;stroke-width:1;"/><path d="M1247.3612,811.0206 Q1246.7831,811.3175 1246.1425,811.4581 Q1245.5019,811.6144 1244.7987,811.6144 Q1242.2987,811.6144 1240.9706,809.9737 Q1239.6581,808.3175 1239.6581,805.1925 Q1239.6581,802.0675 1240.9706,800.4112 Q1242.2987,798.755 1244.7987,798.755 Q1245.5019,798.755 1246.1425,798.9112 Q1246.7987,799.0675 1247.3612,799.3644 L1247.3612,802.0831 Q1246.7362,801.505 1246.1425,801.2394 Q1245.5487,800.9581 1244.9237,800.9581 Q1243.58,800.9581 1242.8925,802.0362 Q1242.205,803.0987 1242.205,805.1925 Q1242.205,807.2862 1242.8925,808.3644 Q1243.58,809.4269 1244.9237,809.4269 Q1245.5487,809.4269 1246.1425,809.1612 Q1246.7362,808.88 1247.3612,808.3019 L1247.3612,811.0206 Z " fill="#000000"/><text fill="#000000" font-family="sans-serif" font-size="14" lengthAdjust="spacing" textLength="168.7725" x="1264.8925" y="810.2267">ColourPercentClipScaler</text><line style="stroke:#181818;stroke-width:0.5;" x1="1132.35" x2="1533.7074" y1="821.38" y2="821.38"/><line style="stroke:#181818;stroke-width:0.5;" x1="1132.35" x2="1533.7074" y1="829.38" y2="829.38"/><g data-visibility-modifier="PUBLIC_METHOD"><ellipse cx="1142.35" cy="843.0284" fill="#84BE84" rx="3" ry="3" style="stroke:#038048;stroke-width:1;"/></g><text fill="#000000" font-family="sans-serif" font-size="14" lengthAdjust="spacing" textLength="377.3574" x="1151.35" y="846.3751">updateClipPercentage(newPercentage: number): void</text></g><!--class ColourChromaScaler--><g class="entity" data-qualified-name="ColourChromaScaler" data-source-line="61" id="ent0019"><rect fill="#F1F1F1" height="80.5938" rx="2.5" ry="2.5" style="stroke:#181818;stroke-width:0.5;" width="442.917" x="1120.57" y="978.87"/><ellipse cx="1265.7619" cy="994.87" fill="#ADD1B2" rx="11" ry="11" style="stroke:#181818;stroke-width:1;"/><path d="M1268.7306,1000.5106 Q1268.1525,1000.8075 1267.5119,1000.9481 Q1266.8713,1001.1044 1266.1681,1001.1044 Q1263.6681,1001.1044 1262.34,999.4637 Q1261.0275,997.8075 1261.0275,994.6825 Q1261.0275,991.5575 1262.34,989.9012 Q1263.6681,988.245 1266.1681,988.245 Q1266.8713,988.245 1267.5119,988.4012 Q1268.1681,988.5575 1268.7306,988.8544 L1268.7306,991.5731 Q1268.1056,990.995 1267.5119,990.7294 Q1266.9181,990.4481 1266.2931,990.4481 Q1264.9494,990.4481 1264.2619,991.5262 Q1263.5744,992.5887 1263.5744,994.6825 Q1263.5744,996.7762 1264.2619,997.8544 Q1264.9494,998.9169 1266.2931,998.9169 Q1266.9181,998.9169 1267.5119,998.6512 Q1268.1056,998.37 1268.7306,997.7919 L1268.7306,1000.5106 Z " fill="#000000"/><text fill="#000000" font-family="sans-serif" font-size="14" lengthAdjust="spacing" textLength="144.0332" x="1286.2619" y="999.7167">ColourChromaScaler</text><line style="stroke:#181818;stroke-width:0.5;" x1="1121.57" x2="1562.487" y1="1010.87" y2="1010.87"/><line style="stroke:#181818;stroke-width:0.5;" x1="1121.57" x2="1562.487" y1="1018.87" y2="1018.87"/><g data-visibility-modifier="PUBLIC_METHOD"><ellipse cx="1131.57" cy="1032.5184" fill="#84BE84" rx="3" ry="3" style="stroke:#038048;stroke-width:1;"/></g><text fill="#000000" font-family="sans-serif" font-size="14" lengthAdjust="spacing" textLength="319.7578" x="1140.57" y="1035.8651">getColourForProportion(prop: number): string</text><g data-visibility-modifier="PUBLIC_METHOD"><ellipse cx="1131.57" cy="1048.8153" fill="#84BE84" rx="3" ry="3" style="stroke:#038048;stroke-width:1;"/></g><text fill="#000000" font-family="sans-serif" font-size="14" lengthAdjust="spacing" textLength="416.917" x="1140.57" y="1052.162">updateOutputColourRamp(newRange: [string, string]): void</text></g><!--class ColourCategoricalScaler--><g class="entity" data-qualified-name="ColourCategoricalScaler" data-source-line="66" id="ent0021"><rect fill="#F1F1F1" height="113.1875" rx="2.5" ry="2.5" style="stroke:#181818;stroke-width:0.5;" width="522.0566" x="1061" y="1143.91"/><ellipse cx="1233.4946" cy="1159.91" fill="#ADD1B2" rx="11" ry="11" style="stroke:#181818;stroke-width:1;"/><path d="M1236.4634,1165.5506 Q1235.8853,1165.8475 1235.2446,1165.9881 Q1234.604,1166.1444 1233.9009,1166.1444 Q1231.4009,1166.1444 1230.0728,1164.5037 Q1228.7603,1162.8475 1228.7603,1159.7225 Q1228.7603,1156.5975 1230.0728,1154.9412 Q1231.4009,1153.285 1233.9009,1153.285 Q1234.604,1153.285 1235.2446,1153.4412 Q1235.9009,1153.5975 1236.4634,1153.8944 L1236.4634,1156.6131 Q1235.8384,1156.035 1235.2446,1155.7694 Q1234.6509,1155.4881 1234.0259,1155.4881 Q1232.6821,1155.4881 1231.9946,1156.5662 Q1231.3071,1157.6287 1231.3071,1159.7225 Q1231.3071,1161.8162 1231.9946,1162.8944 Q1232.6821,1163.9569 1234.0259,1163.9569 Q1234.6509,1163.9569 1235.2446,1163.6912 Q1235.8384,1163.41 1236.4634,1162.8319 L1236.4634,1165.5506 Z " fill="#000000"/><text fill="#000000" font-family="sans-serif" font-size="14" lengthAdjust="spacing" textLength="168.5674" x="1253.9946" y="1164.7567">ColourCategoricalScaler</text><line style="stroke:#181818;stroke-width:0.5;" x1="1062" x2="1582.0566" y1="1175.91" y2="1175.91"/><line style="stroke:#181818;stroke-width:0.5;" x1="1062" x2="1582.0566" y1="1183.91" y2="1183.91"/><g data-visibility-modifier="PUBLIC_METHOD"><ellipse cx="1072" cy="1197.5584" fill="#84BE84" rx="3" ry="3" style="stroke:#038048;stroke-width:1;"/></g><text fill="#000000" font-family="sans-serif" font-size="14" lengthAdjust="spacing" textLength="318.1787" x="1081" y="1200.9051">pushCategory(category: string|number): void</text><g data-visibility-modifier="PUBLIC_METHOD"><ellipse cx="1072" cy="1213.8553" fill="#84BE84" rx="3" ry="3" style="stroke:#038048;stroke-width:1;"/></g><text fill="#000000" font-family="sans-serif" font-size="14" lengthAdjust="spacing" textLength="285.127" x="1081" y="1217.202">getColourForCategory(val: string): string</text><g data-visibility-modifier="PUBLIC_METHOD"><ellipse cx="1072" cy="1230.1522" fill="#84BE84" rx="3" ry="3" style="stroke:#038048;stroke-width:1;"/></g><text fill="#000000" font-family="sans-serif" font-size="14" lengthAdjust="spacing" textLength="428.3945" x="1081" y="1233.4989">setUsePresetColours(presetType: PresetColourPalettes): void</text><g data-visibility-modifier="PUBLIC_METHOD"><ellipse cx="1072" cy="1246.4491" fill="#84BE84" rx="3" ry="3" style="stroke:#038048;stroke-width:1;"/></g><text fill="#000000" font-family="sans-serif" font-size="14" lengthAdjust="spacing" textLength="496.0566" x="1081" y="1249.7957">getLegendEntriesDiv(options: LegendSymbolOverrides): HTMLElement</text></g><!--class PresetColourPalettes--><g class="entity" data-qualified-name="PresetColourPalettes" data-source-line="73" id="ent0023"><rect fill="#F1F1F1" height="113.1875" rx="2.5" ry="2.5" style="stroke:#181818;stroke-width:0.5;" width="178.043" x="1233.01" y="1325.24"/><ellipse cx="1248.01" cy="1341.24" fill="#EB937F" rx="11" ry="11" style="stroke:#181818;stroke-width:1;"/><path d="M1252.1194,1347.24 L1244.4006,1347.24 L1244.4006,1334.8494 L1252.1194,1334.8494 L1252.1194,1337.0056 L1246.8538,1337.0056 L1246.8538,1339.6775 L1251.6194,1339.6775 L1251.6194,1341.8338 L1246.8538,1341.8338 L1246.8538,1345.0838 L1252.1194,1345.0838 L1252.1194,1347.24 Z " fill="#000000"/><text fill="#000000" font-family="sans-serif" font-size="14" lengthAdjust="spacing" textLength="146.043" x="1262.01" y="1346.0867">PresetColourPalettes</text><line style="stroke:#181818;stroke-width:0.5;" x1="1234.01" x2="1410.053" y1="1357.24" y2="1357.24"/><text fill="#000000" font-family="sans-serif" font-size="14" lengthAdjust="spacing" textLength="51.502" x="1239.01" y="1374.2351">PAIRED</text><text fill="#000000" font-family="sans-serif" font-size="14" lengthAdjust="spacing" textLength="35.1914" x="1239.01" y="1390.532">SET3</text><text fill="#000000" font-family="sans-serif" font-size="14" lengthAdjust="spacing" textLength="79.3652" x="1239.01" y="1406.8289">CUBEHELIX</text><text fill="#000000" font-family="sans-serif" font-size="14" lengthAdjust="spacing" textLength="68.8037" x="1239.01" y="1423.1257">NOTUSED</text><line style="stroke:#181818;stroke-width:0.5;" x1="1234.01" x2="1410.053" y1="1430.4275" y2="1430.4275"/></g><!--class ScaledSizePointSymbolSimulator--><g class="entity" data-qualified-name="ScaledSizePointSymbolSimulator" data-source-line="80" id="ent0024"><rect fill="#F1F1F1" height="80.5938" rx="2.5" ry="2.5" style="stroke:#181818;stroke-width:0.5;" width="522.0566" x="7" y="978.87"/><ellipse cx="148.644" cy="994.87" fill="#ADD1B2" rx="11" ry="11" style="stroke:#181818;stroke-width:1;"/><path d="M151.6128,1000.5106 Q151.0347,1000.8075 150.394,1000.9481 Q149.7534,1001.1044 149.0503,1001.1044 Q146.5503,1001.1044 145.2222,999.4637 Q143.9097,997.8075 143.9097,994.6825 Q143.9097,991.5575 145.2222,989.9012 Q146.5503,988.245 149.0503,988.245 Q149.7534,988.245 150.394,988.4012 Q151.0503,988.5575 151.6128,988.8544 L151.6128,991.5731 Q150.9878,990.995 150.394,990.7294 Q149.8003,990.4481 149.1753,990.4481 Q147.8315,990.4481 147.144,991.5262 Q146.4565,992.5887 146.4565,994.6825 Q146.4565,996.7762 147.144,997.8544 Q147.8315,998.9169 149.1753,998.9169 Q149.8003,998.9169 150.394,998.6512 Q150.9878,998.37 151.6128,997.7919 L151.6128,1000.5106 Z " fill="#000000"/><text fill="#000000" font-family="sans-serif" font-size="14" lengthAdjust="spacing" textLength="230.2686" x="169.144" y="999.7167">ScaledSizePointSymbolSimulator</text><line style="stroke:#181818;stroke-width:0.5;" x1="8" x2="528.0566" y1="1010.87" y2="1010.87"/><line style="stroke:#181818;stroke-width:0.5;" x1="8" x2="528.0566" y1="1018.87" y2="1018.87"/><g data-visibility-modifier="PUBLIC_METHOD"><ellipse cx="18" cy="1032.5184" fill="#84BE84" rx="3" ry="3" style="stroke:#038048;stroke-width:1;"/></g><text fill="#000000" font-family="sans-serif" font-size="14" lengthAdjust="spacing" textLength="209.2412" x="27" y="1035.8651">setColour(colour: string): void</text><g data-visibility-modifier="PUBLIC_METHOD"><ellipse cx="18" cy="1048.8153" fill="#84BE84" rx="3" ry="3" style="stroke:#038048;stroke-width:1;"/></g><text fill="#000000" font-family="sans-serif" font-size="14" lengthAdjust="spacing" textLength="496.0566" x="27" y="1052.162">getLegendEntriesDiv(options: LegendSymbolOverrides): HTMLElement</text></g><!--class ConfiguredSymbolSimulator--><g class="entity" data-qualified-name="ConfiguredSymbolSimulator" data-source-line="85" id="ent0026"><rect fill="#F1F1F1" height="129.4844" rx="2.5" ry="2.5" style="stroke:#181818;stroke-width:0.5;" width="522.0566" x="564" y="954.42"/><ellipse cx="722.3955" cy="970.42" fill="#ADD1B2" rx="11" ry="11" style="stroke:#181818;stroke-width:1;"/><path d="M725.3643,976.0606 Q724.7861,976.3575 724.1455,976.4981 Q723.5049,976.6544 722.8018,976.6544 Q720.3018,976.6544 718.9736,975.0137 Q717.6611,973.3575 717.6611,970.2325 Q717.6611,967.1075 718.9736,965.4512 Q720.3018,963.795 722.8018,963.795 Q723.5049,963.795 724.1455,963.9512 Q724.8018,964.1075 725.3643,964.4044 L725.3643,967.1231 Q724.7393,966.545 724.1455,966.2794 Q723.5518,965.9981 722.9268,965.9981 Q721.583,965.9981 720.8955,967.0762 Q720.208,968.1387 720.208,970.2325 Q720.208,972.3262 720.8955,973.4044 Q721.583,974.4669 722.9268,974.4669 Q723.5518,974.4669 724.1455,974.2012 Q724.7393,973.92 725.3643,973.3419 L725.3643,976.0606 Z " fill="#000000"/><text fill="#000000" font-family="sans-serif" font-size="14" lengthAdjust="spacing" textLength="196.7656" x="742.8955" y="975.2667">ConfiguredSymbolSimulator</text><line style="stroke:#181818;stroke-width:0.5;" x1="565" x2="1085.0566" y1="986.42" y2="986.42"/><g data-visibility-modifier="PUBLIC_FIELD"><ellipse cx="575" cy="1000.0684" fill="none" rx="3" ry="3" style="stroke:#038048;stroke-width:1;"/></g><text fill="#000000" font-family="sans-serif" font-size="14" lengthAdjust="spacing" textLength="154.3418" x="584" y="1003.4151">HasPolygons: boolean</text><g data-visibility-modifier="PUBLIC_FIELD"><ellipse cx="575" cy="1016.3653" fill="none" rx="3" ry="3" style="stroke:#038048;stroke-width:1;"/></g><text fill="#000000" font-family="sans-serif" font-size="14" lengthAdjust="spacing" textLength="128.0098" x="584" y="1019.712">HasLines: boolean</text><g data-visibility-modifier="PUBLIC_FIELD"><ellipse cx="575" cy="1032.6622" fill="none" rx="3" ry="3" style="stroke:#038048;stroke-width:1;"/></g><text fill="#000000" font-family="sans-serif" font-size="14" lengthAdjust="spacing" textLength="134.0938" x="584" y="1036.0089">HasPoints: boolean</text><line style="stroke:#181818;stroke-width:0.5;" x1="565" x2="1085.0566" y1="1043.3106" y2="1043.3106"/><g data-visibility-modifier="PUBLIC_METHOD"><ellipse cx="575" cy="1056.9591" fill="#84BE84" rx="3" ry="3" style="stroke:#038048;stroke-width:1;"/></g><text fill="#000000" font-family="sans-serif" font-size="14" lengthAdjust="spacing" textLength="447.8564" x="584" y="1060.3057">updateSymbolConfig(symbolConfig: SymbolConfiguration): void</text><g data-visibility-modifier="PUBLIC_METHOD"><ellipse cx="575" cy="1073.2559" fill="#84BE84" rx="3" ry="3" style="stroke:#038048;stroke-width:1;"/></g><text fill="#000000" font-family="sans-serif" font-size="14" lengthAdjust="spacing" textLength="496.0566" x="584" y="1076.6026">getLegendEntriesDiv(options: LegendSymbolOverrides): HTMLElement</text></g><!--reverse link NumericScaler to NumericLinearScaler--><g class="link" data-entity-1="ent0002" data-entity-2="ent0006" data-link-type="extension" data-source-line="29" id="lnk7"><path d="M1230.1018,187.2847 C1229.6218,206.9947 1230.24,209.85 1231.09,228.69" fill="none" id="NumericScaler-backto-NumericLinearScaler" style="stroke:#181818;stroke-width:1;stroke-dasharray:7,7;"/><polygon fill="none" points="1230.54,169.29,1224.1036,187.1386,1236.1,187.4307,1230.54,169.29" style="stroke:#181818;stroke-width:1;"/></g><!--link NumericLinearScaler to NumericScaler--><g class="link" data-entity-1="ent0006" data-entity-2="ent0002" data-link-type="extension" data-source-line="93" id="lnk28"><path codeLine="93" d="M1255.67,228.69 C1256.57,209.85 1257.2256,206.994 1256.7156,187.284" fill="none" id="NumericLinearScaler-to-NumericScaler" style="stroke:#181818;stroke-width:1;stroke-dasharray:7,7;"/><polygon fill="none" points="1256.25,169.29,1250.7176,187.4392,1262.7136,187.1288,1256.25,169.29" style="stroke:#181818;stroke-width:1;"/></g><!--reverse link IterativeScaler to NumericLinearScaler--><g class="link" data-entity-1="ent0003" data-entity-2="ent0006" data-link-type="extension" data-source-line="29" id="lnk8"><path d="M1190.6042,403.5328 C1202.9142,386.4028 1206.24,379.22 1217.98,358.72" fill="none" id="IterativeScaler-backto-NumericLinearScaler" style="stroke:#181818;stroke-width:1;stroke-dasharray:7,7;"/><polygon fill="none" points="1180.1,418.15,1195.4766,407.0342,1185.7318,400.0314,1180.1,418.15" style="stroke:#181818;stroke-width:1;"/></g><!--link NumericLinearScaler to IterativeScaler--><g class="link" data-entity-1="ent0006" data-entity-2="ent0003" data-link-type="extension" data-source-line="94" id="lnk29"><path codeLine="94" d="M1192.09,358.72 C1179.25,379.22 1174.7422,384.8473 1166.3722,401.9773" fill="none" id="NumericLinearScaler-to-IterativeScaler" style="stroke:#181818;stroke-width:1;stroke-dasharray:7,7;"/><polygon fill="none" points="1158.47,418.15,1171.7631,404.6114,1160.9813,399.3433,1158.47,418.15" style="stroke:#181818;stroke-width:1;"/></g><!--reverse link NumericLinearScaler to NumericPercentClipScaler--><g class="link" data-entity-1="ent0006" data-entity-2="ent0009" data-link-type="extension" data-source-line="37" id="lnk10"><path d="M1310.7127,371.7202 C1376.6827,439.7302 1472.38,531.57 1530.97,583.44" fill="none" id="NumericLinearScaler-backto-NumericPercentClipScaler" style="stroke:#181818;stroke-width:1;"/><polygon fill="none" points="1298.18,358.8,1306.4059,375.8978,1315.0194,367.5427,1298.18,358.8" style="stroke:#181818;stroke-width:1;"/></g><!--link NumericPercentClipScaler to NumericLinearScaler--><g class="link" data-entity-1="ent0009" data-entity-2="ent0006" data-link-type="extension" data-source-line="95" id="lnk30"><path codeLine="95" d="M1547.35,583.44 C1499.91,531.57 1406.6091,439.0161 1332.8991,371.0061" fill="none" id="NumericPercentClipScaler-to-NumericLinearScaler" style="stroke:#181818;stroke-width:1;"/><polygon fill="none" points="1319.67,358.8,1328.8304,375.4158,1336.9679,366.5964,1319.67,358.8" style="stroke:#181818;stroke-width:1;"/></g><!--reverse link NumericPercentClipScaler to CategoricalScaler--><g class="link" data-entity-1="ent0009" data-entity-2="ent0011" data-link-type="extension" data-source-line="41" id="lnk12"><path d="M1569.4498,666.1225 C1572.7598,780.6925 1614.2,1159.95 1638.66,1316.61" fill="none" id="NumericPercentClipScaler-backto-CategoricalScaler" style="stroke:#181818;stroke-width:1;"/><polygon fill="none" points="1568.93,648.13,1563.4523,666.2958,1575.4473,665.9492,1568.93,648.13" style="stroke:#181818;stroke-width:1;"/></g><!--link CategoricalScaler to NumericPercentClipScaler--><g class="link" data-entity-1="ent0011" data-entity-2="ent0009" data-link-type="extension" data-source-line="96" id="lnk31"><path codeLine="96" d="M1654.05,1316.61 C1645.34,1159.95 1605.3676,780.3822 1583.5476,665.8122" fill="none" id="CategoricalScaler-to-NumericPercentClipScaler" style="stroke:#181818;stroke-width:1;"/><polygon fill="none" points="1580.18,648.13,1577.6535,666.9347,1589.4417,664.6896,1580.18,648.13" style="stroke:#181818;stroke-width:1;"/></g><!--reverse link ColourScaler to ColourLinearScaler--><g class="link" data-entity-1="ent0004" data-entity-2="ent0013" data-link-type="extension" data-source-line="49" id="lnk14"><path d="M552.0578,753.691 C563.6478,750.231 557.86,751.96 569.03,748.64 C634.52,729.18 705.43,708.33 770.57,689.09" fill="none" id="ColourScaler-backto-ColourLinearScaler" style="stroke:#181818;stroke-width:1;stroke-dasharray:7,7;"/><polygon fill="none" points="534.81,758.84,553.7742,759.4402,550.3415,747.9417,534.81,758.84" style="stroke:#181818;stroke-width:1;"/></g><!--link ColourLinearScaler to ColourScaler--><g class="link" data-entity-1="ent0013" data-entity-2="ent0004" data-link-type="extension" data-source-line="97" id="lnk32"><path codeLine="97" d="M740.65,687.97 C673.44,707.44 618.6038,723.5011 552.0638,743.2811" fill="none" id="ColourLinearScaler-to-ColourScaler" style="stroke:#181818;stroke-width:1;stroke-dasharray:7,7;"/><polygon fill="none" points="534.81,748.41,553.7735,749.0323,550.3542,737.5298,534.81,748.41" style="stroke:#181818;stroke-width:1;"/></g><!--reverse link IterativeScaler to ColourLinearScaler--><g class="link" data-entity-1="ent0003" data-entity-2="ent0013" data-link-type="extension" data-source-line="49" id="lnk15"><path d="M1098.3225,495.747 C1081.0425,512.677 1073.47,521.72 1054.9,542.54" fill="none" id="IterativeScaler-backto-ColourLinearScaler" style="stroke:#181818;stroke-width:1;stroke-dasharray:7,7;"/><polygon fill="none" points="1111.18,483.15,1094.1235,491.4612,1102.5215,500.0329,1111.18,483.15" style="stroke:#181818;stroke-width:1;"/></g><!--link ColourLinearScaler to IterativeScaler--><g class="link" data-entity-1="ent0013" data-entity-2="ent0003" data-link-type="extension" data-source-line="98" id="lnk33"><path codeLine="98" d="M1081,542.54 C1100.25,521.72 1107.9145,514.2143 1121.2645,497.2843" fill="none" id="ColourLinearScaler-to-IterativeScaler" style="stroke:#181818;stroke-width:1;stroke-dasharray:7,7;"/><polygon fill="none" points="1132.41,483.15,1116.5531,493.5691,1125.976,500.9995,1132.41,483.15" style="stroke:#181818;stroke-width:1;"/></g><!--reverse link LegendGenerator to ColourLinearScaler--><g class="link" data-entity-1="ent0005" data-entity-2="ent0013" data-link-type="extension" data-source-line="49" id="lnk16"><path d="M879.3047,775.9434 C904.9547,749.3034 926.47,723.12 954.12,688.88" fill="none" id="LegendGenerator-backto-ColourLinearScaler" style="stroke:#181818;stroke-width:1;stroke-dasharray:7,7;"/><polygon fill="none" points="866.82,788.91,883.6269,780.105,874.9825,771.7819,866.82,788.91" style="stroke:#181818;stroke-width:1;"/></g><!--link ColourLinearScaler to LegendGenerator--><g class="link" data-entity-1="ent0013" data-entity-2="ent0005" data-link-type="extension" data-source-line="99" id="lnk34"><path codeLine="99" d="M928.89,688.88 C898.82,723.12 877.3253,747.748 857.8153,774.388" fill="none" id="ColourLinearScaler-to-LegendGenerator" style="stroke:#181818;stroke-width:1;stroke-dasharray:7,7;"/><polygon fill="none" points="847.18,788.91,862.656,777.9331,852.9746,770.8428,847.18,788.91" style="stroke:#181818;stroke-width:1;"/></g><!--reverse link ColourLinearScaler to ColourPercentClipScaler--><g class="link" data-entity-1="ent0013" data-entity-2="ent0017" data-link-type="extension" data-source-line="58" id="lnk18"><path d="M1122.1761,698.4645 C1176.6061,732.7045 1225.86,762.27 1272.13,788.91" fill="none" id="ColourLinearScaler-backto-ColourPercentClipScaler" style="stroke:#181818;stroke-width:1;"/><polygon fill="none" points="1106.94,688.88,1118.9812,703.5432,1125.3709,693.3858,1106.94,688.88" style="stroke:#181818;stroke-width:1;"/></g><!--link ColourPercentClipScaler to ColourLinearScaler--><g class="link" data-entity-1="ent0017" data-entity-2="ent0013" data-link-type="extension" data-source-line="100" id="lnk35"><path codeLine="100" d="M1291.77,788.91 C1251.64,762.27 1204.4286,732.408 1147.5886,698.168" fill="none" id="ColourPercentClipScaler-to-ColourLinearScaler" style="stroke:#181818;stroke-width:1;"/><polygon fill="none" points="1132.17,688.88,1144.4926,703.3076,1150.6846,693.0285,1132.17,688.88" style="stroke:#181818;stroke-width:1;"/></g><!--reverse link ColourPercentClipScaler to ColourChromaScaler--><g class="link" data-entity-1="ent0017" data-entity-2="ent0019" data-link-type="extension" data-source-line="62" id="lnk20"><path d="M1323.6081,871.9198 C1321.3381,905.8398 1324.76,941.95 1329.74,978.71" fill="none" id="ColourPercentClipScaler-backto-ColourChromaScaler" style="stroke:#181818;stroke-width:1;"/><polygon fill="none" points="1324.81,853.96,1317.6215,871.5192,1329.5947,872.3205,1324.81,853.96" style="stroke:#181818;stroke-width:1;"/></g><!--link ColourChromaScaler to ColourPercentClipScaler--><g class="link" data-entity-1="ent0019" data-entity-2="ent0017" data-link-type="extension" data-source-line="101" id="lnk36"><path codeLine="101" d="M1351.3,978.71 C1353.09,941.95 1353.2622,905.6379 1347.6422,871.7179" fill="none" id="ColourChromaScaler-to-ColourPercentClipScaler" style="stroke:#181818;stroke-width:1;"/><polygon fill="none" points="1344.7,853.96,1341.7229,872.6986,1353.5615,870.7372,1344.7,853.96" style="stroke:#181818;stroke-width:1;"/></g><!--reverse link ColourChromaScaler to ColourCategoricalScaler--><g class="link" data-entity-1="ent0019" data-entity-2="ent0021" data-link-type="extension" data-source-line="67" id="lnk22"><path d="M1323.3385,1077.1702 C1318.4085,1101.8102 1317.98,1116.3 1316.35,1143.57" fill="none" id="ColourChromaScaler-backto-ColourCategoricalScaler" style="stroke:#181818;stroke-width:1;"/><polygon fill="none" points="1326.87,1059.52,1317.4551,1075.993,1329.2219,1078.3473,1326.87,1059.52" style="stroke:#181818;stroke-width:1;"/></g><!--link ColourCategoricalScaler to ColourChromaScaler--><g class="link" data-entity-1="ent0021" data-entity-2="ent0019" data-link-type="extension" data-source-line="102" id="lnk37"><path codeLine="102" d="M1340.88,1143.57 C1345.42,1116.3 1348.2786,1102.1571 1348.7186,1077.5171" fill="none" id="ColourCategoricalScaler-to-ColourChromaScaler" style="stroke:#181818;stroke-width:1;"/><polygon fill="none" points="1349.04,1059.52,1342.7196,1077.41,1354.7177,1077.6243,1349.04,1059.52" style="stroke:#181818;stroke-width:1;"/></g><!--reverse link LegendGenerator to ScaledSizePointSymbolSimulator--><g class="link" data-entity-1="ent0005" data-entity-2="ent0024" data-link-type="extension" data-source-line="81" id="lnk25"><path d="M712.6822,859.7874 C611.6922,893.6174 473.96,941.69 371.77,978.4" fill="none" id="LegendGenerator-backto-ScaledSizePointSymbolSimulator" style="stroke:#181818;stroke-width:1;stroke-dasharray:7,7;"/><polygon fill="none" points="729.75,854.07,710.7764,854.0982,714.588,865.4767,729.75,854.07" style="stroke:#181818;stroke-width:1;"/></g><!--link ScaledSizePointSymbolSimulator to LegendGenerator--><g class="link" data-entity-1="ent0024" data-entity-2="ent0005" data-link-type="extension" data-source-line="105" id="lnk40"><path codeLine="105" d="M393.38,978.4 C502.27,941.69 639.6014,894.0451 732.7414,860.2151" fill="none" id="ScaledSizePointSymbolSimulator-to-LegendGenerator" style="stroke:#181818;stroke-width:1;stroke-dasharray:7,7;"/><polygon fill="none" points="749.66,854.07,730.6931,854.5756,734.7898,865.8546,749.66,854.07" style="stroke:#181818;stroke-width:1;"/></g><!--reverse link LegendGenerator to ConfiguredSymbolSimulator--><g class="link" data-entity-1="ent0005" data-entity-2="ent0026" data-link-type="extension" data-source-line="86" id="lnk27"><path d="M817.0942,871.7903 C813.3742,898.6903 814.03,920.43 814.61,953.99" fill="none" id="LegendGenerator-backto-ConfiguredSymbolSimulator" style="stroke:#181818;stroke-width:1;stroke-dasharray:7,7;"/><polygon fill="none" points="819.56,853.96,811.1508,870.9684,823.0377,872.6122,819.56,853.96" style="stroke:#181818;stroke-width:1;"/></g><!--link ConfiguredSymbolSimulator to LegendGenerator--><g class="link" data-entity-1="ent0026" data-entity-2="ent0005" data-link-type="extension" data-source-line="106" id="lnk41"><path codeLine="106" d="M839.43,953.99 C841.82,920.43 843.6655,898.7809 841.1355,871.8809" fill="none" id="ConfiguredSymbolSimulator-to-LegendGenerator" style="stroke:#181818;stroke-width:1;stroke-dasharray:7,7;"/><polygon fill="none" points="839.45,853.96,835.1619,872.4427,847.1091,871.3191,839.45,853.96" style="stroke:#181818;stroke-width:1;"/></g><!--link ColourCategoricalScaler to CategoricalScaler--><g class="link" data-entity-1="ent0021" data-entity-2="ent0011" data-link-type="dependency" data-source-line="103" id="lnk38"><path codeLine="103" d="M1425.4,1257.51 C1460.01,1276.26 1493.6045,1294.4619 1529.2845,1313.7919" fill="none" id="ColourCategoricalScaler-to-CategoricalScaler" style="stroke:#181818;stroke-width:1;"/><polygon fill="#181818" points="1534.56,1316.65,1528.5521,1308.8458,1530.1637,1314.2683,1524.7413,1315.8799,1534.56,1316.65" style="stroke:#181818;stroke-width:1;"/></g><!--link ColourCategoricalScaler to PresetColourPalettes--><g class="link" data-entity-1="ent0021" data-entity-2="ent0023" data-link-type="dependency" data-source-line="104" id="lnk39"><path codeLine="104" d="M1322.03,1257.26 C1322.03,1278.75 1322.03,1297.29 1322.03,1318.8" fill="none" id="ColourCategoricalScaler-to-PresetColourPalettes" style="stroke:#181818;stroke-width:1;"/><polygon fill="#181818" points="1322.03,1324.8,1326.03,1315.8,1322.03,1319.8,1318.03,1315.8,1322.03,1324.8" style="stroke:#181818;stroke-width:1;"/></g><?plantuml-src rLPTJzim57tFhyXZfXLUzjO795QwWLHeHCeq2Q7AJI-f9SUERAUZW_ttENQQEeaTwCGqZHUSt7E_Zk-vAQOI-2DA8RmfS-0uJL94W8VFGQZ-FcOWOyuAnYLc595lY9GGRH4PXxJCLy0_x0yDNFkltm2yW4TK4ccG7NDPh964UIcBKjuYca54uOS-ZCDx0npL3W_ATSlmsZXYgZokCRr6JtsaWJ0TTHZ3WQw1enK1B-vN4E26kojrG19leSrUKOgDYmbTRol0X15MyXxtvlKNnbrHXEIOPbq-ZKlKiTk46iGjoWkRLOCUrLvjLZT8t9J4tBuOXol6221wi34wP3RvvblW7A-XYshHC8DCCVyLQ4KdivambYbLrO6umDk85TL8ga36akpo5IFx94ALVxcudaq9v41bbIGbI8ZzaCym1RId6-U5WOcs1aQ-Q_tVHF7Q6BQeYO6dYei9mKNTDJn9HR2RksUxjCgdTaUgkg8vUdDEb5V6L514tCdwrLZIghrtfYqpk2_jJ1fBbpfRDNKsdseqb-U4pEK6k7Ds4I7BjAwmCfeCzm_DRMalfSv46o9Zro_tuCCL7dhMSl1DeBq8UWCu6X38CQkYmHx6E2hKyPyiby7fV6Vvc-hy8-wucw49Lnt6RnXo7NIouIn7pdpU8J_-glxuAhhLUeNfwCOboLetko5TsksvjDpfJO2y4n1p47i_eQYedXQxGhLcMs9Lc9Hw4DvtZa3ruSnKin2VNzrEB_GncIu-wSFaxlFqSZgx-gwVRkQBkqH16iRDno71Fo5cwbDeIaXmNX8jSMivUDJVr1Ab-f_5tzyH4Nt4MSbXVNofbqZ4ZEmodRMrR9MbqftZjMQb-zuCkYd051G9ws4SsgQoMgAClZiVhY_YwUdBMVjtX1_MMU-1zwDtSd88QeS9-ZgreRr0WMF1wKhipuuNr2tNX-lSVU3RShhKVf30iM8igAyf3nNzO0Fui_ulaa6qQn44h-ZPGv5FKoxuRm00?></g></svg>