<svg xmlns="http://www.w3.org/2000/svg" xmlns:xlink="http://www.w3.org/1999/xlink" contentStyleType="text/css" data-diagram-type="CLASS" height="679px" preserveAspectRatio="none" style="width:1808px;height:679px;background:#FFFFFF;" version="1.1" viewBox="0 0 1808 679" width="1808px" zoomAndPan="magnify"><defs/><g><!--class NumericScaler--><g class="entity" data-entity="NumericScaler" data-source-line="1" data-uid="ent0002" id="entity_NumericScaler"><rect fill="#F1F1F1" height="162.0781" rx="2.5" ry="2.5" style="stroke:#181818;stroke-width:0.5;" width="430.2432" x="149" y="7"/><ellipse cx="308.6909" cy="23" fill="#B4A7E5" rx="11" ry="11" style="stroke:#181818;stroke-width:1;"/><path d="M304.6128,18.7656 L304.6128,16.6094 L312.0034,16.6094 L312.0034,18.7656 L309.5347,18.7656 L309.5347,26.8438 L312.0034,26.8438 L312.0034,29 L304.6128,29 L304.6128,26.8438 L307.0815,26.8438 L307.0815,18.7656 L304.6128,18.7656 Z " fill="#000000"/><text fill="#000000" font-family="sans-serif" font-size="14" font-style="italic" lengthAdjust="spacing" textLength="102.3613" x="329.1909" y="27.8467">NumericScaler</text><line style="stroke:#181818;stroke-width:0.5;" x1="150" x2="578.2432" y1="39" y2="39"/><ellipse cx="160" cy="52.6484" fill="none" rx="3" ry="3" style="stroke:#038048;stroke-width:1;"/><text fill="#000000" font-family="sans-serif" font-size="14" lengthAdjust="spacing" textLength="228.0674" x="169" y="55.9951">inputMinMax: [number, number]</text><ellipse cx="160" cy="68.9453" fill="none" rx="3" ry="3" style="stroke:#038048;stroke-width:1;"/><text fill="#000000" font-family="sans-serif" font-size="14" lengthAdjust="spacing" textLength="238.2324" x="169" y="72.292">outputMinMax: [number, number]</text><ellipse cx="160" cy="85.2422" fill="none" rx="3" ry="3" style="stroke:#038048;stroke-width:1;"/><text fill="#000000" font-family="sans-serif" font-size="14" lengthAdjust="spacing" textLength="268.5225" x="169" y="88.5889">renderableMinMax: [number, number]</text><line style="stroke:#181818;stroke-width:0.5;" x1="150" x2="578.2432" y1="95.8906" y2="95.8906"/><ellipse cx="160" cy="109.5391" fill="#84BE84" rx="3" ry="3" style="stroke:#038048;stroke-width:1;"/><text fill="#000000" font-family="sans-serif" font-size="14" lengthAdjust="spacing" textLength="307.0703" x="169" y="112.8857">getProportionalValue(val: number): number</text><ellipse cx="160" cy="125.8359" fill="#84BE84" rx="3" ry="3" style="stroke:#038048;stroke-width:1;"/><text fill="#000000" font-family="sans-serif" font-size="14" lengthAdjust="spacing" textLength="268.3652" x="169" y="129.1826">getScaledValue(val: number): number</text><ellipse cx="160" cy="142.1328" fill="#84BE84" rx="3" ry="3" style="stroke:#038048;stroke-width:1;"/><text fill="#000000" font-family="sans-serif" font-size="14" lengthAdjust="spacing" textLength="188.4053" x="169" y="145.4795">getDefaultValue(): number</text><ellipse cx="160" cy="158.4297" fill="#84BE84" rx="3" ry="3" style="stroke:#038048;stroke-width:1;"/><text fill="#000000" font-family="sans-serif" font-size="14" lengthAdjust="spacing" textLength="404.2432" x="169" y="161.7764">updateOutputRange(newRange: [number, number]): void</text></g><!--class IterativeScaler--><g class="entity" data-entity="IterativeScaler" data-source-line="11" data-uid="ent0003" id="entity_IterativeScaler"><rect fill="#F1F1F1" height="64.2969" rx="2.5" ry="2.5" style="stroke:#181818;stroke-width:0.5;" width="233.7373" x="105.25" y="575.45"/><ellipse cx="166.7358" cy="591.45" fill="#B4A7E5" rx="11" ry="11" style="stroke:#181818;stroke-width:1;"/><path d="M162.6577,587.2156 L162.6577,585.0594 L170.0483,585.0594 L170.0483,587.2156 L167.5796,587.2156 L167.5796,595.2938 L170.0483,595.2938 L170.0483,597.45 L162.6577,597.45 L162.6577,595.2938 L165.1265,595.2938 L165.1265,587.2156 L162.6577,587.2156 Z " fill="#000000"/><text fill="#000000" font-family="sans-serif" font-size="14" font-style="italic" lengthAdjust="spacing" textLength="102.2656" x="187.2358" y="596.2967">IterativeScaler</text><line style="stroke:#181818;stroke-width:0.5;" x1="106.25" x2="337.9873" y1="607.45" y2="607.45"/><line style="stroke:#181818;stroke-width:0.5;" x1="106.25" x2="337.9873" y1="615.45" y2="615.45"/><ellipse cx="116.25" cy="629.0984" fill="#84BE84" rx="3" ry="3" style="stroke:#038048;stroke-width:1;"/><text fill="#000000" font-family="sans-serif" font-size="14" lengthAdjust="spacing" textLength="207.7373" x="125.25" y="632.4451">pushValue(val: number): void</text></g><!--class ColourScaler--><g class="entity" data-entity="ColourScaler" data-source-line="15" data-uid="ent0004" id="entity_ColourScaler"><rect fill="#F1F1F1" height="145.7813" rx="2.5" ry="2.5" style="stroke:#181818;stroke-width:0.5;" width="442.917" x="614.66" y="15.14"/><ellipse cx="787.4452" cy="31.14" fill="#B4A7E5" rx="11" ry="11" style="stroke:#181818;stroke-width:1;"/><path d="M783.367,26.9056 L783.367,24.7494 L790.7577,24.7494 L790.7577,26.9056 L788.2889,26.9056 L788.2889,34.9837 L790.7577,34.9837 L790.7577,37.14 L783.367,37.14 L783.367,34.9837 L785.8358,34.9837 L785.8358,26.9056 L783.367,26.9056 Z " fill="#000000"/><text fill="#000000" font-family="sans-serif" font-size="14" font-style="italic" lengthAdjust="spacing" textLength="88.8467" x="807.9452" y="35.9867">ColourScaler</text><line style="stroke:#181818;stroke-width:0.5;" x1="615.66" x2="1056.577" y1="47.14" y2="47.14"/><ellipse cx="625.66" cy="60.7884" fill="none" rx="3" ry="3" style="stroke:#038048;stroke-width:1;"/><text fill="#000000" font-family="sans-serif" font-size="14" lengthAdjust="spacing" textLength="163.8369" x="634.66" y="64.1351">hasNullValues: boolean</text><ellipse cx="625.66" cy="77.0853" fill="none" rx="3" ry="3" style="stroke:#038048;stroke-width:1;"/><text fill="#000000" font-family="sans-serif" font-size="14" lengthAdjust="spacing" textLength="191.748" x="634.66" y="80.432">hasNonNullValues: boolean</text><ellipse cx="625.66" cy="93.3822" fill="none" rx="3" ry="3" style="stroke:#038048;stroke-width:1;"/><text fill="#000000" font-family="sans-serif" font-size="14" lengthAdjust="spacing" textLength="242.9561" x="634.66" y="96.7289">hasColourOverrideValues: boolean</text><line style="stroke:#181818;stroke-width:0.5;" x1="615.66" x2="1056.577" y1="104.0306" y2="104.0306"/><ellipse cx="625.66" cy="117.6791" fill="#84BE84" rx="3" ry="3" style="stroke:#038048;stroke-width:1;"/><text fill="#000000" font-family="sans-serif" font-size="14" lengthAdjust="spacing" textLength="320.0654" x="634.66" y="121.0257">getColourForValue(val: number|string): string</text><ellipse cx="625.66" cy="133.9759" fill="#84BE84" rx="3" ry="3" style="stroke:#038048;stroke-width:1;"/><text fill="#000000" font-family="sans-serif" font-size="14" lengthAdjust="spacing" textLength="179.8467" x="634.66" y="137.3226">getDefaultColour(): string</text><ellipse cx="625.66" cy="150.2728" fill="#84BE84" rx="3" ry="3" style="stroke:#038048;stroke-width:1;"/><text fill="#000000" font-family="sans-serif" font-size="14" lengthAdjust="spacing" textLength="416.917" x="634.66" y="153.6195">updateOutputColourRamp(newRange: [string, string]): void</text></g><!--class LegendGenerator--><g class="entity" data-entity="LegendGenerator" data-source-line="24" data-uid="ent0005" id="entity_LegendGenerator"><rect fill="#F1F1F1" height="64.2969" rx="2.5" ry="2.5" style="stroke:#181818;stroke-width:0.5;" width="708.5205" x="1092.86" y="55.89"/><ellipse cx="1381.487" cy="71.89" fill="#B4A7E5" rx="11" ry="11" style="stroke:#181818;stroke-width:1;"/><path d="M1377.4088,67.6556 L1377.4088,65.4994 L1384.7995,65.4994 L1384.7995,67.6556 L1382.3307,67.6556 L1382.3307,75.7337 L1384.7995,75.7337 L1384.7995,77.89 L1377.4088,77.89 L1377.4088,75.7337 L1379.8776,75.7337 L1379.8776,67.6556 L1377.4088,67.6556 Z " fill="#000000"/><text fill="#000000" font-family="sans-serif" font-size="14" font-style="italic" lengthAdjust="spacing" textLength="122.7666" x="1401.987" y="76.7367">LegendGenerator</text><line style="stroke:#181818;stroke-width:0.5;" x1="1093.86" x2="1800.3805" y1="87.89" y2="87.89"/><line style="stroke:#181818;stroke-width:0.5;" x1="1093.86" x2="1800.3805" y1="95.89" y2="95.89"/><ellipse cx="1103.86" cy="109.5384" fill="#84BE84" rx="3" ry="3" style="stroke:#038048;stroke-width:1;"/><text fill="#000000" font-family="sans-serif" font-size="14" lengthAdjust="spacing" textLength="682.5205" x="1112.86" y="112.8851">getLegendEntriesDiv(namestring: string, opacity?: number, withBorder?: boolean): HTMLElement</text></g><!--class NumericLinearScaler--><g class="entity" data-entity="NumericLinearScaler" data-source-line="28" data-uid="ent0006" id="entity_NumericLinearScaler"><rect fill="#F1F1F1" height="129.4844" rx="2.5" ry="2.5" style="stroke:#181818;stroke-width:0.5;" width="430.2432" x="7" y="229.07"/><ellipse cx="144.9355" cy="245.07" fill="#ADD1B2" rx="11" ry="11" style="stroke:#181818;stroke-width:1;"/><path d="M147.9043,250.7106 Q147.3262,251.0075 146.6855,251.1481 Q146.0449,251.3044 145.3418,251.3044 Q142.8418,251.3044 141.5137,249.6638 Q140.2012,248.0075 140.2012,244.8825 Q140.2012,241.7575 141.5137,240.1013 Q142.8418,238.445 145.3418,238.445 Q146.0449,238.445 146.6855,238.6013 Q147.3418,238.7575 147.9043,239.0544 L147.9043,241.7731 Q147.2793,241.195 146.6855,240.9294 Q146.0918,240.6481 145.4668,240.6481 Q144.123,240.6481 143.4355,241.7263 Q142.748,242.7888 142.748,244.8825 Q142.748,246.9763 143.4355,248.0544 Q144.123,249.1169 145.4668,249.1169 Q146.0918,249.1169 146.6855,248.8513 Q147.2793,248.57 147.9043,247.9919 L147.9043,250.7106 Z " fill="#000000"/><text fill="#000000" font-family="sans-serif" font-size="14" lengthAdjust="spacing" textLength="145.8721" x="165.4355" y="249.9167">NumericLinearScaler</text><line style="stroke:#181818;stroke-width:0.5;" x1="8" x2="436.2432" y1="261.07" y2="261.07"/><line style="stroke:#181818;stroke-width:0.5;" x1="8" x2="436.2432" y1="269.07" y2="269.07"/><ellipse cx="18" cy="282.7184" fill="#84BE84" rx="3" ry="3" style="stroke:#038048;stroke-width:1;"/><text fill="#000000" font-family="sans-serif" font-size="14" lengthAdjust="spacing" textLength="307.0703" x="27" y="286.0651">getProportionalValue(val: number): number</text><ellipse cx="18" cy="299.0153" fill="#84BE84" rx="3" ry="3" style="stroke:#038048;stroke-width:1;"/><text fill="#000000" font-family="sans-serif" font-size="14" lengthAdjust="spacing" textLength="268.3652" x="27" y="302.362">getScaledValue(val: number): number</text><ellipse cx="18" cy="315.3122" fill="#84BE84" rx="3" ry="3" style="stroke:#038048;stroke-width:1;"/><text fill="#000000" font-family="sans-serif" font-size="14" lengthAdjust="spacing" textLength="188.4053" x="27" y="318.6589">getDefaultValue(): number</text><ellipse cx="18" cy="331.6091" fill="#84BE84" rx="3" ry="3" style="stroke:#038048;stroke-width:1;"/><text fill="#000000" font-family="sans-serif" font-size="14" lengthAdjust="spacing" textLength="404.2432" x="27" y="334.9557">updateOutputRange(newRange: [number, number]): void</text><ellipse cx="18" cy="347.9059" fill="#84BE84" rx="3" ry="3" style="stroke:#038048;stroke-width:1;"/><text fill="#000000" font-family="sans-serif" font-size="14" lengthAdjust="spacing" textLength="207.7373" x="27" y="351.2526">pushValue(val: number): void</text></g><!--class NumericPercentClipScaler--><g class="entity" data-entity="NumericPercentClipScaler" data-source-line="36" data-uid="ent0009" id="entity_NumericPercentClipScaler"><rect fill="#F1F1F1" height="64.2969" rx="2.5" ry="2.5" style="stroke:#181818;stroke-width:0.5;" width="374.8652" x="296.69" y="418.56"/><ellipse cx="388.7291" cy="434.56" fill="#ADD1B2" rx="11" ry="11" style="stroke:#181818;stroke-width:1;"/><path d="M391.6978,440.2006 Q391.1197,440.4975 390.4791,440.6381 Q389.8384,440.7944 389.1353,440.7944 Q386.6353,440.7944 385.3072,439.1538 Q383.9947,437.4975 383.9947,434.3725 Q383.9947,431.2475 385.3072,429.5913 Q386.6353,427.935 389.1353,427.935 Q389.8384,427.935 390.4791,428.0913 Q391.1353,428.2475 391.6978,428.5444 L391.6978,431.2631 Q391.0728,430.685 390.4791,430.4194 Q389.8853,430.1381 389.2603,430.1381 Q387.9166,430.1381 387.2291,431.2163 Q386.5416,432.2788 386.5416,434.3725 Q386.5416,436.4663 387.2291,437.5444 Q387.9166,438.6069 389.2603,438.6069 Q389.8853,438.6069 390.4791,438.3413 Q391.0728,438.06 391.6978,437.4819 L391.6978,440.2006 Z " fill="#000000"/><text fill="#000000" font-family="sans-serif" font-size="14" lengthAdjust="spacing" textLength="182.2871" x="409.2291" y="439.4067">NumericPercentClipScaler</text><line style="stroke:#181818;stroke-width:0.5;" x1="297.69" x2="670.5552" y1="450.56" y2="450.56"/><line style="stroke:#181818;stroke-width:0.5;" x1="297.69" x2="670.5552" y1="458.56" y2="458.56"/><ellipse cx="307.69" cy="472.2084" fill="#84BE84" rx="3" ry="3" style="stroke:#038048;stroke-width:1;"/><text fill="#000000" font-family="sans-serif" font-size="14" lengthAdjust="spacing" textLength="348.8652" x="316.69" y="475.5551">updateClipPercentage(percentage: number): void</text></g><!--class CategoricalScaler--><g class="entity" data-entity="CategoricalScaler" data-source-line="40" data-uid="ent0013" id="entity_CategoricalScaler"><rect fill="#F1F1F1" height="129.4844" rx="2.5" ry="2.5" style="stroke:#181818;stroke-width:0.5;" width="356.4834" x="373.88" y="542.86"/><ellipse cx="486.3004" cy="558.86" fill="#ADD1B2" rx="11" ry="11" style="stroke:#181818;stroke-width:1;"/><path d="M489.2692,564.5006 Q488.691,564.7975 488.0504,564.9381 Q487.4098,565.0944 486.7067,565.0944 Q484.2067,565.0944 482.8785,563.4538 Q481.566,561.7975 481.566,558.6725 Q481.566,555.5475 482.8785,553.8913 Q484.2067,552.235 486.7067,552.235 Q487.4098,552.235 488.0504,552.3913 Q488.7067,552.5475 489.2692,552.8444 L489.2692,555.5631 Q488.6442,554.985 488.0504,554.7194 Q487.4567,554.4381 486.8317,554.4381 Q485.4879,554.4381 484.8004,555.5163 Q484.1129,556.5788 484.1129,558.6725 Q484.1129,560.7663 484.8004,561.8444 Q485.4879,562.9069 486.8317,562.9069 Q487.4567,562.9069 488.0504,562.6413 Q488.6442,562.36 489.2692,561.7819 L489.2692,564.5006 Z " fill="#000000"/><text fill="#000000" font-family="sans-serif" font-size="14" lengthAdjust="spacing" textLength="123.1426" x="506.8004" y="563.7067">CategoricalScaler</text><line style="stroke:#181818;stroke-width:0.5;" x1="374.88" x2="729.3634" y1="574.86" y2="574.86"/><ellipse cx="384.88" cy="588.5084" fill="none" rx="3" ry="3" style="stroke:#038048;stroke-width:1;"/><text fill="#000000" font-family="sans-serif" font-size="14" lengthAdjust="spacing" textLength="130.3408" x="393.88" y="591.8551">n_classes: number</text><ellipse cx="384.88" cy="604.8053" fill="none" rx="3" ry="3" style="stroke:#038048;stroke-width:1;"/><text fill="#000000" font-family="sans-serif" font-size="14" lengthAdjust="spacing" textLength="200.8193" x="393.88" y="608.152">has_AllOtherValues: boolean</text><ellipse cx="384.88" cy="621.1022" fill="none" rx="3" ry="3" style="stroke:#038048;stroke-width:1;"/><text fill="#000000" font-family="sans-serif" font-size="14" lengthAdjust="spacing" textLength="157.0215" x="393.88" y="624.4489">all_categories: string[]</text><line style="stroke:#181818;stroke-width:0.5;" x1="374.88" x2="729.3634" y1="631.7506" y2="631.7506"/><ellipse cx="384.88" cy="645.3991" fill="#84BE84" rx="3" ry="3" style="stroke:#038048;stroke-width:1;"/><text fill="#000000" font-family="sans-serif" font-size="14" lengthAdjust="spacing" textLength="303.4063" x="393.88" y="648.7457">pushCategory(val: string|number): boolean</text><ellipse cx="384.88" cy="661.6959" fill="#84BE84" rx="3" ry="3" style="stroke:#038048;stroke-width:1;"/><text fill="#000000" font-family="sans-serif" font-size="14" lengthAdjust="spacing" textLength="330.4834" x="393.88" y="665.0426">getValueForString(stringValue: string): number</text></g><!--class PointSymbolSimulator--><g class="entity" data-entity="PointSymbolSimulator" data-source-line="48" data-uid="ent0015" id="entity_PointSymbolSimulator"><rect fill="#F1F1F1" height="96.8906" rx="2.5" ry="2.5" style="stroke:#181818;stroke-width:0.5;" width="487.2002" x="1203.52" y="245.37"/><ellipse cx="1365.3813" cy="261.37" fill="#ADD1B2" rx="11" ry="11" style="stroke:#181818;stroke-width:1;"/><path d="M1368.3501,267.0106 Q1367.772,267.3075 1367.1313,267.4481 Q1366.4907,267.6044 1365.7876,267.6044 Q1363.2876,267.6044 1361.9595,265.9638 Q1360.647,264.3075 1360.647,261.1825 Q1360.647,258.0575 1361.9595,256.4013 Q1363.2876,254.745 1365.7876,254.745 Q1366.4907,254.745 1367.1313,254.9013 Q1367.7876,255.0575 1368.3501,255.3544 L1368.3501,258.0731 Q1367.7251,257.495 1367.1313,257.2294 Q1366.5376,256.9481 1365.9126,256.9481 Q1364.5688,256.9481 1363.8813,258.0263 Q1363.1938,259.0888 1363.1938,261.1825 Q1363.1938,263.2763 1363.8813,264.3544 Q1364.5688,265.4169 1365.9126,265.4169 Q1366.5376,265.4169 1367.1313,265.1513 Q1367.7251,264.87 1368.3501,264.2919 L1368.3501,267.0106 Z " fill="#000000"/><text fill="#000000" font-family="sans-serif" font-size="14" lengthAdjust="spacing" textLength="154.9775" x="1385.8813" y="266.2167">PointSymbolSimulator</text><line style="stroke:#181818;stroke-width:0.5;" x1="1204.52" x2="1689.7202" y1="277.37" y2="277.37"/><line style="stroke:#181818;stroke-width:0.5;" x1="1204.52" x2="1689.7202" y1="285.37" y2="285.37"/><ellipse cx="1214.52" cy="299.0184" fill="#84BE84" rx="3" ry="3" style="stroke:#038048;stroke-width:1;"/><text fill="#000000" font-family="sans-serif" font-size="14" lengthAdjust="spacing" textLength="461.2002" x="1223.52" y="302.3651">getPointSymbol(colourValue: string | number, sizeValue: number)</text><ellipse cx="1214.52" cy="315.3153" fill="#84BE84" rx="3" ry="3" style="stroke:#038048;stroke-width:1;"/><text fill="#000000" font-family="sans-serif" font-size="14" lengthAdjust="spacing" textLength="170.4473" x="1223.52" y="318.662">setColour(colour: string)</text><ellipse cx="1214.52" cy="331.6122" fill="#84BE84" rx="3" ry="3" style="stroke:#038048;stroke-width:1;"/><text fill="#000000" font-family="sans-serif" font-size="14" lengthAdjust="spacing" textLength="392.6357" x="1223.52" y="334.9589">getLegendEntriesDiv(namestring: string): HTMLElement</text></g><!--reverse link NumericScaler to NumericLinearScaler--><g class="link" data-entity-1="NumericScaler" data-entity-2="NumericLinearScaler" data-source-line="29" data-uid="lnk7" id="link_NumericScaler_NumericLinearScaler"><path d="M285.1869,183.8835 C270.9769,203.6035 267.15,209.84 254.87,228.68" fill="none" id="NumericScaler-backto-NumericLinearScaler" style="stroke:#181818;stroke-width:1;stroke-dasharray:7.0,7.0;"/><polygon fill="none" points="295.71,169.28,280.319,180.3758,290.0547,187.3913,295.71,169.28" style="stroke:#181818;stroke-width:1;"/></g><!--link NumericLinearScaler to NumericScaler--><g class="link" data-entity-1="NumericLinearScaler" data-entity-2="NumericScaler" data-source-line="54" data-uid="lnk17" id="link_NumericLinearScaler_NumericScaler"><path codeLine="54" d="M279.45,228.68 C293.48,209.84 298.1717,203.9477 311.4017,184.2277" fill="none" id="NumericLinearScaler-to-NumericScaler" style="stroke:#181818;stroke-width:1;stroke-dasharray:7.0,7.0;"/><polygon fill="none" points="321.43,169.28,306.4191,180.8849,316.3843,187.5705,321.43,169.28" style="stroke:#181818;stroke-width:1;"/></g><!--reverse link IterativeScaler to NumericLinearScaler--><g class="link" data-entity-1="IterativeScaler" data-entity-2="NumericLinearScaler" data-source-line="29" data-uid="lnk8" id="link_IterativeScaler_NumericLinearScaler"><path d="M222.12,557.25 C222.12,506.91 222.12,425 222.12,359.04" fill="none" id="IterativeScaler-backto-NumericLinearScaler" style="stroke:#181818;stroke-width:1;stroke-dasharray:7.0,7.0;"/><polygon fill="none" points="222.12,575.25,228.12,557.25,216.12,557.25,222.12,575.25" style="stroke:#181818;stroke-width:1;"/></g><!--reverse link NumericLinearScaler to NumericPercentClipScaler--><g class="link" data-entity-1="NumericLinearScaler" data-entity-2="NumericPercentClipScaler" data-source-line="37" data-uid="lnk10" id="link_NumericLinearScaler_NumericPercentClipScaler"><path d="M333.4309,368.1976 C367.5309,388.6776 389.6,401.16 420.4,418.24" fill="none" id="NumericLinearScaler-backto-NumericPercentClipScaler" style="stroke:#181818;stroke-width:1;"/><polygon fill="none" points="318,358.93,330.3417,373.3412,336.5201,363.054,318,358.93" style="stroke:#181818;stroke-width:1;"/></g><!--link NumericPercentClipScaler to NumericLinearScaler--><g class="link" data-entity-1="NumericPercentClipScaler" data-entity-2="NumericLinearScaler" data-source-line="57" data-uid="lnk20" id="link_NumericPercentClipScaler_NumericLinearScaler"><path codeLine="57" d="M442.01,418.24 C415.15,401.16 394.6472,388.464 359.4572,367.984" fill="none" id="NumericPercentClipScaler-to-NumericLinearScaler" style="stroke:#181818;stroke-width:1;"/><polygon fill="none" points="343.9,358.93,356.4391,373.1697,362.4752,362.7983,343.9,358.93" style="stroke:#181818;stroke-width:1;"/></g><!--reverse link NumericScaler to NumericPercentClipScaler--><g class="link" data-entity-1="NumericScaler" data-entity-2="NumericPercentClipScaler" data-source-line="37" data-uid="lnk11" id="link_NumericScaler_NumericPercentClipScaler"><path d="M417.677,184.8912 C428.937,203.6412 430.59,208.67 438.12,229.07 C461.86,293.41 466.62,374.6 472.98,418.34" fill="none" id="NumericScaler-backto-NumericPercentClipScaler" style="stroke:#181818;stroke-width:1;stroke-dasharray:7.0,7.0;"/><polygon fill="none" points="408.41,169.46,412.5332,187.9802,422.8207,181.8022,408.41,169.46" style="stroke:#181818;stroke-width:1;"/></g><!--link NumericPercentClipScaler to NumericScaler--><g class="link" data-entity-1="NumericPercentClipScaler" data-entity-2="NumericScaler" data-source-line="55" data-uid="lnk18" id="link_NumericPercentClipScaler_NumericScaler"><path codeLine="55" d="M496.31,418.34 C501.62,374.6 496.86,293.41 473.12,229.07 C465.59,208.67 464.4585,203.3158 452.3085,184.5658" fill="none" id="NumericPercentClipScaler-to-NumericScaler" style="stroke:#181818;stroke-width:1;stroke-dasharray:7.0,7.0;"/><polygon fill="none" points="442.52,169.46,447.2733,187.8286,457.3438,181.3029,442.52,169.46" style="stroke:#181818;stroke-width:1;"/></g><!--reverse link IterativeScaler to NumericPercentClipScaler--><g class="link" data-entity-1="IterativeScaler" data-entity-2="NumericPercentClipScaler" data-source-line="37" data-uid="lnk12" id="link_IterativeScaler_NumericPercentClipScaler"><path d="M302.2553,566.4054 C350.7453,539.6154 399.75,510.04 441.91,483.24" fill="none" id="IterativeScaler-backto-NumericPercentClipScaler" style="stroke:#181818;stroke-width:1;stroke-dasharray:7.0,7.0;"/><polygon fill="none" points="286.5,575.11,305.1569,571.6572,299.3538,561.1536,286.5,575.11" style="stroke:#181818;stroke-width:1;"/></g><!--link NumericPercentClipScaler to IterativeScaler--><g class="link" data-entity-1="NumericPercentClipScaler" data-entity-2="IterativeScaler" data-source-line="56" data-uid="lnk19" id="link_NumericPercentClipScaler_IterativeScaler"><path codeLine="56" d="M420.28,483.24 C371.95,510.04 322.4078,538.6907 280.0978,565.4807" fill="none" id="NumericPercentClipScaler-to-IterativeScaler" style="stroke:#181818;stroke-width:1;stroke-dasharray:7.0,7.0;"/><polygon fill="none" points="264.89,575.11,283.3075,570.5499,276.888,560.4114,264.89,575.11" style="stroke:#181818;stroke-width:1;"/></g><!--reverse link NumericPercentClipScaler to CategoricalScaler--><g class="link" data-entity-1="NumericPercentClipScaler" data-entity-2="CategoricalScaler" data-source-line="41" data-uid="lnk14" id="link_NumericPercentClipScaler_CategoricalScaler"><path d="M492.9872,500.1609 C498.5872,517.3109 501.91,522.09 511.48,542.67" fill="none" id="NumericPercentClipScaler-backto-CategoricalScaler" style="stroke:#181818;stroke-width:1;"/><polygon fill="none" points="487.4,483.05,487.2836,502.0233,498.6909,498.2985,487.4,483.05" style="stroke:#181818;stroke-width:1;"/></g><!--link CategoricalScaler to NumericPercentClipScaler--><g class="link" data-entity-1="CategoricalScaler" data-entity-2="NumericPercentClipScaler" data-source-line="58" data-uid="lnk21" id="link_CategoricalScaler_NumericPercentClipScaler"><path codeLine="58" d="M537.37,542.67 C528.9,522.09 527.3211,515.9184 517.7511,498.7684" fill="none" id="CategoricalScaler-to-NumericPercentClipScaler" style="stroke:#181818;stroke-width:1;"/><polygon fill="none" points="508.98,483.05,512.5117,501.6921,522.9906,495.8447,508.98,483.05" style="stroke:#181818;stroke-width:1;"/></g><!--reverse link LegendGenerator to PointSymbolSimulator--><g class="link" data-entity-1="LegendGenerator" data-entity-2="PointSymbolSimulator" data-source-line="49" data-uid="lnk16" id="link_LegendGenerator_PointSymbolSimulator"><path d="M1435.5939,138.3167 C1431.8439,171.5867 1433.37,206.64 1436.13,245.08" fill="none" id="LegendGenerator-backto-PointSymbolSimulator" style="stroke:#181818;stroke-width:1;stroke-dasharray:7.0,7.0;"/><polygon fill="none" points="1437.61,120.43,1429.6317,137.6447,1441.5562,138.9888,1437.61,120.43" style="stroke:#181818;stroke-width:1;"/></g><!--link PointSymbolSimulator to LegendGenerator--><g class="link" data-entity-1="PointSymbolSimulator" data-entity-2="LegendGenerator" data-source-line="59" data-uid="lnk22" id="link_PointSymbolSimulator_LegendGenerator"><path codeLine="59" d="M1458.76,245.08 C1461.69,206.64 1463.2928,171.5732 1459.3228,138.3032" fill="none" id="PointSymbolSimulator-to-LegendGenerator" style="stroke:#181818;stroke-width:1;stroke-dasharray:7.0,7.0;"/><polygon fill="none" points="1457.19,120.43,1453.365,139.0141,1465.2805,137.5923,1457.19,120.43" style="stroke:#181818;stroke-width:1;"/></g><!--SRC=[rLJBRjim4BphAtHKKIKVu4E3radQ0dPin4KlGM2ifOrCW285FfIuTV-zD5UIzKmRe9VwH6XdzZ6xOoOCgYT8CBopEIgMR1BWgCAVGUX-xpCqQoKBgGoJ0lXtu1QZ4lWi53RVeNfNFnguvwT_0Rp69x3S4B8NjaKA1bVM5DRSWyWm4lZi7xFmWO1nHNXqr5Aob8XCECQIYIMy3944aJxhwnY58aK5EuwJk5z1m1hjlhe765PYLxt2wlsO4hxVJeAvvDAgWVRq-LQgGPQZDeg9p2MZHrzMOaQzU5jNGjn3NhJ59NHSiRhYxa7VMKv7e6VXJagE8CunALuBKxrLYKgn5FkeZXeBpDm2FgCugIhRWb3aHhZkK5-pCXAG8_LQJng7ie24cSDLhLKSFZEp_oILs-bLKzADzkNRSd73CKTXJWqa7BIkVR1W0g7U2CiBWkckJUAfpVzllldJfNQaMQDAd1PppefgQdmnRYt_I3iQufIzAWHkZg9vJdOtTwnCklp0nziQzjtoQSK-a01qIiUcKkUOnTONF9rlMtntuzkFdA_C7jMe2O3pRL8rUGfIaOV7PhMUvTo-yO68ulvZ3JxlknbxBPrnDeTy9_c6vPPxnxH4dpPJYnabtfsTMk6nyOzcFx2ALP9G4bt_HLNyfist67PenB4pkhmyVkWUK32vrZTZUvSuZRwuE6TkjnSCZwyD7IGAHhVcU-djwpS0]--></g></svg>