<svg xmlns="http://www.w3.org/2000/svg" xmlns:xlink="http://www.w3.org/1999/xlink" contentStyleType="text/css" data-diagram-type="CLASS" height="424px" preserveAspectRatio="none" style="width:1770px;height:424px;background:#FFFFFF;" version="1.1" viewBox="0 0 1770 424" width="1770px" zoomAndPan="magnify"><defs/><g><!--class OSMapsDataviewConverter--><g class="entity" data-entity="OSMapsDataviewConverter" data-source-line="1" data-uid="ent0002" id="entity_OSMapsDataviewConverter"><rect fill="#F1F1F1" height="80.5938" rx="2.5" ry="2.5" style="stroke:#181818;stroke-width:0.5;" width="506.8057" x="631.61" y="7"/><ellipse cx="784.694" cy="23" fill="#ADD1B2" rx="11" ry="11" style="stroke:#181818;stroke-width:1;"/><path d="M787.6627,28.6406 Q787.0846,28.9375 786.444,29.0781 Q785.8034,29.2344 785.1002,29.2344 Q782.6002,29.2344 781.2721,27.5938 Q779.9596,25.9375 779.9596,22.8125 Q779.9596,19.6875 781.2721,18.0313 Q782.6002,16.375 785.1002,16.375 Q785.8034,16.375 786.444,16.5313 Q787.1002,16.6875 787.6627,16.9844 L787.6627,19.7031 Q787.0377,19.125 786.444,18.8594 Q785.8502,18.5781 785.2252,18.5781 Q783.8815,18.5781 783.194,19.6563 Q782.5065,20.7188 782.5065,22.8125 Q782.5065,24.9063 783.194,25.9844 Q783.8815,27.0469 785.2252,27.0469 Q785.8502,27.0469 786.444,26.7813 Q787.0377,26.5 787.6627,25.9219 L787.6627,28.6406 Z " fill="#000000"/><text fill="#000000" font-family="sans-serif" font-size="14" lengthAdjust="spacing" textLength="192.1377" x="805.194" y="27.8467">OSMapsDataviewConverter</text><line style="stroke:#181818;stroke-width:0.5;" x1="632.61" x2="1137.4157" y1="39" y2="39"/><line style="stroke:#181818;stroke-width:0.5;" x1="632.61" x2="1137.4157" y1="47" y2="47"/><ellipse cx="642.61" cy="60.6484" fill="#84BE84" rx="3" ry="3" style="stroke:#038048;stroke-width:1;"/><text fill="#000000" font-family="sans-serif" font-size="14" lengthAdjust="spacing" textLength="423.7598" x="651.61" y="63.9951">convert(options: VisualUpdateOptions): OSMapsParsedTable</text><rect fill="#F24D5C" height="6" style="stroke:#C82930;stroke-width:1;" width="6" x="639.61" y="73.9453"/><text fill="#000000" font-family="sans-serif" font-size="14" lengthAdjust="spacing" textLength="480.8057" x="651.61" y="80.292">parse_to_object(options: VisualUpdateOptions): OSMapsParsedTable</text></g><!--class OSMapsGeoJSONBuilder--><g class="entity" data-entity="OSMapsGeoJSONBuilder" data-source-line="6" data-uid="ent0003" id="entity_OSMapsGeoJSONBuilder"><rect fill="#F1F1F1" height="129.4844" rx="2.5" ry="2.5" style="stroke:#181818;stroke-width:0.5;" width="1756.0186" x="7" y="147.59"/><ellipse cx="796.3628" cy="163.59" fill="#ADD1B2" rx="11" ry="11" style="stroke:#181818;stroke-width:1;"/><path d="M799.3315,169.2306 Q798.7534,169.5275 798.1128,169.6681 Q797.4722,169.8244 796.769,169.8244 Q794.269,169.8244 792.9409,168.1838 Q791.6284,166.5275 791.6284,163.4025 Q791.6284,160.2775 792.9409,158.6213 Q794.269,156.965 796.769,156.965 Q797.4722,156.965 798.1128,157.1213 Q798.769,157.2775 799.3315,157.5744 L799.3315,160.2931 Q798.7065,159.715 798.1128,159.4494 Q797.519,159.1681 796.894,159.1681 Q795.5503,159.1681 794.8628,160.2463 Q794.1753,161.3088 794.1753,163.4025 Q794.1753,165.4963 794.8628,166.5744 Q795.5503,167.6369 796.894,167.6369 Q797.519,167.6369 798.1128,167.3713 Q798.7065,167.09 799.3315,166.5119 L799.3315,169.2306 Z " fill="#000000"/><text fill="#000000" font-family="sans-serif" font-size="14" lengthAdjust="spacing" textLength="168.793" x="816.8628" y="168.4367">OSMapsGeoJSONBuilder</text><line style="stroke:#181818;stroke-width:0.5;" x1="8" x2="1762.0186" y1="179.59" y2="179.59"/><line style="stroke:#181818;stroke-width:0.5;" x1="8" x2="1762.0186" y1="187.59" y2="187.59"/><ellipse cx="18" cy="201.2384" fill="#84BE84" rx="3" ry="3" style="stroke:#038048;stroke-width:1;"/><text fill="#000000" font-family="sans-serif" font-size="14" lengthAdjust="spacing" textLength="1491.7041" x="27" y="204.5851">buildPointSet(viewModel: OSMapsParsedTable, cartoSettings: LayerCartoSettings, signal: AbortSignal): Promise&lt;{featurecoll: OSMapsCartographicFeatureCollection, isAborted:boolean, logRecords:LogRecord[]}&gt;</text><ellipse cx="18" cy="217.5353" fill="#84BE84" rx="3" ry="3" style="stroke:#038048;stroke-width:1;"/><text fill="#000000" font-family="sans-serif" font-size="14" lengthAdjust="spacing" textLength="1730.0186" x="27" y="220.882">buildGeometriedFeatures(viewmodel: OSMapsParsedTable, settings: ParsedCardSettingsWrapper, signal: AbortSignal, updateid: string): Promise&lt;{featurecoll: OSMapsCartographicFeatureCollection, isAborted:boolean, logRecords: LogRecord[]}&gt;</text><rect fill="#F24D5C" height="6" style="stroke:#C82930;stroke-width:1;" width="6" x="15" y="230.8322"/><text fill="#000000" font-family="sans-serif" font-size="14" lengthAdjust="spacing" textLength="310.7822" x="27" y="237.1789">initializePolygonGeocoder(): Promise&lt;void&gt;</text><rect fill="#F24D5C" height="6" style="stroke:#C82930;stroke-width:1;" width="6" x="15" y="247.1291"/><text fill="#000000" font-family="sans-serif" font-size="14" lengthAdjust="spacing" textLength="210.875" x="27" y="253.4757">initializePointGeocoder(): void</text><rect fill="#F24D5C" height="6" style="stroke:#C82930;stroke-width:1;" width="6" x="15" y="263.4259"/><text fill="#000000" font-family="sans-serif" font-size="14" lengthAdjust="spacing" textLength="497.7246" x="27" y="269.7726">buildGeocodeLogRecord(geocodeMetrics: GeocodeMetrics): LogRecord</text></g><!--class PointGeocoder--><g class="entity" data-entity="PointGeocoder" data-source-line="14" data-uid="ent0004" id="entity_PointGeocoder"><rect fill="#F1F1F1" height="64.2969" rx="2.5" ry="2.5" style="stroke:#181818;stroke-width:0.5;" width="298.9111" x="401.55" y="345.22"/><ellipse cx="495.3527" cy="361.22" fill="#ADD1B2" rx="11" ry="11" style="stroke:#181818;stroke-width:1;"/><path d="M498.3215,366.8606 Q497.7434,367.1575 497.1027,367.2981 Q496.4621,367.4544 495.759,367.4544 Q493.259,367.4544 491.9309,365.8138 Q490.6184,364.1575 490.6184,361.0325 Q490.6184,357.9075 491.9309,356.2513 Q493.259,354.595 495.759,354.595 Q496.4621,354.595 497.1027,354.7513 Q497.759,354.9075 498.3215,355.2044 L498.3215,357.9231 Q497.6965,357.345 497.1027,357.0794 Q496.509,356.7981 495.884,356.7981 Q494.5402,356.7981 493.8527,357.8763 Q493.1652,358.9388 493.1652,361.0325 Q493.1652,363.1263 493.8527,364.2044 Q494.5402,365.2669 495.884,365.2669 Q496.509,365.2669 497.1027,365.0013 Q497.6965,364.72 498.3215,364.1419 L498.3215,366.8606 Z " fill="#000000"/><text fill="#000000" font-family="sans-serif" font-size="14" lengthAdjust="spacing" textLength="102.8057" x="515.8527" y="366.0667">PointGeocoder</text><line style="stroke:#181818;stroke-width:0.5;" x1="402.55" x2="699.4611" y1="377.22" y2="377.22"/><line style="stroke:#181818;stroke-width:0.5;" x1="402.55" x2="699.4611" y1="385.22" y2="385.22"/><ellipse cx="412.55" cy="398.8684" fill="#84BE84" rx="3" ry="3" style="stroke:#038048;stroke-width:1;"/><text fill="#000000" font-family="sans-serif" font-size="14" lengthAdjust="spacing" textLength="272.9111" x="421.55" y="402.2151">geocode(value: string): Promise&lt;any&gt;</text></g><!--class PolygonGeocoder--><g class="entity" data-entity="PolygonGeocoder" data-source-line="18" data-uid="ent0005" id="entity_PolygonGeocoder"><rect fill="#F1F1F1" height="64.2969" rx="2.5" ry="2.5" style="stroke:#181818;stroke-width:0.5;" width="298.9111" x="735.55" y="345.22"/><ellipse cx="819.2287" cy="361.22" fill="#ADD1B2" rx="11" ry="11" style="stroke:#181818;stroke-width:1;"/><path d="M822.1975,366.8606 Q821.6193,367.1575 820.9787,367.2981 Q820.3381,367.4544 819.635,367.4544 Q817.135,367.4544 815.8068,365.8138 Q814.4943,364.1575 814.4943,361.0325 Q814.4943,357.9075 815.8068,356.2513 Q817.135,354.595 819.635,354.595 Q820.3381,354.595 820.9787,354.7513 Q821.635,354.9075 822.1975,355.2044 L822.1975,357.9231 Q821.5725,357.345 820.9787,357.0794 Q820.385,356.7981 819.76,356.7981 Q818.4162,356.7981 817.7287,357.8763 Q817.0412,358.9388 817.0412,361.0325 Q817.0412,363.1263 817.7287,364.2044 Q818.4162,365.2669 819.76,365.2669 Q820.385,365.2669 820.9787,365.0013 Q821.5725,364.72 822.1975,364.1419 L822.1975,366.8606 Z " fill="#000000"/><text fill="#000000" font-family="sans-serif" font-size="14" lengthAdjust="spacing" textLength="123.0537" x="839.7287" y="366.0667">PolygonGeocoder</text><line style="stroke:#181818;stroke-width:0.5;" x1="736.55" x2="1033.4611" y1="377.22" y2="377.22"/><line style="stroke:#181818;stroke-width:0.5;" x1="736.55" x2="1033.4611" y1="385.22" y2="385.22"/><ellipse cx="746.55" cy="398.8684" fill="#84BE84" rx="3" ry="3" style="stroke:#038048;stroke-width:1;"/><text fill="#000000" font-family="sans-serif" font-size="14" lengthAdjust="spacing" textLength="272.9111" x="755.55" y="402.2151">geocode(value: string): Promise&lt;any&gt;</text></g><!--class GeocodeMetrics--><g class="entity" data-entity="GeocodeMetrics" data-source-line="22" data-uid="ent0006" id="entity_GeocodeMetrics"><rect fill="#F1F1F1" height="80.5938" rx="2.5" ry="2.5" style="stroke:#181818;stroke-width:0.5;" width="220.7764" x="1069.62" y="337.08"/><ellipse cx="1119.454" cy="353.08" fill="#ADD1B2" rx="11" ry="11" style="stroke:#181818;stroke-width:1;"/><path d="M1122.4227,358.7206 Q1121.8446,359.0175 1121.204,359.1581 Q1120.5634,359.3144 1119.8602,359.3144 Q1117.3602,359.3144 1116.0321,357.6738 Q1114.7196,356.0175 1114.7196,352.8925 Q1114.7196,349.7675 1116.0321,348.1113 Q1117.3602,346.455 1119.8602,346.455 Q1120.5634,346.455 1121.204,346.6113 Q1121.8602,346.7675 1122.4227,347.0644 L1122.4227,349.7831 Q1121.7977,349.205 1121.204,348.9394 Q1120.6102,348.6581 1119.9852,348.6581 Q1118.6415,348.6581 1117.954,349.7363 Q1117.2665,350.7988 1117.2665,352.8925 Q1117.2665,354.9863 1117.954,356.0644 Q1118.6415,357.1269 1119.9852,357.1269 Q1120.6102,357.1269 1121.204,356.8613 Q1121.7977,356.58 1122.4227,356.0019 L1122.4227,358.7206 Z " fill="#000000"/><text fill="#000000" font-family="sans-serif" font-size="14" lengthAdjust="spacing" textLength="112.6084" x="1139.954" y="357.9267">GeocodeMetrics</text><line style="stroke:#181818;stroke-width:0.5;" x1="1070.62" x2="1289.3964" y1="369.08" y2="369.08"/><line style="stroke:#181818;stroke-width:0.5;" x1="1070.62" x2="1289.3964" y1="377.08" y2="377.08"/><ellipse cx="1080.62" cy="390.7284" fill="#84BE84" rx="3" ry="3" style="stroke:#038048;stroke-width:1;"/><text fill="#000000" font-family="sans-serif" font-size="14" lengthAdjust="spacing" textLength="194.7764" x="1089.62" y="394.0751">addResult(result: any): void</text><ellipse cx="1080.62" cy="407.0253" fill="#84BE84" rx="3" ry="3" style="stroke:#038048;stroke-width:1;"/><text fill="#000000" font-family="sans-serif" font-size="14" lengthAdjust="spacing" textLength="136.4727" x="1089.62" y="410.372">getSummary(): any</text></g><!--link OSMapsGeoJSONBuilder to PointGeocoder--><g class="link" data-entity-1="OSMapsGeoJSONBuilder" data-entity-2="PointGeocoder" data-source-line="27" data-uid="lnk7" id="link_OSMapsGeoJSONBuilder_PointGeocoder"><path codeLine="27" d="M753.48,277.54 C706.2,300.62 660.332,323.0081 621.222,342.0981" fill="none" id="OSMapsGeoJSONBuilder-to-PointGeocoder" style="stroke:#181818;stroke-width:1;"/><polygon fill="#181818" points="615.83,344.73,625.6725,344.3768,620.3233,342.5368,622.1634,337.1876,615.83,344.73" style="stroke:#181818;stroke-width:1;"/></g><!--link OSMapsGeoJSONBuilder to PolygonGeocoder--><g class="link" data-entity-1="OSMapsGeoJSONBuilder" data-entity-2="PolygonGeocoder" data-source-line="28" data-uid="lnk8" id="link_OSMapsGeoJSONBuilder_PolygonGeocoder"><path codeLine="28" d="M885.01,277.3 C885.01,300.5 885.01,319.68 885.01,338.86" fill="none" id="OSMapsGeoJSONBuilder-to-PolygonGeocoder" style="stroke:#181818;stroke-width:1;"/><polygon fill="#181818" points="885.01,344.86,889.01,335.86,885.01,339.86,881.01,335.86,885.01,344.86" style="stroke:#181818;stroke-width:1;"/></g><!--link OSMapsGeoJSONBuilder to GeocodeMetrics--><g class="link" data-entity-1="OSMapsGeoJSONBuilder" data-entity-2="GeocodeMetrics" data-source-line="29" data-uid="lnk9" id="link_OSMapsGeoJSONBuilder_GeocodeMetrics"><path codeLine="29" d="M1001.18,277.54 C1037.29,297.5 1070.7884,316.0082 1102.9484,333.7782" fill="none" id="OSMapsGeoJSONBuilder-to-GeocodeMetrics" style="stroke:#181818;stroke-width:1;"/><polygon fill="#181818" points="1108.2,336.68,1102.2571,328.8262,1103.8236,334.2618,1098.388,335.8284,1108.2,336.68" style="stroke:#181818;stroke-width:1;"/></g><!--link OSMapsDataviewConverter to OSMapsGeoJSONBuilder--><g class="link" data-entity-1="OSMapsDataviewConverter" data-entity-2="OSMapsGeoJSONBuilder" data-source-line="30" data-uid="lnk10" id="link_OSMapsDataviewConverter_OSMapsGeoJSONBuilder"><path codeLine="30" d="M885.01,87.76 C885.01,105.57 885.01,121.07 885.01,141.11" fill="none" id="OSMapsDataviewConverter-to-OSMapsGeoJSONBuilder" style="stroke:#181818;stroke-width:1;"/><polygon fill="#181818" points="885.01,147.11,889.01,138.11,885.01,142.11,881.01,138.11,885.01,147.11" style="stroke:#181818;stroke-width:1;"/></g><!--SRC=[jPJFRjim3CRlUGeTNInv0MC8i6LOWQ5PWdf_3iDGq1BhSP15Gv8pP4NVVPGTfpRgx52WljWYgO_VZxAjBOIWTiKMcl018Xm8_spO7T17zEfXeUHwe_j0naqaTY5NtoYqOBys1YBk-k1LVbBPWmzela1fiTkzQbBWBl8TbxzHlq3bSR7G8vlNo9-AtUVtBLdpvB5CopsJYmN6B65isQ2TqLig3Jwob4LobVYuWIFwpJYsL84g1xBxNSa-5jr2lEqzrnJmxSCzGcmzQhRd3fr0vQ7vHVfZdzv8MeW5RAaeT59eyfBP8aZ8SdKh4jw4_6Pu_F7pSJq24jOQeoSq9ydGeTKNqSAPgW-BApDGVHTp3VfPkALgktCWawiW3LtrchZgEU-A74K2Itznp_POiHDsBPm-6pavC9cPUZdrSNMgwek68QRKkMTMzO5jcgmMDzUJzTN8tjExDsaol7GdeUm0jiMPmO4xhiSI4wwNYKoz3XfWp2s6riRCTxTSoQxn9AHBBDgw1dzC4v9iafpze5QhzPJsVsKJeik5KzUBI_-RL3gdyGy0]--></g></svg>