<svg xmlns="http://www.w3.org/2000/svg" xmlns:xlink="http://www.w3.org/1999/xlink" contentStyleType="text/css" data-diagram-type="CLASS" height="522px" preserveAspectRatio="none" style="width:553px;height:522px;background:#FFFFFF;" version="1.1" viewBox="0 0 553 522" width="553px" zoomAndPan="magnify"><defs/><g><!--class OSMapsGeoJson--><g class="entity" data-entity="OSMapsGeoJson" data-source-line="1" data-uid="ent0002" id="entity_OSMapsGeoJson"><rect fill="#F1F1F1" height="145.7813" rx="2.5" ry="2.5" style="stroke:#181818;stroke-width:0.5;" width="354.877" x="99.37" y="245.37"/><ellipse cx="215.7416" cy="261.37" fill="#ADD1B2" rx="11" ry="11" style="stroke:#181818;stroke-width:1;"/><path d="M218.7103,267.0106 Q218.1322,267.3075 217.4916,267.4481 Q216.851,267.6044 216.1478,267.6044 Q213.6478,267.6044 212.3197,265.9638 Q211.0072,264.3075 211.0072,261.1825 Q211.0072,258.0575 212.3197,256.4013 Q213.6478,254.745 216.1478,254.745 Q216.851,254.745 217.4916,254.9013 Q218.1478,255.0575 218.7103,255.3544 L218.7103,258.0731 Q218.0853,257.495 217.4916,257.2294 Q216.8978,256.9481 216.2728,256.9481 Q214.9291,256.9481 214.2416,258.0263 Q213.5541,259.0888 213.5541,261.1825 Q213.5541,263.2763 214.2416,264.3544 Q214.9291,265.4169 216.2728,265.4169 Q216.8978,265.4169 217.4916,265.1513 Q218.0853,264.87 218.7103,264.2919 L218.7103,267.0106 Z " fill="#000000"/><text fill="#000000" font-family="sans-serif" font-size="14" lengthAdjust="spacing" textLength="113.6338" x="236.2416" y="266.2167">OSMapsGeoJson</text><line style="stroke:#181818;stroke-width:0.5;" x1="100.37" x2="453.247" y1="277.37" y2="277.37"/><line style="stroke:#181818;stroke-width:0.5;" x1="100.37" x2="453.247" y1="285.37" y2="285.37"/><ellipse cx="110.37" cy="299.0184" fill="#84BE84" rx="3" ry="3" style="stroke:#038048;stroke-width:1;"/><text fill="#000000" font-family="sans-serif" font-size="14" lengthAdjust="spacing" textLength="268.1875" x="119.37" y="302.3651">updateColour(newColour: string): void</text><ellipse cx="110.37" cy="315.3153" fill="#84BE84" rx="3" ry="3" style="stroke:#038048;stroke-width:1;"/><text fill="#000000" font-family="sans-serif" font-size="14" lengthAdjust="spacing" textLength="297.0283" x="119.37" y="318.662">updateOpacity(newopacity: number): void</text><ellipse cx="110.37" cy="331.6122" fill="#84BE84" rx="3" ry="3" style="stroke:#038048;stroke-width:1;"/><text fill="#000000" font-family="sans-serif" font-size="14" lengthAdjust="spacing" textLength="249.2656" x="119.37" y="334.9589">updateSize(newSize: number): void</text><ellipse cx="110.37" cy="347.9091" fill="#84BE84" rx="3" ry="3" style="stroke:#038048;stroke-width:1;"/><text fill="#000000" font-family="sans-serif" font-size="14" lengthAdjust="spacing" textLength="290.9785" x="119.37" y="351.2557">updateWeight(newWeight: number): void</text><ellipse cx="110.37" cy="364.2059" fill="#84BE84" rx="3" ry="3" style="stroke:#038048;stroke-width:1;"/><text fill="#000000" font-family="sans-serif" font-size="14" lengthAdjust="spacing" textLength="328.877" x="119.37" y="367.5526">updateSelectedColour(newColour: string): void</text><ellipse cx="110.37" cy="380.5028" fill="#84BE84" rx="3" ry="3" style="stroke:#038048;stroke-width:1;"/><text fill="#000000" font-family="sans-serif" font-size="14" lengthAdjust="spacing" textLength="165.8809" x="119.37" y="383.8495">getPopupHTML(): string</text></g><!--class OSMapsMarkerPoint--><g class="entity" data-entity="OSMapsMarkerPoint" data-source-line="10" data-uid="ent0003" id="entity_OSMapsMarkerPoint"><rect fill="#F1F1F1" height="64.2969" rx="2.5" ry="2.5" style="stroke:#181818;stroke-width:0.5;" width="271.0479" x="141.29" y="451.15"/><ellipse cx="202.1162" cy="467.15" fill="#ADD1B2" rx="11" ry="11" style="stroke:#181818;stroke-width:1;"/><path d="M205.0849,472.7906 Q204.5068,473.0875 203.8662,473.2281 Q203.2255,473.3844 202.5224,473.3844 Q200.0224,473.3844 198.6943,471.7438 Q197.3818,470.0875 197.3818,466.9625 Q197.3818,463.8375 198.6943,462.1813 Q200.0224,460.525 202.5224,460.525 Q203.2255,460.525 203.8662,460.6813 Q204.5224,460.8375 205.0849,461.1344 L205.0849,463.8531 Q204.4599,463.275 203.8662,463.0094 Q203.2724,462.7281 202.6474,462.7281 Q201.3037,462.7281 200.6162,463.8063 Q199.9287,464.8688 199.9287,466.9625 Q199.9287,469.0563 200.6162,470.1344 Q201.3037,471.1969 202.6474,471.1969 Q203.2724,471.1969 203.8662,470.9313 Q204.4599,470.65 205.0849,470.0719 L205.0849,472.7906 Z " fill="#000000"/><text fill="#000000" font-family="sans-serif" font-size="14" lengthAdjust="spacing" textLength="140.8955" x="222.6162" y="471.9967">OSMapsMarkerPoint</text><line style="stroke:#181818;stroke-width:0.5;" x1="142.29" x2="411.3379" y1="483.15" y2="483.15"/><line style="stroke:#181818;stroke-width:0.5;" x1="142.29" x2="411.3379" y1="491.15" y2="491.15"/><ellipse cx="152.29" cy="504.7984" fill="#84BE84" rx="3" ry="3" style="stroke:#038048;stroke-width:1;"/><text fill="#000000" font-family="sans-serif" font-size="14" lengthAdjust="spacing" textLength="245.0479" x="161.29" y="508.1451">getAsLatLong(): [number, number]</text></g><!--class OSMapsCartographicFeatureCollection--><g class="entity" data-entity="OSMapsCartographicFeatureCollection" data-source-line="14" data-uid="ent0005" id="entity_OSMapsCartographicFeatureCollection"><rect fill="#F1F1F1" height="178.375" rx="2.5" ry="2.5" style="stroke:#181818;stroke-width:0.5;" width="539.625" x="7" y="7"/><ellipse cx="137.2109" cy="23" fill="#ADD1B2" rx="11" ry="11" style="stroke:#181818;stroke-width:1;"/><path d="M140.1797,28.6406 Q139.6016,28.9375 138.9609,29.0781 Q138.3203,29.2344 137.6172,29.2344 Q135.1172,29.2344 133.7891,27.5938 Q132.4766,25.9375 132.4766,22.8125 Q132.4766,19.6875 133.7891,18.0313 Q135.1172,16.375 137.6172,16.375 Q138.3203,16.375 138.9609,16.5313 Q139.6172,16.6875 140.1797,16.9844 L140.1797,19.7031 Q139.5547,19.125 138.9609,18.8594 Q138.3672,18.5781 137.7422,18.5781 Q136.3984,18.5781 135.7109,19.6563 Q135.0234,20.7188 135.0234,22.8125 Q135.0234,24.9063 135.7109,25.9844 Q136.3984,27.0469 137.7422,27.0469 Q138.3672,27.0469 138.9609,26.7813 Q139.5547,26.5 140.1797,25.9219 L140.1797,28.6406 Z " fill="#000000"/><text fill="#000000" font-family="sans-serif" font-size="14" lengthAdjust="spacing" textLength="270.7031" x="157.7109" y="27.8467">OSMapsCartographicFeatureCollection</text><line style="stroke:#181818;stroke-width:0.5;" x1="8" x2="545.625" y1="39" y2="39"/><ellipse cx="18" cy="52.6484" fill="none" rx="3" ry="3" style="stroke:#038048;stroke-width:1;"/><text fill="#000000" font-family="sans-serif" font-size="14" lengthAdjust="spacing" textLength="199.1992" x="27" y="55.9951">features: GeoJSON.Feature[]</text><ellipse cx="18" cy="68.9453" fill="none" rx="3" ry="3" style="stroke:#038048;stroke-width:1;"/><text fill="#000000" font-family="sans-serif" font-size="14" lengthAdjust="spacing" textLength="217.4375" x="27" y="72.292">length_unique_geoms: number</text><ellipse cx="18" cy="85.2422" fill="none" rx="3" ry="3" style="stroke:#038048;stroke-width:1;"/><text fill="#000000" font-family="sans-serif" font-size="14" lengthAdjust="spacing" textLength="156.0439" x="27" y="88.5889">isCategorical: boolean</text><line style="stroke:#181818;stroke-width:0.5;" x1="8" x2="545.625" y1="95.8906" y2="95.8906"/><ellipse cx="18" cy="109.5391" fill="#84BE84" rx="3" ry="3" style="stroke:#038048;stroke-width:1;"/><text fill="#000000" font-family="sans-serif" font-size="14" lengthAdjust="spacing" textLength="487.8809" x="27" y="112.8857">getColourLegendItemDiv(withBorder: boolean = false): HTMLElement</text><ellipse cx="18" cy="125.8359" fill="#84BE84" rx="3" ry="3" style="stroke:#038048;stroke-width:1;"/><text fill="#000000" font-family="sans-serif" font-size="14" lengthAdjust="spacing" textLength="275.2354" x="27" y="129.1826">getSizeLegendItemDiv(): HTMLElement</text><ellipse cx="18" cy="142.1328" fill="#84BE84" rx="3" ry="3" style="stroke:#038048;stroke-width:1;"/><text fill="#000000" font-family="sans-serif" font-size="14" lengthAdjust="spacing" textLength="431.9287" x="27" y="145.4795">updateCartoSettings(cartoSettings: LayerCartoSettings): void</text><ellipse cx="18" cy="158.4297" fill="#84BE84" rx="3" ry="3" style="stroke:#038048;stroke-width:1;"/><text fill="#000000" font-family="sans-serif" font-size="14" lengthAdjust="spacing" textLength="343.335" x="27" y="161.7764">pushFeature(newFeature: OSMapsGeoJson): void</text><ellipse cx="18" cy="174.7266" fill="#84BE84" rx="3" ry="3" style="stroke:#038048;stroke-width:1;"/><text fill="#000000" font-family="sans-serif" font-size="14" lengthAdjust="spacing" textLength="513.625" x="27" y="178.0732">GeometriesEqual(other: OSMapsCartographicFeatureCollection): boolean</text></g><!--reverse link OSMapsGeoJson to OSMapsMarkerPoint--><g class="link" data-entity-1="OSMapsGeoJson" data-entity-2="OSMapsMarkerPoint" data-source-line="11" data-uid="lnk4" id="link_OSMapsGeoJson_OSMapsMarkerPoint"><path d="M263.8459,409.2476 C263.5059,430.0576 264.58,433.72 266.48,450.68" fill="none" id="OSMapsGeoJson-backto-OSMapsMarkerPoint" style="stroke:#181818;stroke-width:1;"/><polygon fill="none" points="264.14,391.25,257.8468,409.1496,269.8451,409.3456,264.14,391.25" style="stroke:#181818;stroke-width:1;"/></g><!--reverse link OSMapsGeoJson to OSMapsMarkerPoint--><g class="link" data-entity-1="OSMapsGeoJson" data-entity-2="OSMapsMarkerPoint" data-source-line="26" data-uid="lnk7" id="link_OSMapsGeoJson_OSMapsMarkerPoint"><path codeLine="26" d="M290.5413,409.2473 C290.9013,430.0573 289.76,433.72 287.75,450.68" fill="none" id="OSMapsGeoJson-backto-OSMapsMarkerPoint-1" style="stroke:#181818;stroke-width:1;"/><polygon fill="none" points="290.23,391.25,284.5422,409.3511,296.5404,409.1435,290.23,391.25" style="stroke:#181818;stroke-width:1;"/></g><!--link OSMapsCartographicFeatureCollection to OSMapsGeoJson--><g class="link" data-entity-1="OSMapsCartographicFeatureCollection" data-entity-2="OSMapsGeoJson" data-source-line="25" data-uid="lnk6" id="link_OSMapsCartographicFeatureCollection_OSMapsGeoJson"><path codeLine="25" d="M276.81,185.75 C276.81,205.46 276.81,220.12 276.81,239.08" fill="none" id="OSMapsCartographicFeatureCollection-to-OSMapsGeoJson" style="stroke:#181818;stroke-width:1;"/><polygon fill="#181818" points="276.81,245.08,280.81,236.08,276.81,240.08,272.81,236.08,276.81,245.08" style="stroke:#181818;stroke-width:1;"/></g><!--SRC=[ZPBPRi8m44NVynL-36hf1qHjfIvqKoX8gTG7X9191iUgOmTx3ANBlzUMmvAM8lAIIN9oFNFlv88QGmPPdzRc7jIJKP9yHiHT9xOkACAD4ihgMC8oL0angBbadOGi52zsqK5DSuuhpwfG9aJQQWfw3vpn3_2aln_0Ne6p4ZqOgaEA8217A8xgc04ELMthXvT-6dVMIFGTHVcE8tsgtq0F5PT8u1r15lzuvUIkJ4enLP9vkL7eyhJfTlnR-8PgL4pJkkJv7L2qsXlj- -TRqLduO1BYJyi6psSDEXe7G81aM4wiv7CB4mQgCcj_0i3TGGXCQPvJaP2fKWAetBGS_4c1kS4U4QfRleYN7CjhfGlG6vvSa1aL1jnStgwUW0eaRbHyWcsDVM2pJNxk312TsIRETvyIaj8Lw1RHYgosfcmCyE4sPT8EfFM7UrU12nPCRswfY1MMVgmZ8kXipNB97PDPjtlPxYHgByhvLxVxTwj-0000]--></g></svg>