<svg xmlns="http://www.w3.org/2000/svg" xmlns:xlink="http://www.w3.org/1999/xlink" contentStyleType="text/css" data-diagram-type="CLASS" height="465px" preserveAspectRatio="none" style="width:1626px;height:465px;background:#FFFFFF;" version="1.1" viewBox="0 0 1626 465" width="1626px" zoomAndPan="magnify"><?plantuml 1.2026.3beta6?><defs/><g><!--class OSMapsDataviewConverter--><g class="entity" data-qualified-name="OSMapsDataviewConverter" data-source-line="1" id="ent0002"><rect fill="#F1F1F1" height="80.5938" rx="2.5" ry="2.5" style="stroke:#181818;stroke-width:0.5;" width="506.8057" x="388.05" y="7"/><ellipse cx="541.134" cy="23" fill="#ADD1B2" rx="11" ry="11" style="stroke:#181818;stroke-width:1;"/><path d="M544.1027,28.6406 Q543.5246,28.9375 542.884,29.0781 Q542.2434,29.2344 541.5402,29.2344 Q539.0402,29.2344 537.7121,27.5938 Q536.3996,25.9375 536.3996,22.8125 Q536.3996,19.6875 537.7121,18.0313 Q539.0402,16.375 541.5402,16.375 Q542.2434,16.375 542.884,16.5313 Q543.5402,16.6875 544.1027,16.9844 L544.1027,19.7031 Q543.4777,19.125 542.884,18.8594 Q542.2902,18.5781 541.6652,18.5781 Q540.3215,18.5781 539.634,19.6563 Q538.9465,20.7188 538.9465,22.8125 Q538.9465,24.9063 539.634,25.9844 Q540.3215,27.0469 541.6652,27.0469 Q542.2902,27.0469 542.884,26.7813 Q543.4777,26.5 544.1027,25.9219 L544.1027,28.6406 Z " fill="#000000"/><text fill="#000000" font-family="sans-serif" font-size="14" lengthAdjust="spacing" textLength="192.1377" x="561.634" y="27.8467">OSMapsDataviewConverter</text><line style="stroke:#181818;stroke-width:0.5;" x1="389.05" x2="893.8557" y1="39" y2="39"/><line style="stroke:#181818;stroke-width:0.5;" x1="389.05" x2="893.8557" y1="47" y2="47"/><g data-visibility-modifier="PUBLIC_METHOD"><ellipse cx="399.05" cy="60.6484" fill="#84BE84" rx="3" ry="3" style="stroke:#038048;stroke-width:1;"/></g><text fill="#000000" font-family="sans-serif" font-size="14" lengthAdjust="spacing" textLength="423.7598" x="408.05" y="63.9951">convert(options: VisualUpdateOptions): OSMapsParsedTable</text><g data-visibility-modifier="PRIVATE_METHOD"><rect fill="#F24D5C" height="6" style="stroke:#C82930;stroke-width:1;" width="6" x="396.05" y="73.9453"/></g><text fill="#000000" font-family="sans-serif" font-size="14" lengthAdjust="spacing" textLength="480.8057" x="408.05" y="80.292">parse_to_object(options: VisualUpdateOptions): OSMapsParsedTable</text></g><!--class OSMapsGeoJSONBuilder--><g class="entity" data-qualified-name="OSMapsGeoJSONBuilder" data-source-line="6" id="ent0003"><rect fill="#F1F1F1" height="162.0781" rx="2.5" ry="2.5" style="stroke:#181818;stroke-width:0.5;" width="1144.5508" x="69.18" y="147.6"/><ellipse cx="552.8089" cy="163.6" fill="#ADD1B2" rx="11" ry="11" style="stroke:#181818;stroke-width:1;"/><path d="M555.7777,169.2406 Q555.1995,169.5375 554.5589,169.6781 Q553.9183,169.8344 553.2152,169.8344 Q550.7152,169.8344 549.387,168.1937 Q548.0745,166.5375 548.0745,163.4125 Q548.0745,160.2875 549.387,158.6312 Q550.7152,156.975 553.2152,156.975 Q553.9183,156.975 554.5589,157.1312 Q555.2152,157.2875 555.7777,157.5844 L555.7777,160.3031 Q555.1527,159.725 554.5589,159.4594 Q553.9652,159.1781 553.3402,159.1781 Q551.9964,159.1781 551.3089,160.2562 Q550.6214,161.3187 550.6214,163.4125 Q550.6214,165.5062 551.3089,166.5844 Q551.9964,167.6469 553.3402,167.6469 Q553.9652,167.6469 554.5589,167.3812 Q555.1527,167.1 555.7777,166.5219 L555.7777,169.2406 Z " fill="#000000"/><text fill="#000000" font-family="sans-serif" font-size="14" lengthAdjust="spacing" textLength="168.793" x="573.3089" y="168.4467">OSMapsGeoJSONBuilder</text><line style="stroke:#181818;stroke-width:0.5;" x1="70.18" x2="1212.7308" y1="179.6" y2="179.6"/><line style="stroke:#181818;stroke-width:0.5;" x1="70.18" x2="1212.7308" y1="187.6" y2="187.6"/><g data-visibility-modifier="PUBLIC_METHOD"><ellipse cx="80.18" cy="201.2484" fill="#84BE84" rx="3" ry="3" style="stroke:#038048;stroke-width:1;"/></g><text fill="#000000" font-family="sans-serif" font-size="14" lengthAdjust="spacing" textLength="884.6865" x="89.18" y="204.5951">buildPointSet(viewModel: OSMapsParsedTable, cartoSettings: LayerCartoSettings, signal: AbortSignal): Promise&lt;BuildResult&gt;</text><g data-visibility-modifier="PUBLIC_METHOD"><ellipse cx="80.18" cy="217.5453" fill="#84BE84" rx="3" ry="3" style="stroke:#038048;stroke-width:1;"/></g><text fill="#000000" font-family="sans-serif" font-size="14" lengthAdjust="spacing" textLength="1118.5508" x="89.18" y="220.892">buildGeometriedFeatures(viewmodel: OSMapsParsedTable, settings: ParsedCardSettingsWrapper, signal: AbortSignal, updateid: string): Promise&lt;BuildResult&gt;</text><g data-visibility-modifier="PUBLIC_METHOD"><ellipse cx="80.18" cy="233.8422" fill="#84BE84" rx="3" ry="3" style="stroke:#038048;stroke-width:1;"/></g><text fill="#000000" font-family="sans-serif" font-size="14" lengthAdjust="spacing" textLength="343.4238" x="89.18" y="237.1889">reindexUserDataGeocoder(joinField: string): void</text><g data-visibility-modifier="PRIVATE_METHOD"><rect fill="#F24D5C" height="6" style="stroke:#C82930;stroke-width:1;" width="6" x="77.18" y="247.1391"/></g><text fill="#000000" font-family="sans-serif" font-size="14" lengthAdjust="spacing" textLength="310.7822" x="89.18" y="253.4857">initializePolygonGeocoder(): Promise&lt;void&gt;</text><g data-visibility-modifier="PRIVATE_METHOD"><rect fill="#F24D5C" height="6" style="stroke:#C82930;stroke-width:1;" width="6" x="77.18" y="263.4359"/></g><text fill="#000000" font-family="sans-serif" font-size="14" lengthAdjust="spacing" textLength="210.875" x="89.18" y="269.7826">initializePointGeocoder(): void</text><g data-visibility-modifier="PRIVATE_METHOD"><rect fill="#F24D5C" height="6" style="stroke:#C82930;stroke-width:1;" width="6" x="77.18" y="279.7328"/></g><text fill="#000000" font-family="sans-serif" font-size="14" lengthAdjust="spacing" textLength="348.8584" x="89.18" y="286.0795">initializeUserDataGeocoder(joinField: string): void</text><g data-visibility-modifier="PRIVATE_METHOD"><rect fill="#F24D5C" height="6" style="stroke:#C82930;stroke-width:1;" width="6" x="77.18" y="296.0297"/></g><text fill="#000000" font-family="sans-serif" font-size="14" lengthAdjust="spacing" textLength="497.7246" x="89.18" y="302.3764">buildGeocodeLogRecord(geocodeMetrics: GeocodeMetrics): LogRecord</text></g><g class="entity" data-qualified-name="GMN4" data-source-line="17" id="ent0005"><path d="M1249.04,185.81 L1249.04,224.64 L1213.94,228.64 L1249.04,232.64 L1249.04,271.4741 A0,0 0 0 0 1249.04,271.4741 L1611.8613,271.4741 A0,0 0 0 0 1611.8613,271.4741 L1611.8613,195.81 L1601.8613,185.81 L1249.04,185.81 A0,0 0 0 0 1249.04,185.81" fill="#FEFFDD" style="stroke:#181818;stroke-width:0.5;"/><path d="M1601.8613,185.81 L1601.8613,195.81 L1611.8613,195.81 L1601.8613,185.81" fill="#FEFFDD" style="stroke:#181818;stroke-width:0.5;"/><text fill="#000000" font-family="sans-serif" font-size="13" lengthAdjust="spacing" textLength="100.8135" x="1255.04" y="202.8769">BuildResult = {</text><text fill="#000000" font-family="sans-serif" font-size="13" lengthAdjust="spacing" textLength="333.5566" x="1263.3046" y="218.0097">featurecoll: OSMapsCartographicFeatureCollection,</text><text fill="#000000" font-family="sans-serif" font-size="13" lengthAdjust="spacing" textLength="126.7944" x="1263.3046" y="233.1425">isAborted: boolean,</text><text fill="#000000" font-family="sans-serif" font-size="13" lengthAdjust="spacing" textLength="160.1514" x="1263.3046" y="248.2753">logRecords: LogRecord[]</text><text fill="#000000" font-family="sans-serif" font-size="13" lengthAdjust="spacing" textLength="8.271" x="1255.04" y="263.4081">}</text></g><!--class PointGeocoder--><g class="entity" data-qualified-name="PointGeocoder" data-source-line="24" id="ent0007"><rect fill="#F1F1F1" height="64.2969" rx="2.5" ry="2.5" style="stroke:#181818;stroke-width:0.5;" width="298.9111" x="7" y="377.82"/><ellipse cx="100.8027" cy="393.82" fill="#ADD1B2" rx="11" ry="11" style="stroke:#181818;stroke-width:1;"/><path d="M103.7715,399.4606 Q103.1934,399.7575 102.5527,399.8981 Q101.9121,400.0544 101.209,400.0544 Q98.709,400.0544 97.3809,398.4138 Q96.0684,396.7575 96.0684,393.6325 Q96.0684,390.5075 97.3809,388.8513 Q98.709,387.195 101.209,387.195 Q101.9121,387.195 102.5527,387.3513 Q103.209,387.5075 103.7715,387.8044 L103.7715,390.5231 Q103.1465,389.945 102.5527,389.6794 Q101.959,389.3981 101.334,389.3981 Q99.9902,389.3981 99.3027,390.4763 Q98.6152,391.5388 98.6152,393.6325 Q98.6152,395.7263 99.3027,396.8044 Q99.9902,397.8669 101.334,397.8669 Q101.959,397.8669 102.5527,397.6013 Q103.1465,397.32 103.7715,396.7419 L103.7715,399.4606 Z " fill="#000000"/><text fill="#000000" font-family="sans-serif" font-size="14" lengthAdjust="spacing" textLength="102.8057" x="121.3027" y="398.6667">PointGeocoder</text><line style="stroke:#181818;stroke-width:0.5;" x1="8" x2="304.9111" y1="409.82" y2="409.82"/><line style="stroke:#181818;stroke-width:0.5;" x1="8" x2="304.9111" y1="417.82" y2="417.82"/><g data-visibility-modifier="PUBLIC_METHOD"><ellipse cx="18" cy="431.4684" fill="#84BE84" rx="3" ry="3" style="stroke:#038048;stroke-width:1;"/></g><text fill="#000000" font-family="sans-serif" font-size="14" lengthAdjust="spacing" textLength="272.9111" x="27" y="434.8151">geocode(value: string): Promise&lt;any&gt;</text></g><!--class PolygonGeocoder--><g class="entity" data-qualified-name="PolygonGeocoder" data-source-line="28" id="ent0008"><rect fill="#F1F1F1" height="64.2969" rx="2.5" ry="2.5" style="stroke:#181818;stroke-width:0.5;" width="298.9111" x="341" y="377.82"/><ellipse cx="424.6787" cy="393.82" fill="#ADD1B2" rx="11" ry="11" style="stroke:#181818;stroke-width:1;"/><path d="M427.6475,399.4606 Q427.0693,399.7575 426.4287,399.8981 Q425.7881,400.0544 425.085,400.0544 Q422.585,400.0544 421.2568,398.4138 Q419.9443,396.7575 419.9443,393.6325 Q419.9443,390.5075 421.2568,388.8513 Q422.585,387.195 425.085,387.195 Q425.7881,387.195 426.4287,387.3513 Q427.085,387.5075 427.6475,387.8044 L427.6475,390.5231 Q427.0225,389.945 426.4287,389.6794 Q425.835,389.3981 425.21,389.3981 Q423.8662,389.3981 423.1787,390.4763 Q422.4912,391.5388 422.4912,393.6325 Q422.4912,395.7263 423.1787,396.8044 Q423.8662,397.8669 425.21,397.8669 Q425.835,397.8669 426.4287,397.6013 Q427.0225,397.32 427.6475,396.7419 L427.6475,399.4606 Z " fill="#000000"/><text fill="#000000" font-family="sans-serif" font-size="14" lengthAdjust="spacing" textLength="123.0537" x="445.1787" y="398.6667">PolygonGeocoder</text><line style="stroke:#181818;stroke-width:0.5;" x1="342" x2="638.9111" y1="409.82" y2="409.82"/><line style="stroke:#181818;stroke-width:0.5;" x1="342" x2="638.9111" y1="417.82" y2="417.82"/><g data-visibility-modifier="PUBLIC_METHOD"><ellipse cx="352" cy="431.4684" fill="#84BE84" rx="3" ry="3" style="stroke:#038048;stroke-width:1;"/></g><text fill="#000000" font-family="sans-serif" font-size="14" lengthAdjust="spacing" textLength="272.9111" x="361" y="434.8151">geocode(value: string): Promise&lt;any&gt;</text></g><!--class UserDataGeocoder--><g class="entity" data-qualified-name="UserDataGeocoder" data-source-line="32" id="ent0009"><rect fill="#F1F1F1" height="80.5938" rx="2.5" ry="2.5" style="stroke:#181818;stroke-width:0.5;" width="236.54" x="675.19" y="369.68"/><ellipse cx="722.7681" cy="385.68" fill="#ADD1B2" rx="11" ry="11" style="stroke:#181818;stroke-width:1;"/><path d="M725.7369,391.3206 Q725.1588,391.6175 724.5181,391.7581 Q723.8775,391.9144 723.1744,391.9144 Q720.6744,391.9144 719.3463,390.2737 Q718.0338,388.6175 718.0338,385.4925 Q718.0338,382.3675 719.3463,380.7112 Q720.6744,379.055 723.1744,379.055 Q723.8775,379.055 724.5181,379.2112 Q725.1744,379.3675 725.7369,379.6644 L725.7369,382.3831 Q725.1119,381.805 724.5181,381.5394 Q723.9244,381.2581 723.2994,381.2581 Q721.9556,381.2581 721.2681,382.3362 Q720.5806,383.3987 720.5806,385.4925 Q720.5806,387.5862 721.2681,388.6644 Q721.9556,389.7269 723.2994,389.7269 Q723.9244,389.7269 724.5181,389.4612 Q725.1119,389.18 725.7369,388.6019 L725.7369,391.3206 Z " fill="#000000"/><text fill="#000000" font-family="sans-serif" font-size="14" lengthAdjust="spacing" textLength="132.8838" x="743.2681" y="390.5267">UserDataGeocoder</text><line style="stroke:#181818;stroke-width:0.5;" x1="676.19" x2="910.73" y1="401.68" y2="401.68"/><line style="stroke:#181818;stroke-width:0.5;" x1="676.19" x2="910.73" y1="409.68" y2="409.68"/><g data-visibility-modifier="PUBLIC_METHOD"><ellipse cx="686.19" cy="423.3284" fill="#84BE84" rx="3" ry="3" style="stroke:#038048;stroke-width:1;"/></g><text fill="#000000" font-family="sans-serif" font-size="14" lengthAdjust="spacing" textLength="193.252" x="695.19" y="426.6751">geocode(value: string): any</text><g data-visibility-modifier="PUBLIC_METHOD"><ellipse cx="686.19" cy="439.6253" fill="#84BE84" rx="3" ry="3" style="stroke:#038048;stroke-width:1;"/></g><text fill="#000000" font-family="sans-serif" font-size="14" lengthAdjust="spacing" textLength="210.54" x="695.19" y="442.972">reindex(joinField: string): void</text></g><!--class GeocodeMetrics--><g class="entity" data-qualified-name="GeocodeMetrics" data-source-line="37" id="ent0010"><rect fill="#F1F1F1" height="80.5938" rx="2.5" ry="2.5" style="stroke:#181818;stroke-width:0.5;" width="220.7764" x="947.07" y="369.68"/><ellipse cx="996.904" cy="385.68" fill="#ADD1B2" rx="11" ry="11" style="stroke:#181818;stroke-width:1;"/><path d="M999.8727,391.3206 Q999.2946,391.6175 998.654,391.7581 Q998.0134,391.9144 997.3102,391.9144 Q994.8102,391.9144 993.4821,390.2737 Q992.1696,388.6175 992.1696,385.4925 Q992.1696,382.3675 993.4821,380.7112 Q994.8102,379.055 997.3102,379.055 Q998.0134,379.055 998.654,379.2112 Q999.3102,379.3675 999.8727,379.6644 L999.8727,382.3831 Q999.2477,381.805 998.654,381.5394 Q998.0602,381.2581 997.4352,381.2581 Q996.0915,381.2581 995.404,382.3362 Q994.7165,383.3987 994.7165,385.4925 Q994.7165,387.5862 995.404,388.6644 Q996.0915,389.7269 997.4352,389.7269 Q998.0602,389.7269 998.654,389.4612 Q999.2477,389.18 999.8727,388.6019 L999.8727,391.3206 Z " fill="#000000"/><text fill="#000000" font-family="sans-serif" font-size="14" lengthAdjust="spacing" textLength="112.6084" x="1017.404" y="390.5267">GeocodeMetrics</text><line style="stroke:#181818;stroke-width:0.5;" x1="948.07" x2="1166.8464" y1="401.68" y2="401.68"/><line style="stroke:#181818;stroke-width:0.5;" x1="948.07" x2="1166.8464" y1="409.68" y2="409.68"/><g data-visibility-modifier="PUBLIC_METHOD"><ellipse cx="958.07" cy="423.3284" fill="#84BE84" rx="3" ry="3" style="stroke:#038048;stroke-width:1;"/></g><text fill="#000000" font-family="sans-serif" font-size="14" lengthAdjust="spacing" textLength="194.7764" x="967.07" y="426.6751">addResult(result: any): void</text><g data-visibility-modifier="PUBLIC_METHOD"><ellipse cx="958.07" cy="439.6253" fill="#84BE84" rx="3" ry="3" style="stroke:#038048;stroke-width:1;"/></g><text fill="#000000" font-family="sans-serif" font-size="14" lengthAdjust="spacing" textLength="136.4727" x="967.07" y="442.972">getSummary(): any</text></g><!--link OSMapsGeoJSONBuilder to PointGeocoder--><g class="link" data-entity-1="ent0003" data-entity-2="ent0007" data-link-type="dependency" data-source-line="42" id="lnk11"><path codeLine="42" d="M423.78,310.12 C359.32,333.96 298.1073,356.5882 247.3973,375.3482" fill="none" id="OSMapsGeoJSONBuilder-to-PointGeocoder" style="stroke:#181818;stroke-width:1;"/><polygon fill="#181818" points="241.77,377.43,251.5988,378.0588,246.4594,375.6952,248.823,370.5558,241.77,377.43" style="stroke:#181818;stroke-width:1;"/></g><!--link OSMapsGeoJSONBuilder to PolygonGeocoder--><g class="link" data-entity-1="ent0003" data-entity-2="ent0008" data-link-type="dependency" data-source-line="43" id="lnk12"><path codeLine="43" d="M573.69,310.12 C553.61,333.96 536.6737,354.0796 520.8837,372.8396" fill="none" id="OSMapsGeoJSONBuilder-to-PolygonGeocoder" style="stroke:#181818;stroke-width:1;"/><polygon fill="#181818" points="517.02,377.43,525.8758,373.1202,520.2397,373.6047,519.7552,367.9686,517.02,377.43" style="stroke:#181818;stroke-width:1;"/></g><!--link OSMapsGeoJSONBuilder to UserDataGeocoder--><g class="link" data-entity-1="ent0003" data-entity-2="ent0009" data-link-type="dependency" data-source-line="44" id="lnk13"><path codeLine="44" d="M709.67,310.12 C727.04,330.61 741.0708,347.1627 755.8508,364.6027" fill="none" id="OSMapsGeoJSONBuilder-to-UserDataGeocoder" style="stroke:#181818;stroke-width:1;"/><polygon fill="#181818" points="759.73,369.18,756.9628,359.7279,756.4973,365.3656,750.8597,364.9001,759.73,369.18" style="stroke:#181818;stroke-width:1;"/></g><!--link OSMapsGeoJSONBuilder to GeocodeMetrics--><g class="link" data-entity-1="ent0003" data-entity-2="ent0010" data-link-type="dependency" data-source-line="45" id="lnk14"><path codeLine="45" d="M828.16,310.12 C875.68,330.61 919.1903,349.3645 959.6403,366.8045" fill="none" id="OSMapsGeoJSONBuilder-to-GeocodeMetrics" style="stroke:#181818;stroke-width:1;"/><polygon fill="#181818" points="965.15,369.18,958.4691,361.9436,960.5586,367.2004,955.3018,369.2899,965.15,369.18" style="stroke:#181818;stroke-width:1;"/></g><!--link OSMapsDataviewConverter to OSMapsGeoJSONBuilder--><g class="link" data-entity-1="ent0002" data-entity-2="ent0003" data-link-type="dependency" data-source-line="46" id="lnk15"><path codeLine="46" d="M641.46,87.66 C641.46,105.19 641.46,120.51 641.46,141.17" fill="none" id="OSMapsDataviewConverter-to-OSMapsGeoJSONBuilder" style="stroke:#181818;stroke-width:1;"/><polygon fill="#181818" points="641.46,147.17,645.46,138.17,641.46,142.17,637.46,138.17,641.46,147.17" style="stroke:#181818;stroke-width:1;"/></g><?plantuml-src dLHTRzD047pFhxX78v8_444a26ebr92efl20K7NsRTsjphVMtJaGKFyxU-UFsi4kedcnRZqxExSpSQwbSsAVxcJbFaWlZmW_jcIEO3rOyNiX-FSwRme9LHx9kBNuWgwM-gPIqiE-ARvQjom7QHseppBJ4BjNLIZSUhgbx07o5x0yBXRvGEObqCTq_-bzZLezQSp2yK1eV0e-2TVOaG8zmRSKkRIU6ERH5ApZIfx0ReUrfN1O6CdTxpAoFeq7rdQmLAA3Dt7sDRXQ-yrWF2ihmLi4TG7IrnPS55BE2d6zXgRC8bIduQkLLGLsKifIr75hgDR2yK1JF2lE0Xe5FsySsE0noynPaaqUU5qN27h8SYHKZMzeqAFK-0iEf4y5cRvlC2p0Dt_ZsOOXUehqFzLq2mxOAogk8IUhag8fxCBMSrxZvUZC13qqfCYG1s6nkFU2xYRJnBC6wnDlstJTDNRcf7iVOruAzkWUyzRjBR_cW7EEbx4BNRGC-48PaGRPrdMdoGtqVVlExnuNO9G8Chl8ZrRPPRszTNAKkeQ914XpsZpzQyxSUnd9kLl_Ok7kKVRctUr7ZBth1aZLcf7O-8ZKmsIm19_MPIdjAMa7C-NafsArsemN-XnijBHvuFbYvf7Z-otclha1EiNn1m00?></g></svg>