<svg xmlns="http://www.w3.org/2000/svg" xmlns:xlink="http://www.w3.org/1999/xlink" contentStyleType="text/css" data-diagram-type="CLASS" height="954px" preserveAspectRatio="none" style="width:561px;height:954px;background:#FFFFFF;" version="1.1" viewBox="0 0 561 954" width="561px" zoomAndPan="magnify"><?plantuml 1.2026.3beta6?><defs/><g><!--class OSMapsGeoJson--><g class="entity" data-qualified-name="OSMapsGeoJson" data-source-line="1" id="ent0002"><rect fill="#F1F1F1" height="373.9375" rx="2.5" ry="2.5" style="stroke:#181818;stroke-width:0.5;" width="384.0186" x="84.8" y="440.94"/><ellipse cx="215.7424" cy="456.94" fill="#ADD1B2" rx="11" ry="11" style="stroke:#181818;stroke-width:1;"/><path d="M218.7111,462.5806 Q218.133,462.8775 217.4924,463.0181 Q216.8518,463.1744 216.1486,463.1744 Q213.6486,463.1744 212.3205,461.5337 Q211.008,459.8775 211.008,456.7525 Q211.008,453.6275 212.3205,451.9712 Q213.6486,450.315 216.1486,450.315 Q216.8518,450.315 217.4924,450.4712 Q218.1486,450.6275 218.7111,450.9244 L218.7111,453.6431 Q218.0861,453.065 217.4924,452.7994 Q216.8986,452.5181 216.2736,452.5181 Q214.9299,452.5181 214.2424,453.5962 Q213.5549,454.6587 213.5549,456.7525 Q213.5549,458.8462 214.2424,459.9244 Q214.9299,460.9869 216.2736,460.9869 Q216.8986,460.9869 217.4924,460.7212 Q218.0861,460.44 218.7111,459.8619 L218.7111,462.5806 Z " fill="#000000"/><text fill="#000000" font-family="sans-serif" font-size="14" lengthAdjust="spacing" textLength="113.6338" x="236.2424" y="461.7867">OSMapsGeoJson</text><line style="stroke:#181818;stroke-width:0.5;" x1="85.8" x2="467.8186" y1="472.94" y2="472.94"/><g data-visibility-modifier="PUBLIC_FIELD"><ellipse cx="95.8" cy="486.5884" fill="none" rx="3" ry="3" style="stroke:#038048;stroke-width:1;"/></g><text fill="#000000" font-family="sans-serif" font-size="14" lengthAdjust="spacing" textLength="170.7344" x="104.8" y="489.9351">fillColour: number|string</text><g data-visibility-modifier="PUBLIC_FIELD"><ellipse cx="95.8" cy="502.8853" fill="none" rx="3" ry="3" style="stroke:#038048;stroke-width:1;"/></g><text fill="#000000" font-family="sans-serif" font-size="14" lengthAdjust="spacing" textLength="115.1992" x="104.8" y="506.232">opacity: number</text><g data-visibility-modifier="PUBLIC_FIELD"><ellipse cx="95.8" cy="519.1822" fill="none" rx="3" ry="3" style="stroke:#038048;stroke-width:1;"/></g><text fill="#000000" font-family="sans-serif" font-size="14" lengthAdjust="spacing" textLength="90.9521" x="104.8" y="522.5289">size: number</text><g data-visibility-modifier="PUBLIC_FIELD"><ellipse cx="95.8" cy="535.4791" fill="none" rx="3" ry="3" style="stroke:#038048;stroke-width:1;"/></g><text fill="#000000" font-family="sans-serif" font-size="14" lengthAdjust="spacing" textLength="111.583" x="104.8" y="538.8257">isPoint: boolean</text><g data-visibility-modifier="PUBLIC_FIELD"><ellipse cx="95.8" cy="551.7759" fill="none" rx="3" ry="3" style="stroke:#038048;stroke-width:1;"/></g><text fill="#000000" font-family="sans-serif" font-size="14" lengthAdjust="spacing" textLength="131.8311" x="104.8" y="555.1226">isPolygon: boolean</text><g data-visibility-modifier="PUBLIC_FIELD"><ellipse cx="95.8" cy="568.0728" fill="none" rx="3" ry="3" style="stroke:#038048;stroke-width:1;"/></g><text fill="#000000" font-family="sans-serif" font-size="14" lengthAdjust="spacing" textLength="105.499" x="104.8" y="571.4195">isLine: boolean</text><g data-visibility-modifier="PUBLIC_FIELD"><ellipse cx="95.8" cy="584.3697" fill="none" rx="3" ry="3" style="stroke:#038048;stroke-width:1;"/></g><text fill="#000000" font-family="sans-serif" font-size="14" lengthAdjust="spacing" textLength="252.9707" x="104.8" y="587.7164">colourValueType: ColourValueTypes</text><g data-visibility-modifier="PUBLIC_FIELD"><ellipse cx="95.8" cy="600.6666" fill="none" rx="3" ry="3" style="stroke:#038048;stroke-width:1;"/></g><text fill="#000000" font-family="sans-serif" font-size="14" lengthAdjust="spacing" textLength="141.0938" x="104.8" y="604.0132">colourSource: string</text><g data-visibility-modifier="PUBLIC_FIELD"><ellipse cx="95.8" cy="616.9634" fill="none" rx="3" ry="3" style="stroke:#038048;stroke-width:1;"/></g><text fill="#000000" font-family="sans-serif" font-size="14" lengthAdjust="spacing" textLength="124.8926" x="104.8" y="620.3101">sizeSource: string</text><g data-visibility-modifier="PUBLIC_FIELD"><ellipse cx="95.8" cy="633.2603" fill="none" rx="3" ry="3" style="stroke:#038048;stroke-width:1;"/></g><text fill="#000000" font-family="sans-serif" font-size="14" lengthAdjust="spacing" textLength="239.627" x="104.8" y="636.607">geometryIdentifier: string|number</text><g data-visibility-modifier="PUBLIC_FIELD"><ellipse cx="95.8" cy="649.5572" fill="none" rx="3" ry="3" style="stroke:#038048;stroke-width:1;"/></g><text fill="#000000" font-family="sans-serif" font-size="14" lengthAdjust="spacing" textLength="171.2881" x="104.8" y="652.9039">lockSymbology: boolean</text><g data-visibility-modifier="PUBLIC_FIELD"><ellipse cx="95.8" cy="665.8541" fill="none" rx="3" ry="3" style="stroke:#038048;stroke-width:1;"/></g><text fill="#000000" font-family="sans-serif" font-size="14" lengthAdjust="spacing" textLength="230.8701" x="104.8" y="669.2007">useSafeSelectionColour: boolean</text><line style="stroke:#181818;stroke-width:0.5;" x1="85.8" x2="467.8186" y1="676.5025" y2="676.5025"/><g data-visibility-modifier="PUBLIC_METHOD"><ellipse cx="95.8" cy="690.1509" fill="#84BE84" rx="3" ry="3" style="stroke:#038048;stroke-width:1;"/></g><text fill="#000000" font-family="sans-serif" font-size="14" lengthAdjust="spacing" textLength="268.1875" x="104.8" y="693.4976">updateColour(newColour: string): void</text><g data-visibility-modifier="PUBLIC_METHOD"><ellipse cx="95.8" cy="706.4478" fill="#84BE84" rx="3" ry="3" style="stroke:#038048;stroke-width:1;"/></g><text fill="#000000" font-family="sans-serif" font-size="14" lengthAdjust="spacing" textLength="299.4824" x="104.8" y="709.7945">updateOpacity(newOpacity: number): void</text><g data-visibility-modifier="PUBLIC_METHOD"><ellipse cx="95.8" cy="722.7447" fill="#84BE84" rx="3" ry="3" style="stroke:#038048;stroke-width:1;"/></g><text fill="#000000" font-family="sans-serif" font-size="14" lengthAdjust="spacing" textLength="249.2656" x="104.8" y="726.0914">updateSize(newSize: number): void</text><g data-visibility-modifier="PUBLIC_METHOD"><ellipse cx="95.8" cy="739.0416" fill="#84BE84" rx="3" ry="3" style="stroke:#038048;stroke-width:1;"/></g><text fill="#000000" font-family="sans-serif" font-size="14" lengthAdjust="spacing" textLength="290.9785" x="104.8" y="742.3882">updateWeight(newWeight: number): void</text><g data-visibility-modifier="PUBLIC_METHOD"><ellipse cx="95.8" cy="755.3384" fill="#84BE84" rx="3" ry="3" style="stroke:#038048;stroke-width:1;"/></g><text fill="#000000" font-family="sans-serif" font-size="14" lengthAdjust="spacing" textLength="328.877" x="104.8" y="758.6851">updateSelectedColour(newColour: string): void</text><g data-visibility-modifier="PUBLIC_METHOD"><ellipse cx="95.8" cy="771.6353" fill="#84BE84" rx="3" ry="3" style="stroke:#038048;stroke-width:1;"/></g><text fill="#000000" font-family="sans-serif" font-size="14" lengthAdjust="spacing" textLength="358.0186" x="104.8" y="774.982">updateSymbol(symbol: SymbolConfiguration): void</text><g data-visibility-modifier="PUBLIC_METHOD"><ellipse cx="95.8" cy="787.9322" fill="#84BE84" rx="3" ry="3" style="stroke:#038048;stroke-width:1;"/></g><text fill="#000000" font-family="sans-serif" font-size="14" lengthAdjust="spacing" textLength="171.3633" x="104.8" y="791.2789">clone(): OSMapsGeoJson</text><g data-visibility-modifier="PUBLIC_METHOD"><ellipse cx="95.8" cy="804.2291" fill="#84BE84" rx="3" ry="3" style="stroke:#038048;stroke-width:1;"/></g><text fill="#000000" font-family="sans-serif" font-size="14" lengthAdjust="spacing" textLength="165.8809" x="104.8" y="807.5757">getPopupHTML(): string</text></g><!--class OSMapsMarkerPoint--><g class="entity" data-qualified-name="OSMapsMarkerPoint" data-source-line="24" id="ent0003"><rect fill="#F1F1F1" height="64.2969" rx="2.5" ry="2.5" style="stroke:#181818;stroke-width:0.5;" width="271.0479" x="141.29" y="874.87"/><ellipse cx="202.1162" cy="890.87" fill="#ADD1B2" rx="11" ry="11" style="stroke:#181818;stroke-width:1;"/><path d="M205.0849,896.5106 Q204.5068,896.8075 203.8662,896.9481 Q203.2255,897.1044 202.5224,897.1044 Q200.0224,897.1044 198.6943,895.4638 Q197.3818,893.8075 197.3818,890.6825 Q197.3818,887.5575 198.6943,885.9013 Q200.0224,884.245 202.5224,884.245 Q203.2255,884.245 203.8662,884.4013 Q204.5224,884.5575 205.0849,884.8544 L205.0849,887.5731 Q204.4599,886.995 203.8662,886.7294 Q203.2724,886.4481 202.6474,886.4481 Q201.3037,886.4481 200.6162,887.5263 Q199.9287,888.5888 199.9287,890.6825 Q199.9287,892.7763 200.6162,893.8544 Q201.3037,894.9169 202.6474,894.9169 Q203.2724,894.9169 203.8662,894.6513 Q204.4599,894.37 205.0849,893.7919 L205.0849,896.5106 Z " fill="#000000"/><text fill="#000000" font-family="sans-serif" font-size="14" lengthAdjust="spacing" textLength="140.8955" x="222.6162" y="895.7167">OSMapsMarkerPoint</text><line style="stroke:#181818;stroke-width:0.5;" x1="142.29" x2="411.3379" y1="906.87" y2="906.87"/><line style="stroke:#181818;stroke-width:0.5;" x1="142.29" x2="411.3379" y1="914.87" y2="914.87"/><g data-visibility-modifier="PUBLIC_METHOD"><ellipse cx="152.29" cy="928.5184" fill="#84BE84" rx="3" ry="3" style="stroke:#038048;stroke-width:1;"/></g><text fill="#000000" font-family="sans-serif" font-size="14" lengthAdjust="spacing" textLength="245.0479" x="161.29" y="931.8651">getAsLatLong(): [number, number]</text></g><!--class OSMapsCartographicFeatureCollection--><g class="entity" data-qualified-name="OSMapsCartographicFeatureCollection" data-source-line="28" id="ent0005"><rect fill="#F1F1F1" height="373.9375" rx="2.5" ry="2.5" style="stroke:#181818;stroke-width:0.5;" width="539.625" x="7" y="7"/><ellipse cx="137.2109" cy="23" fill="#ADD1B2" rx="11" ry="11" style="stroke:#181818;stroke-width:1;"/><path d="M140.1797,28.6406 Q139.6016,28.9375 138.9609,29.0781 Q138.3203,29.2344 137.6172,29.2344 Q135.1172,29.2344 133.7891,27.5938 Q132.4766,25.9375 132.4766,22.8125 Q132.4766,19.6875 133.7891,18.0313 Q135.1172,16.375 137.6172,16.375 Q138.3203,16.375 138.9609,16.5313 Q139.6172,16.6875 140.1797,16.9844 L140.1797,19.7031 Q139.5547,19.125 138.9609,18.8594 Q138.3672,18.5781 137.7422,18.5781 Q136.3984,18.5781 135.7109,19.6563 Q135.0234,20.7188 135.0234,22.8125 Q135.0234,24.9063 135.7109,25.9844 Q136.3984,27.0469 137.7422,27.0469 Q138.3672,27.0469 138.9609,26.7813 Q139.5547,26.5 140.1797,25.9219 L140.1797,28.6406 Z " fill="#000000"/><text fill="#000000" font-family="sans-serif" font-size="14" lengthAdjust="spacing" textLength="270.7031" x="157.7109" y="27.8467">OSMapsCartographicFeatureCollection</text><line style="stroke:#181818;stroke-width:0.5;" x1="8" x2="545.625" y1="39" y2="39"/><g data-visibility-modifier="PUBLIC_FIELD"><ellipse cx="18" cy="52.6484" fill="none" rx="3" ry="3" style="stroke:#038048;stroke-width:1;"/></g><text fill="#000000" font-family="sans-serif" font-size="14" lengthAdjust="spacing" textLength="108.4316" x="27" y="55.9951">length: number</text><g data-visibility-modifier="PUBLIC_FIELD"><ellipse cx="18" cy="68.9453" fill="none" rx="3" ry="3" style="stroke:#038048;stroke-width:1;"/></g><text fill="#000000" font-family="sans-serif" font-size="14" lengthAdjust="spacing" textLength="217.4375" x="27" y="72.292">length_unique_geoms: number</text><g data-visibility-modifier="PUBLIC_FIELD"><ellipse cx="18" cy="85.2422" fill="none" rx="3" ry="3" style="stroke:#038048;stroke-width:1;"/></g><text fill="#000000" font-family="sans-serif" font-size="14" lengthAdjust="spacing" textLength="175.4375" x="27" y="88.5889">length_unlinked: number</text><g data-visibility-modifier="PUBLIC_FIELD"><ellipse cx="18" cy="101.5391" fill="none" rx="3" ry="3" style="stroke:#038048;stroke-width:1;"/></g><text fill="#000000" font-family="sans-serif" font-size="14" lengthAdjust="spacing" textLength="156.0439" x="27" y="104.8857">isCategorical: boolean</text><g data-visibility-modifier="PUBLIC_FIELD"><ellipse cx="18" cy="117.8359" fill="none" rx="3" ry="3" style="stroke:#038048;stroke-width:1;"/></g><text fill="#000000" font-family="sans-serif" font-size="14" lengthAdjust="spacing" textLength="264.1406" x="27" y="121.1826">colourScalingType: ColourValueTypes</text><g data-visibility-modifier="PUBLIC_FIELD"><ellipse cx="18" cy="134.1328" fill="none" rx="3" ry="3" style="stroke:#038048;stroke-width:1;"/></g><text fill="#000000" font-family="sans-serif" font-size="14" lengthAdjust="spacing" textLength="169.3262" x="27" y="137.4795">hasSizeScaling: boolean</text><g data-visibility-modifier="PUBLIC_FIELD"><ellipse cx="18" cy="150.4297" fill="none" rx="3" ry="3" style="stroke:#038048;stroke-width:1;"/></g><text fill="#000000" font-family="sans-serif" font-size="14" lengthAdjust="spacing" textLength="237.9043" x="27" y="153.7764">hasDuplicateGeometries: boolean</text><g data-visibility-modifier="PUBLIC_FIELD"><ellipse cx="18" cy="166.7266" fill="none" rx="3" ry="3" style="stroke:#038048;stroke-width:1;"/></g><text fill="#000000" font-family="sans-serif" font-size="14" lengthAdjust="spacing" textLength="189.3486" x="27" y="170.0732">hasONSGeocodes: boolean</text><g data-visibility-modifier="PUBLIC_FIELD"><ellipse cx="18" cy="183.0234" fill="none" rx="3" ry="3" style="stroke:#038048;stroke-width:1;"/></g><text fill="#000000" font-family="sans-serif" font-size="14" lengthAdjust="spacing" textLength="243.6943" x="27" y="186.3701">suppressDuplicateGeoms: boolean</text><g data-visibility-modifier="PUBLIC_FIELD"><ellipse cx="18" cy="199.3203" fill="none" rx="3" ry="3" style="stroke:#038048;stroke-width:1;"/></g><text fill="#000000" font-family="sans-serif" font-size="14" lengthAdjust="spacing" textLength="223.2617" x="27" y="202.667">useSafePointColouring: boolean</text><g data-visibility-modifier="PUBLIC_FIELD"><ellipse cx="18" cy="215.6172" fill="none" rx="3" ry="3" style="stroke:#038048;stroke-width:1;"/></g><text fill="#000000" font-family="sans-serif" font-size="14" lengthAdjust="spacing" textLength="287.7793" x="27" y="218.9639">useSafePointSelectionColouring: boolean</text><g data-visibility-modifier="PUBLIC_FIELD"><ellipse cx="18" cy="231.9141" fill="none" rx="3" ry="3" style="stroke:#038048;stroke-width:1;"/></g><text fill="#000000" font-family="sans-serif" font-size="14" lengthAdjust="spacing" textLength="214.0879" x="27" y="235.2607">knownBounds?: LatLngBounds</text><g data-visibility-modifier="PUBLIC_FIELD"><ellipse cx="18" cy="248.2109" fill="none" rx="3" ry="3" style="stroke:#038048;stroke-width:1;"/></g><text fill="#000000" font-family="sans-serif" font-size="14" lengthAdjust="spacing" textLength="199.1992" x="27" y="251.5576">features: GeoJSON.Feature[]</text><line style="stroke:#181818;stroke-width:0.5;" x1="8" x2="545.625" y1="258.8594" y2="258.8594"/><g data-visibility-modifier="PUBLIC_METHOD"><ellipse cx="18" cy="272.5078" fill="#84BE84" rx="3" ry="3" style="stroke:#038048;stroke-width:1;"/></g><text fill="#000000" font-family="sans-serif" font-size="14" lengthAdjust="spacing" textLength="441.376" x="27" y="275.8545">getColourLegendItemDiv(withBorder?: boolean): HTMLElement</text><g data-visibility-modifier="PUBLIC_METHOD"><ellipse cx="18" cy="288.8047" fill="#84BE84" rx="3" ry="3" style="stroke:#038048;stroke-width:1;"/></g><text fill="#000000" font-family="sans-serif" font-size="14" lengthAdjust="spacing" textLength="310.4951" x="27" y="292.1514">getPointSizeLegendItemDiv(): HTMLElement</text><g data-visibility-modifier="PUBLIC_METHOD"><ellipse cx="18" cy="305.1016" fill="#84BE84" rx="3" ry="3" style="stroke:#038048;stroke-width:1;"/></g><text fill="#000000" font-family="sans-serif" font-size="14" lengthAdjust="spacing" textLength="327.3936" x="27" y="308.4482">getUnmatchedLegendItemDiv(): HTMLElement</text><g data-visibility-modifier="PUBLIC_METHOD"><ellipse cx="18" cy="321.3984" fill="#84BE84" rx="3" ry="3" style="stroke:#038048;stroke-width:1;"/></g><text fill="#000000" font-family="sans-serif" font-size="14" lengthAdjust="spacing" textLength="431.9287" x="27" y="324.7451">updateCartoSettings(cartoSettings: LayerCartoSettings): void</text><g data-visibility-modifier="PUBLIC_METHOD"><ellipse cx="18" cy="337.6953" fill="#84BE84" rx="3" ry="3" style="stroke:#038048;stroke-width:1;"/></g><text fill="#000000" font-family="sans-serif" font-size="14" lengthAdjust="spacing" textLength="446.373" x="27" y="341.042">updateDefaultSymbolConfig(config: SymbolConfiguration): void</text><g data-visibility-modifier="PUBLIC_METHOD"><ellipse cx="18" cy="353.9922" fill="#84BE84" rx="3" ry="3" style="stroke:#038048;stroke-width:1;"/></g><text fill="#000000" font-family="sans-serif" font-size="14" lengthAdjust="spacing" textLength="343.335" x="27" y="357.3389">pushFeature(newFeature: OSMapsGeoJson): void</text><g data-visibility-modifier="PUBLIC_METHOD"><ellipse cx="18" cy="370.2891" fill="#84BE84" rx="3" ry="3" style="stroke:#038048;stroke-width:1;"/></g><text fill="#000000" font-family="sans-serif" font-size="14" lengthAdjust="spacing" textLength="513.625" x="27" y="373.6357">GeometriesEqual(other: OSMapsCartographicFeatureCollection): boolean</text></g><!--reverse link OSMapsGeoJson to OSMapsMarkerPoint--><g class="link" data-entity-1="ent0002" data-entity-2="ent0003" data-link-type="extension" data-source-line="25" id="lnk4"><path d="M265.3064,833.2717 C265.9964,855.9917 266.66,858.76 268.37,874.67" fill="none" id="OSMapsGeoJson-backto-OSMapsMarkerPoint" style="stroke:#181818;stroke-width:1;"/><polygon fill="none" points="264.76,815.28,259.3092,833.4538,271.3036,833.0896,264.76,815.28" style="stroke:#181818;stroke-width:1;"/></g><!--reverse link OSMapsGeoJson to OSMapsMarkerPoint--><g class="link" data-entity-1="ent0002" data-entity-2="ent0003" data-link-type="extension" data-source-line="52" id="lnk7"><path codeLine="52" d="M288.992,833.2707 C288.262,855.9907 287.57,858.76 285.75,874.67" fill="none" id="OSMapsGeoJson-backto-OSMapsMarkerPoint-1" style="stroke:#181818;stroke-width:1;"/><polygon fill="none" points="289.57,815.28,282.995,833.078,294.9889,833.4634,289.57,815.28" style="stroke:#181818;stroke-width:1;"/></g><!--link OSMapsCartographicFeatureCollection to OSMapsGeoJson--><g class="link" data-entity-1="ent0005" data-entity-2="ent0002" data-link-type="dependency" data-source-line="51" id="lnk6"><path codeLine="51" d="M276.81,381.28 C276.81,400.92 276.81,414.89 276.81,434.52" fill="none" id="OSMapsCartographicFeatureCollection-to-OSMapsGeoJson" style="stroke:#181818;stroke-width:1;"/><polygon fill="#181818" points="276.81,440.52,280.81,431.52,276.81,435.52,272.81,431.52,276.81,440.52" style="stroke:#181818;stroke-width:1;"/></g><?plantuml-src bLJRRfj047ttL_18rBeVO5MD6ZjDKzbn9DBs8OgYzJA6bPSTifUujEc_TvU5c0MSf4W8TkOmpEMSePme5QsJ5IdL1U0tXIBwCudizMxBE9yZHoDdaJ351kIJqfA9pBkn99JfglLvesA_8RGmTOrCw5cqGUH0nC7Agmp5mBva0df6MYVnWt03DrLflVFGeBgmnDxKOhgfkgp6x1bW0LfMboa8pROCPEj_wfR0aUwIgjZO-5dLoyqeICWM4k10DKFHDYm4bIdHu5snW7qBylywcKMFoD8kTErxwx3hiCqZuCHMvv19f_SZi9_0ibmxe7zxAM9T3QJ_aR7lJwpgnoponpcABSkC9AupmKUKeu3OcWBcjLFHrrYQyklDQkaWpSJ-JYQqGzOLaJkGDRSY-AL1f4TeRCDzLakYboWo5-xMb_s-AV-k7tXEfCPCaZ9dz0iGRQIRN3FUDYW7aUayPBgttHl17WpSEswf8m3En0xIlaxcjeqPIaO97nL0OXss4Iz982VAiQ11zg9OvyAKtCRNSE6Ppq0DGUkhnBeffWEdCcKfGOLXrBWYwiduB8UfT34zwGp1Eu5xSOR6JlXq5hb9YimVcptbXsJpS9DFrbSVch7TtZqpmCTUGcPvSgcXMB37UCzqVeOo1Ndw_4VB3qUxSmw5NGaTFhf4RMV324VGtqL1DCqXVHtTR0P7kGIqjiMhc7PFhk0AP80OaTy2jiHmtPLTJEl7wreiZSgRZZcfDwyzQGPV7DXp_c08Zr7dRdM-GJydXzbQsRr5SDFffzwI25N-yMaw7Qw4Vm00?></g></svg>