<svg xmlns="http://www.w3.org/2000/svg" xmlns:xlink="http://www.w3.org/1999/xlink" contentStyleType="text/css" data-diagram-type="CLASS" height="954px" preserveAspectRatio="none" style="width:2418px;height:954px;background:#FFFFFF;" version="1.1" viewBox="0 0 2418 954" width="2418px" zoomAndPan="magnify"><?plantuml 1.2026.3beta6?><defs/><g><!--class OSPowerBIVisual--><g class="entity" data-qualified-name="OSPowerBIVisual" data-source-line="1" id="ent0002"><rect fill="#F1F1F1" height="194.6719" rx="2.5" ry="2.5" style="stroke:#181818;stroke-width:0.5;" width="420.8438" x="1451.97" y="7"/><ellipse cx="1598.8572" cy="23" fill="#ADD1B2" rx="11" ry="11" style="stroke:#181818;stroke-width:1;"/><path d="M1601.826,28.6406 Q1601.2478,28.9375 1600.6072,29.0781 Q1599.9666,29.2344 1599.2635,29.2344 Q1596.7635,29.2344 1595.4353,27.5938 Q1594.1228,25.9375 1594.1228,22.8125 Q1594.1228,19.6875 1595.4353,18.0313 Q1596.7635,16.375 1599.2635,16.375 Q1599.9666,16.375 1600.6072,16.5313 Q1601.2635,16.6875 1601.826,16.9844 L1601.826,19.7031 Q1601.201,19.125 1600.6072,18.8594 Q1600.0135,18.5781 1599.3885,18.5781 Q1598.0447,18.5781 1597.3572,19.6563 Q1596.6697,20.7188 1596.6697,22.8125 Q1596.6697,24.9063 1597.3572,25.9844 Q1598.0447,27.0469 1599.3885,27.0469 Q1600.0135,27.0469 1600.6072,26.7813 Q1601.201,26.5 1601.826,25.9219 L1601.826,28.6406 Z " fill="#000000"/><text fill="#000000" font-family="sans-serif" font-size="14" lengthAdjust="spacing" textLength="118.5693" x="1619.3572" y="27.8467">OSPowerBIVisual</text><line style="stroke:#181818;stroke-width:0.5;" x1="1452.97" x2="1871.8138" y1="39" y2="39"/><line style="stroke:#181818;stroke-width:0.5;" x1="1452.97" x2="1871.8138" y1="47" y2="47"/><g data-visibility-modifier="PUBLIC_METHOD"><ellipse cx="1462.97" cy="60.6484" fill="#84BE84" rx="3" ry="3" style="stroke:#038048;stroke-width:1;"/></g><text fill="#000000" font-family="sans-serif" font-size="14" lengthAdjust="spacing" textLength="386.2578" x="1471.97" y="63.9951">update(options: VisualUpdateOptions): Promise&lt;void&gt;</text><g data-visibility-modifier="PUBLIC_METHOD"><ellipse cx="1462.97" cy="76.9453" fill="#84BE84" rx="3" ry="3" style="stroke:#038048;stroke-width:1;"/></g><text fill="#000000" font-family="sans-serif" font-size="14" lengthAdjust="spacing" textLength="281.5859" x="1471.97" y="80.292">getFormattingModel(): FormattingModel</text><g data-visibility-modifier="PUBLIC_METHOD"><ellipse cx="1462.97" cy="93.2422" fill="#84BE84" rx="3" ry="3" style="stroke:#038048;stroke-width:1;"/></g><text fill="#000000" font-family="sans-serif" font-size="14" lengthAdjust="spacing" textLength="102.6074" x="1471.97" y="96.5889">destroy(): void</text><g data-visibility-modifier="PUBLIC_METHOD"><ellipse cx="1462.97" cy="109.5391" fill="#84BE84" rx="3" ry="3" style="stroke:#038048;stroke-width:1;"/></g><text fill="#000000" font-family="sans-serif" font-size="14" lengthAdjust="spacing" textLength="253.3467" x="1471.97" y="112.8857">getPersistedSettings(identifier): any</text><g data-visibility-modifier="PUBLIC_METHOD"><ellipse cx="1462.97" cy="125.8359" fill="#84BE84" rx="3" ry="3" style="stroke:#038048;stroke-width:1;"/></g><text fill="#000000" font-family="sans-serif" font-size="14" lengthAdjust="spacing" textLength="299.4209" x="1471.97" y="129.1826">persistDataToCard(identifier, results): void</text><g data-visibility-modifier="PUBLIC_METHOD"><ellipse cx="1462.97" cy="142.1328" fill="#84BE84" rx="3" ry="3" style="stroke:#038048;stroke-width:1;"/></g><text fill="#000000" font-family="sans-serif" font-size="14" lengthAdjust="spacing" textLength="394.8438" x="1471.97" y="145.4795">receiveUploadedData(uploadResult: UploadResult): void</text><g data-visibility-modifier="PUBLIC_METHOD"><ellipse cx="1462.97" cy="158.4297" fill="#84BE84" rx="3" ry="3" style="stroke:#038048;stroke-width:1;"/></g><text fill="#000000" font-family="sans-serif" font-size="14" lengthAdjust="spacing" textLength="251.1934" x="1471.97" y="161.7764">sendLogRecord(lr: LogRecord): void</text><g data-visibility-modifier="PUBLIC_METHOD"><ellipse cx="1462.97" cy="174.7266" fill="#84BE84" rx="3" ry="3" style="stroke:#038048;stroke-width:1;"/></g><text fill="#000000" font-family="sans-serif" font-size="14" lengthAdjust="spacing" textLength="188.4941" x="1471.97" y="178.0732">switchOffZPSSwitch(): void</text><g data-visibility-modifier="PUBLIC_METHOD"><ellipse cx="1462.97" cy="191.0234" fill="#84BE84" rx="3" ry="3" style="stroke:#038048;stroke-width:1;"/></g><text fill="#000000" font-family="sans-serif" font-size="14" lengthAdjust="spacing" textLength="292.6396" x="1471.97" y="194.3701">updateKeyStatus(newStatus: string): void</text></g><!--class OSPowerBIUIManager--><g class="entity" data-qualified-name="OSPowerBIUIManager" data-source-line="13" id="ent0003"><rect fill="#F1F1F1" height="341.3438" rx="2.5" ry="2.5" style="stroke:#181818;stroke-width:0.5;" width="537.3486" x="607.72" y="277.97"/><ellipse cx="796.0398" cy="293.97" fill="#ADD1B2" rx="11" ry="11" style="stroke:#181818;stroke-width:1;"/><path d="M799.0086,299.6106 Q798.4304,299.9075 797.7898,300.0481 Q797.1492,300.2044 796.4461,300.2044 Q793.9461,300.2044 792.6179,298.5637 Q791.3054,296.9075 791.3054,293.7825 Q791.3054,290.6575 792.6179,289.0012 Q793.9461,287.345 796.4461,287.345 Q797.1492,287.345 797.7898,287.5012 Q798.4461,287.6575 799.0086,287.9544 L799.0086,290.6731 Q798.3836,290.095 797.7898,289.8294 Q797.1961,289.5481 796.5711,289.5481 Q795.2273,289.5481 794.5398,290.6262 Q793.8523,291.6887 793.8523,293.7825 Q793.8523,295.8762 794.5398,296.9544 Q795.2273,298.0169 796.5711,298.0169 Q797.1961,298.0169 797.7898,297.7512 Q798.3836,297.47 799.0086,296.8919 L799.0086,299.6106 Z " fill="#000000"/><text fill="#000000" font-family="sans-serif" font-size="14" lengthAdjust="spacing" textLength="152.209" x="816.5398" y="298.8167">OSPowerBIUIManager</text><line style="stroke:#181818;stroke-width:0.5;" x1="608.72" x2="1144.0686" y1="309.97" y2="309.97"/><line style="stroke:#181818;stroke-width:0.5;" x1="608.72" x2="1144.0686" y1="317.97" y2="317.97"/><g data-visibility-modifier="PUBLIC_METHOD"><ellipse cx="618.72" cy="331.6184" fill="#84BE84" rx="3" ry="3" style="stroke:#038048;stroke-width:1;"/></g><text fill="#000000" font-family="sans-serif" font-size="14" lengthAdjust="spacing" textLength="301.4443" x="627.72" y="334.9651">ToggleLandingPage(turnOn: boolean): void</text><g data-visibility-modifier="PUBLIC_METHOD"><ellipse cx="618.72" cy="347.9153" fill="#84BE84" rx="3" ry="3" style="stroke:#038048;stroke-width:1;"/></g><text fill="#000000" font-family="sans-serif" font-size="14" lengthAdjust="spacing" textLength="346.4111" x="627.72" y="351.262">ToggleMapAttribution(showPopup: boolean): void</text><g data-visibility-modifier="PUBLIC_METHOD"><ellipse cx="618.72" cy="364.2122" fill="#84BE84" rx="3" ry="3" style="stroke:#038048;stroke-width:1;"/></g><text fill="#000000" font-family="sans-serif" font-size="14" lengthAdjust="spacing" textLength="281.791" x="627.72" y="367.5589">toggleNotificationDot(on: boolean): void</text><g data-visibility-modifier="PUBLIC_METHOD"><ellipse cx="618.72" cy="380.5091" fill="#84BE84" rx="3" ry="3" style="stroke:#038048;stroke-width:1;"/></g><text fill="#000000" font-family="sans-serif" font-size="14" lengthAdjust="spacing" textLength="232.8389" x="627.72" y="383.8557">BuildMapAttributionPopup(): void</text><g data-visibility-modifier="PUBLIC_METHOD"><ellipse cx="618.72" cy="396.8059" fill="#84BE84" rx="3" ry="3" style="stroke:#038048;stroke-width:1;"/></g><text fill="#000000" font-family="sans-serif" font-size="14" lengthAdjust="spacing" textLength="374.4453" x="627.72" y="400.1526">apiKeyUpdated(updateId: string): Promise&lt;boolean&gt;</text><g data-visibility-modifier="PUBLIC_METHOD"><ellipse cx="618.72" cy="413.1028" fill="#84BE84" rx="3" ry="3" style="stroke:#038048;stroke-width:1;"/></g><text fill="#000000" font-family="sans-serif" font-size="14" lengthAdjust="spacing" textLength="244.2822" x="627.72" y="416.4495">addDevMessage(msg: string): void</text><g data-visibility-modifier="PUBLIC_METHOD"><ellipse cx="618.72" cy="429.3997" fill="#84BE84" rx="3" ry="3" style="stroke:#038048;stroke-width:1;"/></g><text fill="#000000" font-family="sans-serif" font-size="14" lengthAdjust="spacing" textLength="213.9443" x="627.72" y="432.7464">addWarning(msg: string): void</text><g data-visibility-modifier="PUBLIC_METHOD"><ellipse cx="618.72" cy="445.6966" fill="#84BE84" rx="3" ry="3" style="stroke:#038048;stroke-width:1;"/></g><text fill="#000000" font-family="sans-serif" font-size="14" lengthAdjust="spacing" textLength="189.9229" x="627.72" y="449.0432">addError(msg: string): void</text><g data-visibility-modifier="PUBLIC_METHOD"><ellipse cx="618.72" cy="461.9934" fill="#84BE84" rx="3" ry="3" style="stroke:#038048;stroke-width:1;"/></g><text fill="#000000" font-family="sans-serif" font-size="14" lengthAdjust="spacing" textLength="198.3789" x="627.72" y="465.3401">setUnauthorisedAlert(): void</text><g data-visibility-modifier="PUBLIC_METHOD"><ellipse cx="618.72" cy="478.2903" fill="#84BE84" rx="3" ry="3" style="stroke:#038048;stroke-width:1;"/></g><text fill="#000000" font-family="sans-serif" font-size="14" lengthAdjust="spacing" textLength="240.2832" x="627.72" y="481.637">displayAuthInfo(details: any): void</text><g data-visibility-modifier="PUBLIC_METHOD"><ellipse cx="618.72" cy="494.5872" fill="#84BE84" rx="3" ry="3" style="stroke:#038048;stroke-width:1;"/></g><text fill="#000000" font-family="sans-serif" font-size="14" lengthAdjust="spacing" textLength="232.6338" x="627.72" y="497.9339">updateMapCanRender(): boolean</text><g data-visibility-modifier="PUBLIC_METHOD"><ellipse cx="618.72" cy="510.8841" fill="#84BE84" rx="3" ry="3" style="stroke:#038048;stroke-width:1;"/></g><text fill="#000000" font-family="sans-serif" font-size="14" lengthAdjust="spacing" textLength="308.8135" x="627.72" y="514.2307">SetViewOrEditMode(mode: ViewMode): void</text><g data-visibility-modifier="PUBLIC_METHOD"><ellipse cx="618.72" cy="527.1809" fill="#84BE84" rx="3" ry="3" style="stroke:#038048;stroke-width:1;"/></g><text fill="#000000" font-family="sans-serif" font-size="14" lengthAdjust="spacing" textLength="466.5596" x="627.72" y="530.5276">ToggleDebugMode(showDebug: boolean, showDev: boolean): void</text><g data-visibility-modifier="PUBLIC_METHOD"><ellipse cx="618.72" cy="543.4778" fill="#84BE84" rx="3" ry="3" style="stroke:#038048;stroke-width:1;"/></g><text fill="#000000" font-family="sans-serif" font-size="14" lengthAdjust="spacing" textLength="466.8398" x="627.72" y="546.8245">ToggleUserDataUploader(show: boolean, hasData?: boolean): void</text><g data-visibility-modifier="PUBLIC_METHOD"><ellipse cx="618.72" cy="559.7747" fill="#84BE84" rx="3" ry="3" style="stroke:#038048;stroke-width:1;"/></g><text fill="#000000" font-family="sans-serif" font-size="14" lengthAdjust="spacing" textLength="342.4121" x="627.72" y="563.1214">ToggleNotificationsPopup(turnOn: boolean): void</text><g data-visibility-modifier="PUBLIC_METHOD"><ellipse cx="618.72" cy="576.0716" fill="#84BE84" rx="3" ry="3" style="stroke:#038048;stroke-width:1;"/></g><text fill="#000000" font-family="sans-serif" font-size="14" lengthAdjust="spacing" textLength="446.7832" x="627.72" y="579.4182">setSelectability(isFiltered: boolean, zpsChanged: boolean): void</text><g data-visibility-modifier="PUBLIC_METHOD"><ellipse cx="618.72" cy="592.3684" fill="#84BE84" rx="3" ry="3" style="stroke:#038048;stroke-width:1;"/></g><text fill="#000000" font-family="sans-serif" font-size="14" lengthAdjust="spacing" textLength="511.3486" x="627.72" y="595.7151">DisplayToastNotification(header: string, text?: string, level?: string): void</text><g data-visibility-modifier="PUBLIC_METHOD"><ellipse cx="618.72" cy="608.6653" fill="#84BE84" rx="3" ry="3" style="stroke:#038048;stroke-width:1;"/></g><text fill="#000000" font-family="sans-serif" font-size="14" lengthAdjust="spacing" textLength="382.9082" x="627.72" y="612.012">displayNewerVersionNotice(latestVersion: string): void</text></g><!--class OSPowerBIMapManager--><g class="entity" data-qualified-name="OSPowerBIMapManager" data-source-line="34" id="ent0004"><rect fill="#F1F1F1" height="243.5625" rx="2.5" ry="2.5" style="stroke:#181818;stroke-width:0.5;" width="656.793" x="7" y="695.61"/><ellipse cx="247.4575" cy="711.61" fill="#ADD1B2" rx="11" ry="11" style="stroke:#181818;stroke-width:1;"/><path d="M250.4263,717.2506 Q249.8481,717.5475 249.2075,717.6881 Q248.5669,717.8444 247.8638,717.8444 Q245.3638,717.8444 244.0356,716.2038 Q242.7231,714.5475 242.7231,711.4225 Q242.7231,708.2975 244.0356,706.6413 Q245.3638,704.985 247.8638,704.985 Q248.5669,704.985 249.2075,705.1413 Q249.8638,705.2975 250.4263,705.5944 L250.4263,708.3131 Q249.8013,707.735 249.2075,707.4694 Q248.6138,707.1881 247.9888,707.1881 Q246.645,707.1881 245.9575,708.2663 Q245.27,709.3288 245.27,711.4225 Q245.27,713.5163 245.9575,714.5944 Q246.645,715.6569 247.9888,715.6569 Q248.6138,715.6569 249.2075,715.3913 Q249.8013,715.11 250.4263,714.5319 L250.4263,717.2506 Z " fill="#000000"/><text fill="#000000" font-family="sans-serif" font-size="14" lengthAdjust="spacing" textLength="167.3779" x="267.9575" y="716.4567">OSPowerBIMapManager</text><line style="stroke:#181818;stroke-width:0.5;" x1="8" x2="662.793" y1="727.61" y2="727.61"/><line style="stroke:#181818;stroke-width:0.5;" x1="8" x2="662.793" y1="735.61" y2="735.61"/><g data-visibility-modifier="PUBLIC_METHOD"><ellipse cx="18" cy="749.2584" fill="#84BE84" rx="3" ry="3" style="stroke:#038048;stroke-width:1;"/></g><text fill="#000000" font-family="sans-serif" font-size="14" lengthAdjust="spacing" textLength="199.9717" x="27" y="752.6051">buildMap(bounds: any): void</text><g data-visibility-modifier="PUBLIC_METHOD"><ellipse cx="18" cy="765.5553" fill="#84BE84" rx="3" ry="3" style="stroke:#038048;stroke-width:1;"/></g><text fill="#000000" font-family="sans-serif" font-size="14" lengthAdjust="spacing" textLength="164.5615" x="27" y="768.902">buildBaseLayers(): void</text><g data-visibility-modifier="PUBLIC_METHOD"><ellipse cx="18" cy="781.8522" fill="#84BE84" rx="3" ry="3" style="stroke:#038048;stroke-width:1;"/></g><text fill="#000000" font-family="sans-serif" font-size="14" lengthAdjust="spacing" textLength="235.6074" x="27" y="785.1989">toggleVisibility(on: boolean): void</text><g data-visibility-modifier="PUBLIC_METHOD"><ellipse cx="18" cy="798.1491" fill="#84BE84" rx="3" ry="3" style="stroke:#038048;stroke-width:1;"/></g><text fill="#000000" font-family="sans-serif" font-size="14" lengthAdjust="spacing" textLength="253.2646" x="27" y="801.4957">clearDataFromMap(layer: any): void</text><g data-visibility-modifier="PUBLIC_METHOD"><ellipse cx="18" cy="814.4459" fill="#84BE84" rx="3" ry="3" style="stroke:#038048;stroke-width:1;"/></g><text fill="#000000" font-family="sans-serif" font-size="14" lengthAdjust="spacing" textLength="630.793" x="27" y="817.7926">renderData(featureCollection: OSMapsCartographicFeatureCollection, layer: any, ...): void</text><g data-visibility-modifier="PUBLIC_METHOD"><ellipse cx="18" cy="830.7428" fill="#84BE84" rx="3" ry="3" style="stroke:#038048;stroke-width:1;"/></g><text fill="#000000" font-family="sans-serif" font-size="14" lengthAdjust="spacing" textLength="296.4678" x="27" y="834.0895">updateReferenceLayers(): Promise&lt;void&gt;</text><g data-visibility-modifier="PUBLIC_METHOD"><ellipse cx="18" cy="847.0397" fill="#84BE84" rx="3" ry="3" style="stroke:#038048;stroke-width:1;"/></g><text fill="#000000" font-family="sans-serif" font-size="14" lengthAdjust="spacing" textLength="247.2012" x="27" y="850.3864">updateSettings(settings: any): void</text><g data-visibility-modifier="PUBLIC_METHOD"><ellipse cx="18" cy="863.3366" fill="#84BE84" rx="3" ry="3" style="stroke:#038048;stroke-width:1;"/></g><text fill="#000000" font-family="sans-serif" font-size="14" lengthAdjust="spacing" textLength="233.4678" x="27" y="866.6832">ToggleSpinner(on: boolean): void</text><g data-visibility-modifier="PUBLIC_METHOD"><ellipse cx="18" cy="879.6334" fill="#84BE84" rx="3" ry="3" style="stroke:#038048;stroke-width:1;"/></g><text fill="#000000" font-family="sans-serif" font-size="14" lengthAdjust="spacing" textLength="181.4053" x="27" y="882.9801">updateZoomLimits(): void</text><g data-visibility-modifier="PUBLIC_METHOD"><ellipse cx="18" cy="895.9303" fill="#84BE84" rx="3" ry="3" style="stroke:#038048;stroke-width:1;"/></g><text fill="#000000" font-family="sans-serif" font-size="14" lengthAdjust="spacing" textLength="216.1592" x="27" y="899.277">toggleLasso(on: boolean): void</text><g data-visibility-modifier="PUBLIC_METHOD"><ellipse cx="18" cy="912.2272" fill="#84BE84" rx="3" ry="3" style="stroke:#038048;stroke-width:1;"/></g><text fill="#000000" font-family="sans-serif" font-size="14" lengthAdjust="spacing" textLength="286.0703" x="27" y="915.5739">toggleZoomPanSelect(on: boolean): void</text><g data-visibility-modifier="PUBLIC_METHOD"><ellipse cx="18" cy="928.5241" fill="#84BE84" rx="3" ry="3" style="stroke:#038048;stroke-width:1;"/></g><text fill="#000000" font-family="sans-serif" font-size="14" lengthAdjust="spacing" textLength="290.7324" x="27" y="931.8707">clearMapSelection(trigger: boolean): void</text></g><!--class LegendManager--><g class="entity" data-qualified-name="LegendManager" data-source-line="49" id="ent0005"><rect fill="#F1F1F1" height="145.7813" rx="2.5" ry="2.5" style="stroke:#181818;stroke-width:0.5;" width="354.5898" x="699.1" y="744.5"/><ellipse cx="815.6254" cy="760.5" fill="#ADD1B2" rx="11" ry="11" style="stroke:#181818;stroke-width:1;"/><path d="M818.5941,766.1406 Q818.016,766.4375 817.3754,766.5781 Q816.7348,766.7344 816.0316,766.7344 Q813.5316,766.7344 812.2035,765.0938 Q810.891,763.4375 810.891,760.3125 Q810.891,757.1875 812.2035,755.5313 Q813.5316,753.875 816.0316,753.875 Q816.7348,753.875 817.3754,754.0313 Q818.0316,754.1875 818.5941,754.4844 L818.5941,757.2031 Q817.9691,756.625 817.3754,756.3594 Q816.7816,756.0781 816.1566,756.0781 Q814.8129,756.0781 814.1254,757.1563 Q813.4379,758.2188 813.4379,760.3125 Q813.4379,762.4063 814.1254,763.4844 Q814.8129,764.5469 816.1566,764.5469 Q816.7816,764.5469 817.3754,764.2813 Q817.9691,764 818.5941,763.4219 L818.5941,766.1406 Z " fill="#000000"/><text fill="#000000" font-family="sans-serif" font-size="14" lengthAdjust="spacing" textLength="113.0391" x="836.1254" y="765.3467">LegendManager</text><line style="stroke:#181818;stroke-width:0.5;" x1="700.1" x2="1052.6898" y1="776.5" y2="776.5"/><line style="stroke:#181818;stroke-width:0.5;" x1="700.1" x2="1052.6898" y1="784.5" y2="784.5"/><g data-visibility-modifier="PUBLIC_METHOD"><ellipse cx="710.1" cy="798.1484" fill="#84BE84" rx="3" ry="3" style="stroke:#038048;stroke-width:1;"/></g><text fill="#000000" font-family="sans-serif" font-size="14" lengthAdjust="spacing" textLength="271.1748" x="719.1" y="801.4951">updatePointsLegend(points: any): void</text><g data-visibility-modifier="PUBLIC_METHOD"><ellipse cx="710.1" cy="814.4453" fill="#84BE84" rx="3" ry="3" style="stroke:#038048;stroke-width:1;"/></g><text fill="#000000" font-family="sans-serif" font-size="14" lengthAdjust="spacing" textLength="305.04" x="719.1" y="817.792">updateFeaturesLegend(features: any): void</text><g data-visibility-modifier="PUBLIC_METHOD"><ellipse cx="710.1" cy="830.7422" fill="#84BE84" rx="3" ry="3" style="stroke:#038048;stroke-width:1;"/></g><text fill="#000000" font-family="sans-serif" font-size="14" lengthAdjust="spacing" textLength="257.3594" x="719.1" y="834.0889">updateSizeLegend(points: any): void</text><g data-visibility-modifier="PUBLIC_METHOD"><ellipse cx="710.1" cy="847.0391" fill="#84BE84" rx="3" ry="3" style="stroke:#038048;stroke-width:1;"/></g><text fill="#000000" font-family="sans-serif" font-size="14" lengthAdjust="spacing" textLength="328.5898" x="719.1" y="850.3857">updateRefLegend(refLayerManager: any): void</text><g data-visibility-modifier="PUBLIC_METHOD"><ellipse cx="710.1" cy="863.3359" fill="#84BE84" rx="3" ry="3" style="stroke:#038048;stroke-width:1;"/></g><text fill="#000000" font-family="sans-serif" font-size="14" lengthAdjust="spacing" textLength="324.666" x="719.1" y="866.6826">updateUnmatchedLegend(features: any): void</text><g data-visibility-modifier="PUBLIC_METHOD"><ellipse cx="710.1" cy="879.6328" fill="#84BE84" rx="3" ry="3" style="stroke:#038048;stroke-width:1;"/></g><text fill="#000000" font-family="sans-serif" font-size="14" lengthAdjust="spacing" textLength="283.0898" x="719.1" y="882.9795">setLegendVisibility(show: boolean): void</text></g><!--class SettingsChangeTypes--><g class="entity" data-qualified-name="SettingsChangeTypes" data-source-line="58" id="ent0006"><rect fill="#F1F1F1" height="373.9375" rx="2.5" ry="2.5" style="stroke:#181818;stroke-width:0.5;" width="322.5225" x="1180.14" y="261.67"/><ellipse cx="1260.8246" cy="277.67" fill="#ADD1B2" rx="11" ry="11" style="stroke:#181818;stroke-width:1;"/><path d="M1263.7933,283.3106 Q1263.2152,283.6075 1262.5746,283.7481 Q1261.9339,283.9044 1261.2308,283.9044 Q1258.7308,283.9044 1257.4027,282.2637 Q1256.0902,280.6075 1256.0902,277.4825 Q1256.0902,274.3575 1257.4027,272.7012 Q1258.7308,271.045 1261.2308,271.045 Q1261.9339,271.045 1262.5746,271.2012 Q1263.2308,271.3575 1263.7933,271.6544 L1263.7933,274.3731 Q1263.1683,273.795 1262.5746,273.5294 Q1261.9808,273.2481 1261.3558,273.2481 Q1260.0121,273.2481 1259.3246,274.3262 Q1258.6371,275.3887 1258.6371,277.4825 Q1258.6371,279.5762 1259.3246,280.6544 Q1260.0121,281.7169 1261.3558,281.7169 Q1261.9808,281.7169 1262.5746,281.4512 Q1263.1683,281.17 1263.7933,280.5919 L1263.7933,283.3106 Z " fill="#000000"/><text fill="#000000" font-family="sans-serif" font-size="14" lengthAdjust="spacing" textLength="152.6533" x="1281.3246" y="282.5167">SettingsChangeTypes</text><line style="stroke:#181818;stroke-width:0.5;" x1="1181.14" x2="1501.6625" y1="293.67" y2="293.67"/><g data-visibility-modifier="PUBLIC_FIELD"><ellipse cx="1191.14" cy="307.3184" fill="none" rx="3" ry="3" style="stroke:#038048;stroke-width:1;"/></g><text fill="#000000" font-family="sans-serif" font-size="14" lengthAdjust="spacing" textLength="136.0967" x="1200.14" y="310.6651">ChangeAll: boolean</text><g data-visibility-modifier="PUBLIC_FIELD"><ellipse cx="1191.14" cy="323.6153" fill="none" rx="3" ry="3" style="stroke:#038048;stroke-width:1;"/></g><text fill="#000000" font-family="sans-serif" font-size="14" lengthAdjust="spacing" textLength="142.0029" x="1200.14" y="326.962">AnySetting: boolean</text><g data-visibility-modifier="PUBLIC_FIELD"><ellipse cx="1191.14" cy="339.9122" fill="none" rx="3" ry="3" style="stroke:#038048;stroke-width:1;"/></g><text fill="#000000" font-family="sans-serif" font-size="14" lengthAdjust="spacing" textLength="125.3027" x="1200.14" y="343.2589">AnyData: boolean</text><g data-visibility-modifier="PUBLIC_FIELD"><ellipse cx="1191.14" cy="356.2091" fill="none" rx="3" ry="3" style="stroke:#038048;stroke-width:1;"/></g><text fill="#000000" font-family="sans-serif" font-size="14" lengthAdjust="spacing" textLength="195.4258" x="1200.14" y="359.5557">ShouldRebuildMap: boolean</text><g data-visibility-modifier="PUBLIC_FIELD"><ellipse cx="1191.14" cy="372.5059" fill="none" rx="3" ry="3" style="stroke:#038048;stroke-width:1;"/></g><text fill="#000000" font-family="sans-serif" font-size="14" lengthAdjust="spacing" textLength="246.2988" x="1200.14" y="375.8526">ShouldRebuildBaseLayers: boolean</text><g data-visibility-modifier="PUBLIC_FIELD"><ellipse cx="1191.14" cy="388.8028" fill="none" rx="3" ry="3" style="stroke:#038048;stroke-width:1;"/></g><text fill="#000000" font-family="sans-serif" font-size="14" lengthAdjust="spacing" textLength="208.4346" x="1200.14" y="392.1495">ShouldRebuildPoints: boolean</text><g data-visibility-modifier="PUBLIC_FIELD"><ellipse cx="1191.14" cy="405.0997" fill="none" rx="3" ry="3" style="stroke:#038048;stroke-width:1;"/></g><text fill="#000000" font-family="sans-serif" font-size="14" lengthAdjust="spacing" textLength="227.1514" x="1200.14" y="408.4464">ShouldRebuildFeatures: boolean</text><g data-visibility-modifier="PUBLIC_FIELD"><ellipse cx="1191.14" cy="421.3966" fill="none" rx="3" ry="3" style="stroke:#038048;stroke-width:1;"/></g><text fill="#000000" font-family="sans-serif" font-size="14" lengthAdjust="spacing" textLength="199.1172" x="1200.14" y="424.7432">ShouldRezoomMap: boolean</text><g data-visibility-modifier="PUBLIC_FIELD"><ellipse cx="1191.14" cy="437.6934" fill="none" rx="3" ry="3" style="stroke:#038048;stroke-width:1;"/></g><text fill="#000000" font-family="sans-serif" font-size="14" lengthAdjust="spacing" textLength="246.1758" x="1200.14" y="441.0401">ShouldUpdateZoomLimits: boolean</text><g data-visibility-modifier="PUBLIC_FIELD"><ellipse cx="1191.14" cy="453.9903" fill="none" rx="3" ry="3" style="stroke:#038048;stroke-width:1;"/></g><text fill="#000000" font-family="sans-serif" font-size="14" lengthAdjust="spacing" textLength="296.5225" x="1200.14" y="457.337">ShouldUpdateReferenceFeatures: boolean</text><g data-visibility-modifier="PUBLIC_FIELD"><ellipse cx="1191.14" cy="470.2872" fill="none" rx="3" ry="3" style="stroke:#038048;stroke-width:1;"/></g><text fill="#000000" font-family="sans-serif" font-size="14" lengthAdjust="spacing" textLength="167.1523" x="1200.14" y="473.6339">PointLocations: boolean</text><g data-visibility-modifier="PUBLIC_FIELD"><ellipse cx="1191.14" cy="486.5841" fill="none" rx="3" ry="3" style="stroke:#038048;stroke-width:1;"/></g><text fill="#000000" font-family="sans-serif" font-size="14" lengthAdjust="spacing" textLength="146.7813" x="1200.14" y="489.9307">PointAttribs: boolean</text><g data-visibility-modifier="PUBLIC_FIELD"><ellipse cx="1191.14" cy="502.8809" fill="none" rx="3" ry="3" style="stroke:#038048;stroke-width:1;"/></g><text fill="#000000" font-family="sans-serif" font-size="14" lengthAdjust="spacing" textLength="187.4004" x="1200.14" y="506.2276">PolygonLocations: boolean</text><g data-visibility-modifier="PUBLIC_FIELD"><ellipse cx="1191.14" cy="519.1778" fill="none" rx="3" ry="3" style="stroke:#038048;stroke-width:1;"/></g><text fill="#000000" font-family="sans-serif" font-size="14" lengthAdjust="spacing" textLength="167.0293" x="1200.14" y="522.5245">PolygonAttribs: boolean</text><g data-visibility-modifier="PUBLIC_FIELD"><ellipse cx="1191.14" cy="535.4747" fill="none" rx="3" ry="3" style="stroke:#038048;stroke-width:1;"/></g><text fill="#000000" font-family="sans-serif" font-size="14" lengthAdjust="spacing" textLength="195.9863" x="1200.14" y="538.8214">PointCartoSettings: boolean</text><g data-visibility-modifier="PUBLIC_FIELD"><ellipse cx="1191.14" cy="551.7716" fill="none" rx="3" ry="3" style="stroke:#038048;stroke-width:1;"/></g><text fill="#000000" font-family="sans-serif" font-size="14" lengthAdjust="spacing" textLength="214.7031" x="1200.14" y="555.1182">FeatureCartoSettings: boolean</text><g data-visibility-modifier="PUBLIC_FIELD"><ellipse cx="1191.14" cy="568.0684" fill="none" rx="3" ry="3" style="stroke:#038048;stroke-width:1;"/></g><text fill="#000000" font-family="sans-serif" font-size="14" lengthAdjust="spacing" textLength="219.1943" x="1200.14" y="571.4151">ZoomPanSelectStatus: boolean</text><g data-visibility-modifier="PUBLIC_FIELD"><ellipse cx="1191.14" cy="584.3653" fill="none" rx="3" ry="3" style="stroke:#038048;stroke-width:1;"/></g><text fill="#000000" font-family="sans-serif" font-size="14" lengthAdjust="spacing" textLength="113.3672" x="1200.14" y="587.712">APIKey: boolean</text><g data-visibility-modifier="PUBLIC_FIELD"><ellipse cx="1191.14" cy="600.6622" fill="none" rx="3" ry="3" style="stroke:#038048;stroke-width:1;"/></g><text fill="#000000" font-family="sans-serif" font-size="14" lengthAdjust="spacing" textLength="161.5879" x="1200.14" y="604.0089">UploadToggle: boolean</text><g data-visibility-modifier="PUBLIC_FIELD"><ellipse cx="1191.14" cy="616.9591" fill="none" rx="3" ry="3" style="stroke:#038048;stroke-width:1;"/></g><text fill="#000000" font-family="sans-serif" font-size="14" lengthAdjust="spacing" textLength="172.9834" x="1200.14" y="620.3057">UploadJoinField: boolean</text><line style="stroke:#181818;stroke-width:0.5;" x1="1181.14" x2="1501.6625" y1="627.6075" y2="627.6075"/></g><!--class VisualStatus--><g class="entity" data-qualified-name="VisualStatus" data-source-line="81" id="ent0007"><rect fill="#F1F1F1" height="129.4844" rx="2.5" ry="2.5" style="stroke:#181818;stroke-width:0.5;" width="250.0479" x="1537.37" y="383.9"/><ellipse cx="1614.787" cy="399.9" fill="#ADD1B2" rx="11" ry="11" style="stroke:#181818;stroke-width:1;"/><path d="M1617.7557,405.5406 Q1617.1776,405.8375 1616.537,405.9781 Q1615.8964,406.1344 1615.1932,406.1344 Q1612.6932,406.1344 1611.3651,404.4938 Q1610.0526,402.8375 1610.0526,399.7125 Q1610.0526,396.5875 1611.3651,394.9313 Q1612.6932,393.275 1615.1932,393.275 Q1615.8964,393.275 1616.537,393.4313 Q1617.1932,393.5875 1617.7557,393.8844 L1617.7557,396.6031 Q1617.1307,396.025 1616.537,395.7594 Q1615.9432,395.4781 1615.3182,395.4781 Q1613.9745,395.4781 1613.287,396.5563 Q1612.5995,397.6188 1612.5995,399.7125 Q1612.5995,401.8063 1613.287,402.8844 Q1613.9745,403.9469 1615.3182,403.9469 Q1615.9432,403.9469 1616.537,403.6813 Q1617.1307,403.4 1617.7557,402.8219 L1617.7557,405.5406 Z " fill="#000000"/><text fill="#000000" font-family="sans-serif" font-size="14" lengthAdjust="spacing" textLength="86.7139" x="1635.287" y="404.7467">VisualStatus</text><line style="stroke:#181818;stroke-width:0.5;" x1="1538.37" x2="1786.4179" y1="415.9" y2="415.9"/><g data-visibility-modifier="PUBLIC_FIELD"><ellipse cx="1548.37" cy="429.5484" fill="none" rx="3" ry="3" style="stroke:#038048;stroke-width:1;"/></g><text fill="#000000" font-family="sans-serif" font-size="14" lengthAdjust="spacing" textLength="183.7295" x="1557.37" y="432.8951">anyDataShowing: boolean</text><g data-visibility-modifier="PUBLIC_FIELD"><ellipse cx="1548.37" cy="445.8453" fill="none" rx="3" ry="3" style="stroke:#038048;stroke-width:1;"/></g><text fill="#000000" font-family="sans-serif" font-size="14" lengthAdjust="spacing" textLength="118.9727" x="1557.37" y="449.192">keyStatus: string</text><g data-visibility-modifier="PUBLIC_FIELD"><ellipse cx="1548.37" cy="462.1422" fill="none" rx="3" ry="3" style="stroke:#038048;stroke-width:1;"/></g><text fill="#000000" font-family="sans-serif" font-size="14" lengthAdjust="spacing" textLength="96.79" x="1557.37" y="465.4889">apiKey: string</text><g data-visibility-modifier="PUBLIC_FIELD"><ellipse cx="1548.37" cy="478.4391" fill="none" rx="3" ry="3" style="stroke:#038048;stroke-width:1;"/></g><text fill="#000000" font-family="sans-serif" font-size="14" lengthAdjust="spacing" textLength="224.0479" x="1557.37" y="481.7857">previousDataExpected: boolean</text><g data-visibility-modifier="PUBLIC_FIELD"><ellipse cx="1548.37" cy="494.7359" fill="none" rx="3" ry="3" style="stroke:#038048;stroke-width:1;"/></g><text fill="#000000" font-family="sans-serif" font-size="14" lengthAdjust="spacing" textLength="205.7207" x="1557.37" y="498.0826">previousExtentValid: boolean</text><line style="stroke:#181818;stroke-width:0.5;" x1="1538.37" x2="1786.4179" y1="505.3844" y2="505.3844"/></g><!--class VisualAuth--><g class="entity" data-qualified-name="VisualAuth" data-source-line="89" id="ent0008"><rect fill="#F1F1F1" height="80.5938" rx="2.5" ry="2.5" style="stroke:#181818;stroke-width:0.5;" width="268.9629" x="1822.92" y="408.34"/><ellipse cx="1915.6939" cy="424.34" fill="#ADD1B2" rx="11" ry="11" style="stroke:#181818;stroke-width:1;"/><path d="M1918.6627,429.9806 Q1918.0846,430.2775 1917.4439,430.4181 Q1916.8033,430.5744 1916.1002,430.5744 Q1913.6002,430.5744 1912.2721,428.9337 Q1910.9596,427.2775 1910.9596,424.1525 Q1910.9596,421.0275 1912.2721,419.3712 Q1913.6002,417.715 1916.1002,417.715 Q1916.8033,417.715 1917.4439,417.8712 Q1918.1002,418.0275 1918.6627,418.3244 L1918.6627,421.0431 Q1918.0377,420.465 1917.4439,420.1994 Q1916.8502,419.9181 1916.2252,419.9181 Q1914.8814,419.9181 1914.1939,420.9962 Q1913.5064,422.0587 1913.5064,424.1525 Q1913.5064,426.2462 1914.1939,427.3244 Q1914.8814,428.3869 1916.2252,428.3869 Q1916.8502,428.3869 1917.4439,428.1212 Q1918.0377,427.84 1918.6627,427.2619 L1918.6627,429.9806 Z " fill="#000000"/><text fill="#000000" font-family="sans-serif" font-size="14" lengthAdjust="spacing" textLength="74.915" x="1936.1939" y="429.1867">VisualAuth</text><line style="stroke:#181818;stroke-width:0.5;" x1="1823.92" x2="2090.8829" y1="440.34" y2="440.34"/><line style="stroke:#181818;stroke-width:0.5;" x1="1823.92" x2="2090.8829" y1="448.34" y2="448.34"/><g data-visibility-modifier="PUBLIC_METHOD"><ellipse cx="1833.92" cy="461.9884" fill="#84BE84" rx="3" ry="3" style="stroke:#038048;stroke-width:1;"/></g><text fill="#000000" font-family="sans-serif" font-size="14" lengthAdjust="spacing" textLength="242.9629" x="1842.92" y="465.3351">IsAuthorised(): Promise&lt;boolean&gt;</text><g data-visibility-modifier="PUBLIC_METHOD"><ellipse cx="1833.92" cy="478.2853" fill="#84BE84" rx="3" ry="3" style="stroke:#038048;stroke-width:1;"/></g><text fill="#000000" font-family="sans-serif" font-size="14" lengthAdjust="spacing" textLength="206.835" x="1842.92" y="481.632">AuthDetails(): Promise&lt;any&gt;</text></g><!--class LogWriter--><g class="entity" data-qualified-name="LogWriter" data-source-line="94" id="ent0009"><rect fill="#F1F1F1" height="64.2969" rx="2.5" ry="2.5" style="stroke:#181818;stroke-width:0.5;" width="277.1934" x="2126.8" y="416.49"/><ellipse cx="2226.8474" cy="432.49" fill="#B4A7E5" rx="11" ry="11" style="stroke:#181818;stroke-width:1;"/><path d="M2222.7692,428.2556 L2222.7692,426.0994 L2230.1599,426.0994 L2230.1599,428.2556 L2227.6911,428.2556 L2227.6911,436.3338 L2230.1599,436.3338 L2230.1599,438.49 L2222.7692,438.49 L2222.7692,436.3338 L2225.238,436.3338 L2225.238,428.2556 L2222.7692,428.2556 Z " fill="#000000"/><text fill="#000000" font-family="sans-serif" font-size="14" font-style="italic" lengthAdjust="spacing" textLength="68.5986" x="2247.3474" y="437.3367">LogWriter</text><line style="stroke:#181818;stroke-width:0.5;" x1="2127.8" x2="2402.9934" y1="448.49" y2="448.49"/><line style="stroke:#181818;stroke-width:0.5;" x1="2127.8" x2="2402.9934" y1="456.49" y2="456.49"/><g data-visibility-modifier="PUBLIC_METHOD"><ellipse cx="2137.8" cy="470.1384" fill="#84BE84" rx="3" ry="3" style="stroke:#038048;stroke-width:1;"/></g><text fill="#000000" font-family="sans-serif" font-size="14" lengthAdjust="spacing" textLength="251.1934" x="2146.8" y="473.4851">sendLogRecord(lr: LogRecord): void</text></g><!--class UserDataUploaderUIController--><g class="entity" data-qualified-name="UserDataUploaderUIController" data-source-line="98" id="ent0010"><rect fill="#F1F1F1" height="80.5938" rx="2.5" ry="2.5" style="stroke:#181818;stroke-width:0.5;" width="313.0137" x="1088.89" y="777.09"/><ellipse cx="1134.9916" cy="793.09" fill="#ADD1B2" rx="11" ry="11" style="stroke:#181818;stroke-width:1;"/><path d="M1137.9603,798.7306 Q1137.3822,799.0275 1136.7416,799.1681 Q1136.1009,799.3244 1135.3978,799.3244 Q1132.8978,799.3244 1131.5697,797.6837 Q1130.2572,796.0275 1130.2572,792.9025 Q1130.2572,789.7775 1131.5697,788.1212 Q1132.8978,786.465 1135.3978,786.465 Q1136.1009,786.465 1136.7416,786.6212 Q1137.3978,786.7775 1137.9603,787.0744 L1137.9603,789.7931 Q1137.3353,789.215 1136.7416,788.9494 Q1136.1478,788.6681 1135.5228,788.6681 Q1134.1791,788.6681 1133.4916,789.7462 Q1132.8041,790.8087 1132.8041,792.9025 Q1132.8041,794.9962 1133.4916,796.0744 Q1134.1791,797.1369 1135.5228,797.1369 Q1136.1478,797.1369 1136.7416,796.8712 Q1137.3353,796.59 1137.9603,796.0119 L1137.9603,798.7306 Z " fill="#000000"/><text fill="#000000" font-family="sans-serif" font-size="14" lengthAdjust="spacing" textLength="212.3105" x="1155.4916" y="797.9367">UserDataUploaderUIController</text><line style="stroke:#181818;stroke-width:0.5;" x1="1089.89" x2="1400.9037" y1="809.09" y2="809.09"/><line style="stroke:#181818;stroke-width:0.5;" x1="1089.89" x2="1400.9037" y1="817.09" y2="817.09"/><g data-visibility-modifier="PUBLIC_METHOD"><ellipse cx="1099.89" cy="830.7384" fill="#84BE84" rx="3" ry="3" style="stroke:#038048;stroke-width:1;"/></g><text fill="#000000" font-family="sans-serif" font-size="14" lengthAdjust="spacing" textLength="287.0137" x="1108.89" y="834.0851">showUploaderUI(hasData: boolean): void</text><g data-visibility-modifier="PUBLIC_METHOD"><ellipse cx="1099.89" cy="847.0353" fill="#84BE84" rx="3" ry="3" style="stroke:#038048;stroke-width:1;"/></g><text fill="#000000" font-family="sans-serif" font-size="14" lengthAdjust="spacing" textLength="157.7803" x="1108.89" y="850.382">hideUploaderUI(): void</text></g><!--link OSPowerBIVisual to OSPowerBIUIManager--><g class="link" data-entity-1="ent0002" data-entity-2="ent0003" data-link-type="dependency" data-source-line="103" id="lnk11"><path codeLine="103" d="M1451.72,157.35 C1360.6,183.35 1254.05,218.54 1162.4,261.67 C1151.81,266.65 1146.4767,269.1893 1135.8267,274.7593" fill="none" id="OSPowerBIVisual-to-OSPowerBIUIManager" style="stroke:#181818;stroke-width:1;"/><polygon fill="#181818" points="1130.51,277.54,1140.3389,276.9135,1134.9406,275.2228,1136.6313,269.8245,1130.51,277.54" style="stroke:#181818;stroke-width:1;"/></g><!--link OSPowerBIVisual to SettingsChangeTypes--><g class="link" data-entity-1="ent0002" data-entity-2="ent0006" data-link-type="dependency" data-source-line="104" id="lnk12"><path codeLine="104" d="M1571.7,202.05 C1550.19,224.99 1530.7141,245.7532 1507.0941,270.9432" fill="none" id="OSPowerBIVisual-to-SettingsChangeTypes" style="stroke:#181818;stroke-width:1;"/><polygon fill="#181818" points="1502.99,275.32,1512.064,271.4908,1506.41,271.6726,1506.2282,266.0187,1502.99,275.32" style="stroke:#181818;stroke-width:1;"/></g><!--link OSPowerBIVisual to VisualStatus--><g class="link" data-entity-1="ent0002" data-entity-2="ent0007" data-link-type="dependency" data-source-line="105" id="lnk13"><path codeLine="105" d="M1662.4,202.05 C1662.4,260.18 1662.4,326.53 1662.4,377.6" fill="none" id="OSPowerBIVisual-to-VisualStatus" style="stroke:#181818;stroke-width:1;"/><polygon fill="#181818" points="1662.4,383.6,1666.4,374.6,1662.4,378.6,1658.4,374.6,1662.4,383.6" style="stroke:#181818;stroke-width:1;"/></g><!--link OSPowerBIVisual to VisualAuth--><g class="link" data-entity-1="ent0002" data-entity-2="ent0008" data-link-type="dependency" data-source-line="106" id="lnk14"><path codeLine="106" d="M1752.49,202.15 C1770.23,221.68 1788.55,242.19 1805.4,261.67 C1848.22,311.19 1891.9498,365.2184 1922.2598,403.2384" fill="none" id="OSPowerBIVisual-to-VisualAuth" style="stroke:#181818;stroke-width:1;"/><polygon fill="#181818" points="1926,407.93,1923.5174,398.3992,1922.8832,404.0203,1917.262,403.3861,1926,407.93" style="stroke:#181818;stroke-width:1;"/></g><!--link OSPowerBIVisual to LogWriter--><g class="link" data-entity-1="ent0002" data-entity-2="ent0009" data-link-type="extension" data-source-line="107" id="lnk15"><path codeLine="107" d="M1873.06,153.65 C1951.67,177.98 2038.88,212.95 2109.4,261.67 C2170.07,303.59 2211.0709,359.8858 2237.0309,400.9458" fill="none" id="OSPowerBIVisual-to-LogWriter" style="stroke:#181818;stroke-width:1;stroke-dasharray:7,7;"/><polygon fill="none" points="2246.65,416.16,2242.1023,397.7394,2231.9595,404.1522,2246.65,416.16" style="stroke:#181818;stroke-width:1;"/></g><!--link OSPowerBIUIManager to OSPowerBIMapManager--><g class="link" data-entity-1="ent0003" data-entity-2="ent0004" data-link-type="dependency" data-source-line="108" id="lnk16"><path codeLine="108" d="M625.69,619.59 C587.96,645.17 554.6863,667.7332 518.8863,692.0032" fill="none" id="OSPowerBIUIManager-to-OSPowerBIMapManager" style="stroke:#181818;stroke-width:1;"/><polygon fill="#181818" points="513.92,695.37,523.614,693.6306,518.0586,692.5643,519.1249,687.0089,513.92,695.37" style="stroke:#181818;stroke-width:1;"/></g><!--link OSPowerBIUIManager to LegendManager--><g class="link" data-entity-1="ent0003" data-entity-2="ent0005" data-link-type="dependency" data-source-line="109" id="lnk17"><path codeLine="109" d="M876.4,619.59 C876.4,663.44 876.4,702.31 876.4,738.12" fill="none" id="OSPowerBIUIManager-to-LegendManager" style="stroke:#181818;stroke-width:1;"/><polygon fill="#181818" points="876.4,744.12,880.4,735.12,876.4,739.12,872.4,735.12,876.4,744.12" style="stroke:#181818;stroke-width:1;"/></g><!--link OSPowerBIUIManager to UserDataUploaderUIController--><g class="link" data-entity-1="ent0003" data-entity-2="ent0010" data-link-type="dependency" data-source-line="110" id="lnk18"><path codeLine="110" d="M1047.39,619.59 C1106.4,678.24 1163.0041,734.5007 1201.4041,772.6607" fill="none" id="OSPowerBIUIManager-to-UserDataUploaderUIController" style="stroke:#181818;stroke-width:1;"/><polygon fill="#181818" points="1205.66,776.89,1202.0957,767.7087,1202.1134,773.3656,1196.4566,773.3833,1205.66,776.89" style="stroke:#181818;stroke-width:1;"/></g><?plantuml-src ZLVDRkCu3BxtANpqOZjvW63H8aqQ83lfnAYR3Z0tnM9iOHJ9aEIawUw--rAI_sDxfeV24Z-I4lcHOX9Ej0vsSIGle9usxqmNX0V_t0NuzsUHKs8WbBbXKkXvuALxjxlpct_CWqZ94zFmrrao-k0LKp1hgKx462RI5qc1XmZiRNae1MsKl5gvDL3hHw0qqmPe34v5Xuo2CEp8G26MYAk7vXwt8eQyoILHj8Mx3nJeWXlTCQuW0NQ6VSubeK2jPbYunQj3puDzQzLHrI3eLgQla4XqnDKyg5TTt8MP9DiTZp-YE7RVtVlvm7w5Qso8ANGeuEA_vW560szReV-xkqkw6TflNeWWAQWgIMyoJJbiYQ2e5w4aD8KIEp4F3b9o8ABZsQDVIBumwEXGs2I6EfENIEP5FgnZdCutQOEQ4AknaYQK8nwU2iPfru6ptOq0oHbUtrE9XZuU6zgwViMgqaL9B4Bf2iuleBMzw4cd_O1LgEz42ToUWZmh9TKeG8FP2rAOJ2ey1brmKAPx1SfqpibrWPYDECgGWY6CQyVDWMnZI9P4l2A3G5b3vSKy14d-pk2oKy-K6LiTuGd_sOg3YrqEv705Xy8LaakVMzL6xmE_TvuYmLw3ikGl2q4vEoqJ6T5M_3XbeqqAxTCynJuCQWmS4aCEZ3Dp3PbUCsv00Mqv_iprCYCYRMrshAnyuDyaqQPzW303UuygdVU1WG_ps2mvd84_3cQxpEKtm1fxjnr52civWP1ZwhGfztvTdfZbNdqUode83x8GT80U3l14DDRm5Ts40xM7ZPUL4HihkmHtN3hNM3ZM7RVMRhqfHq3Nz8w0BKV1KdAR4dUzNOog6jie-bKaprYoxeCmZhNb-s0scmrm_HMEc5EHjAuqy4fuRDtVTVbnUsRFjJXdGY1DnoBWpVsGyhHb9sO60xd5PCbH2nvZBKH4UA9Ennk3vM6MVSYCDBM1wS5hacmXnU3twE5F7KacZFQ0C7UBiJvI9gG2bqaSXSVi4txBBkQin2dyidahJpgci1VucYSPq5-U13FhCIqUTvhDJQWgKlW-y7RDGLS1yriBpdijT26kfTQjmDAztt4pMN1yuwlod18tnJc5YihmZYFMTOG6CP_ILUwWTDyZzmIeBhuHT-wSMrasxI6XVxflHVoQIZ6kwSHZkcZMjPMuhl8Ee6ep4v1ENLRZKZVJqGQ7YjwcVzvy2naK_OrdMpFWpMlJyD1FlDvPHK3Y-OGXlzoIxMSrqrLFHNlSwUxb2ivC5kwHVVx8yLAj1wyBUVumEDE-4yx63sddaEg86xse9vTmT9Yoc9KVMjeWlD-3DOuP0tKa2TWXzxjYfcbQlp47rwVhZndxpL8A7FdnFMdiOImRULXE7iEDDyFvleLj-Ul_YldovM5WRXw43VIRGLoR3nC06zaRyMpsxqCJohk1YRvpu6QI68DstfCnq5Ju_mS0?></g></svg>