<svg xmlns="http://www.w3.org/2000/svg" xmlns:xlink="http://www.w3.org/1999/xlink" contentStyleType="text/css" data-diagram-type="CLASS" height="685px" preserveAspectRatio="none" style="width:1359px;height:685px;background:#FFFFFF;" version="1.1" viewBox="0 0 1359 685" width="1359px" zoomAndPan="magnify"><defs/><g><!--class OSPowerBIVisual--><g class="entity" data-entity="OSPowerBIVisual" data-source-line="1" data-uid="ent0002" id="entity_OSPowerBIVisual"><rect fill="#F1F1F1" height="145.7813" rx="2.5" ry="2.5" style="stroke:#181818;stroke-width:0.5;" width="479.7627" x="723.52" y="7"/><ellipse cx="899.8667" cy="23" fill="#ADD1B2" rx="11" ry="11" style="stroke:#181818;stroke-width:1;"/><path d="M902.8354,28.6406 Q902.2573,28.9375 901.6167,29.0781 Q900.9761,29.2344 900.2729,29.2344 Q897.7729,29.2344 896.4448,27.5938 Q895.1323,25.9375 895.1323,22.8125 Q895.1323,19.6875 896.4448,18.0313 Q897.7729,16.375 900.2729,16.375 Q900.9761,16.375 901.6167,16.5313 Q902.2729,16.6875 902.8354,16.9844 L902.8354,19.7031 Q902.2104,19.125 901.6167,18.8594 Q901.0229,18.5781 900.3979,18.5781 Q899.0542,18.5781 898.3667,19.6563 Q897.6792,20.7188 897.6792,22.8125 Q897.6792,24.9063 898.3667,25.9844 Q899.0542,27.0469 900.3979,27.0469 Q901.0229,27.0469 901.6167,26.7813 Q902.2104,26.5 902.8354,25.9219 L902.8354,28.6406 Z " fill="#000000"/><text fill="#000000" font-family="sans-serif" font-size="14" lengthAdjust="spacing" textLength="118.5693" x="920.3667" y="27.8467">OSPowerBIVisual</text><line style="stroke:#181818;stroke-width:0.5;" x1="724.52" x2="1202.2827" y1="39" y2="39"/><line style="stroke:#181818;stroke-width:0.5;" x1="724.52" x2="1202.2827" y1="47" y2="47"/><ellipse cx="734.52" cy="60.6484" fill="#84BE84" rx="3" ry="3" style="stroke:#038048;stroke-width:1;"/><text fill="#000000" font-family="sans-serif" font-size="14" lengthAdjust="spacing" textLength="386.2578" x="743.52" y="63.9951">update(options: VisualUpdateOptions): Promise&lt;void&gt;</text><ellipse cx="734.52" cy="76.9453" fill="#84BE84" rx="3" ry="3" style="stroke:#038048;stroke-width:1;"/><text fill="#000000" font-family="sans-serif" font-size="14" lengthAdjust="spacing" textLength="453.7627" x="743.52" y="80.292">applySelection(selectionHandles: ISelectionId[]): Promise&lt;void&gt;</text><ellipse cx="734.52" cy="93.2422" fill="#84BE84" rx="3" ry="3" style="stroke:#038048;stroke-width:1;"/><text fill="#000000" font-family="sans-serif" font-size="14" lengthAdjust="spacing" textLength="281.5859" x="743.52" y="96.5889">getFormattingModel(): FormattingModel</text><ellipse cx="734.52" cy="109.5391" fill="#84BE84" rx="3" ry="3" style="stroke:#038048;stroke-width:1;"/><text fill="#000000" font-family="sans-serif" font-size="14" lengthAdjust="spacing" textLength="102.6074" x="743.52" y="112.8857">destroy(): void</text><ellipse cx="734.52" cy="125.8359" fill="#84BE84" rx="3" ry="3" style="stroke:#038048;stroke-width:1;"/><text fill="#000000" font-family="sans-serif" font-size="14" lengthAdjust="spacing" textLength="253.3467" x="743.52" y="129.1826">getPersistedSettings(identifier): any</text><ellipse cx="734.52" cy="142.1328" fill="#84BE84" rx="3" ry="3" style="stroke:#038048;stroke-width:1;"/><text fill="#000000" font-family="sans-serif" font-size="14" lengthAdjust="spacing" textLength="299.4209" x="743.52" y="145.4795">persistDataToCard(identifier, results): void</text></g><!--class OSPowerBIUIManager--><g class="entity" data-entity="OSPowerBIUIManager" data-source-line="10" data-uid="ent0003" id="entity_OSPowerBIUIManager"><rect fill="#F1F1F1" height="227.2656" rx="2.5" ry="2.5" style="stroke:#181818;stroke-width:0.5;" width="374.0996" x="418.35" y="212.78"/><ellipse cx="525.0453" cy="228.78" fill="#ADD1B2" rx="11" ry="11" style="stroke:#181818;stroke-width:1;"/><path d="M528.0141,234.4206 Q527.4359,234.7175 526.7953,234.8581 Q526.1547,235.0144 525.4516,235.0144 Q522.9516,235.0144 521.6234,233.3737 Q520.3109,231.7175 520.3109,228.5925 Q520.3109,225.4675 521.6234,223.8112 Q522.9516,222.155 525.4516,222.155 Q526.1547,222.155 526.7953,222.3112 Q527.4516,222.4675 528.0141,222.7644 L528.0141,225.4831 Q527.3891,224.905 526.7953,224.6394 Q526.2016,224.3581 525.5766,224.3581 Q524.2328,224.3581 523.5453,225.4362 Q522.8578,226.4987 522.8578,228.5925 Q522.8578,230.6862 523.5453,231.7644 Q524.2328,232.8269 525.5766,232.8269 Q526.2016,232.8269 526.7953,232.5612 Q527.3891,232.28 528.0141,231.7019 L528.0141,234.4206 Z " fill="#000000"/><text fill="#000000" font-family="sans-serif" font-size="14" lengthAdjust="spacing" textLength="152.209" x="545.5453" y="233.6267">OSPowerBIUIManager</text><line style="stroke:#181818;stroke-width:0.5;" x1="419.35" x2="791.4496" y1="244.78" y2="244.78"/><line style="stroke:#181818;stroke-width:0.5;" x1="419.35" x2="791.4496" y1="252.78" y2="252.78"/><ellipse cx="429.35" cy="266.4284" fill="#84BE84" rx="3" ry="3" style="stroke:#038048;stroke-width:1;"/><text fill="#000000" font-family="sans-serif" font-size="14" lengthAdjust="spacing" textLength="301.4443" x="438.35" y="269.7751">ToggleLandingPage(turnOn: boolean): void</text><ellipse cx="429.35" cy="282.7253" fill="#84BE84" rx="3" ry="3" style="stroke:#038048;stroke-width:1;"/><text fill="#000000" font-family="sans-serif" font-size="14" lengthAdjust="spacing" textLength="346.4111" x="438.35" y="286.072">ToggleMapAttribution(showPopup: boolean): void</text><ellipse cx="429.35" cy="299.0222" fill="#84BE84" rx="3" ry="3" style="stroke:#038048;stroke-width:1;"/><text fill="#000000" font-family="sans-serif" font-size="14" lengthAdjust="spacing" textLength="281.791" x="438.35" y="302.3689">toggleNotificationDot(on: boolean): void</text><ellipse cx="429.35" cy="315.3191" fill="#84BE84" rx="3" ry="3" style="stroke:#038048;stroke-width:1;"/><text fill="#000000" font-family="sans-serif" font-size="14" lengthAdjust="spacing" textLength="232.8389" x="438.35" y="318.6657">BuildMapAttributionPopup(): void</text><ellipse cx="429.35" cy="331.6159" fill="#84BE84" rx="3" ry="3" style="stroke:#038048;stroke-width:1;"/><text fill="#000000" font-family="sans-serif" font-size="14" lengthAdjust="spacing" textLength="348.0996" x="438.35" y="334.9626">apiKeyUpdated(updateId: string): Promise&lt;void&gt;</text><ellipse cx="429.35" cy="347.9128" fill="#84BE84" rx="3" ry="3" style="stroke:#038048;stroke-width:1;"/><text fill="#000000" font-family="sans-serif" font-size="14" lengthAdjust="spacing" textLength="244.2822" x="438.35" y="351.2595">addDevMessage(msg: string): void</text><ellipse cx="429.35" cy="364.2097" fill="#84BE84" rx="3" ry="3" style="stroke:#038048;stroke-width:1;"/><text fill="#000000" font-family="sans-serif" font-size="14" lengthAdjust="spacing" textLength="189.9229" x="438.35" y="367.5564">addError(msg: string): void</text><ellipse cx="429.35" cy="380.5066" fill="#84BE84" rx="3" ry="3" style="stroke:#038048;stroke-width:1;"/><text fill="#000000" font-family="sans-serif" font-size="14" lengthAdjust="spacing" textLength="198.3789" x="438.35" y="383.8532">setUnauthorisedAlert(): void</text><ellipse cx="429.35" cy="396.8034" fill="#84BE84" rx="3" ry="3" style="stroke:#038048;stroke-width:1;"/><text fill="#000000" font-family="sans-serif" font-size="14" lengthAdjust="spacing" textLength="240.2832" x="438.35" y="400.1501">displayAuthInfo(details: any): void</text><ellipse cx="429.35" cy="413.1003" fill="#84BE84" rx="3" ry="3" style="stroke:#038048;stroke-width:1;"/><text fill="#000000" font-family="sans-serif" font-size="14" lengthAdjust="spacing" textLength="206.2881" x="438.35" y="416.447">updateMapCanRender(): void</text><ellipse cx="429.35" cy="429.3972" fill="#84BE84" rx="3" ry="3" style="stroke:#038048;stroke-width:1;"/><text fill="#000000" font-family="sans-serif" font-size="14" lengthAdjust="spacing" textLength="277.3271" x="438.35" y="432.7439">SetViewOrEditMode(mode: string): void</text></g><!--class OSPowerBIMapManager--><g class="entity" data-entity="OSPowerBIMapManager" data-source-line="24" data-uid="ent0004" id="entity_OSPowerBIMapManager"><rect fill="#F1F1F1" height="178.375" rx="2.5" ry="2.5" style="stroke:#181818;stroke-width:0.5;" width="656.793" x="7" y="500.04"/><ellipse cx="247.4575" cy="516.04" fill="#ADD1B2" rx="11" ry="11" style="stroke:#181818;stroke-width:1;"/><path d="M250.4263,521.6806 Q249.8481,521.9775 249.2075,522.1181 Q248.5669,522.2744 247.8638,522.2744 Q245.3638,522.2744 244.0356,520.6338 Q242.7231,518.9775 242.7231,515.8525 Q242.7231,512.7275 244.0356,511.0712 Q245.3638,509.415 247.8638,509.415 Q248.5669,509.415 249.2075,509.5712 Q249.8638,509.7275 250.4263,510.0244 L250.4263,512.7431 Q249.8013,512.165 249.2075,511.8994 Q248.6138,511.6181 247.9888,511.6181 Q246.645,511.6181 245.9575,512.6963 Q245.27,513.7588 245.27,515.8525 Q245.27,517.9463 245.9575,519.0244 Q246.645,520.0869 247.9888,520.0869 Q248.6138,520.0869 249.2075,519.8213 Q249.8013,519.54 250.4263,518.9619 L250.4263,521.6806 Z " fill="#000000"/><text fill="#000000" font-family="sans-serif" font-size="14" lengthAdjust="spacing" textLength="167.3779" x="267.9575" y="520.8867">OSPowerBIMapManager</text><line style="stroke:#181818;stroke-width:0.5;" x1="8" x2="662.793" y1="532.04" y2="532.04"/><line style="stroke:#181818;stroke-width:0.5;" x1="8" x2="662.793" y1="540.04" y2="540.04"/><ellipse cx="18" cy="553.6884" fill="#84BE84" rx="3" ry="3" style="stroke:#038048;stroke-width:1;"/><text fill="#000000" font-family="sans-serif" font-size="14" lengthAdjust="spacing" textLength="199.9717" x="27" y="557.0351">buildMap(bounds: any): void</text><ellipse cx="18" cy="569.9853" fill="#84BE84" rx="3" ry="3" style="stroke:#038048;stroke-width:1;"/><text fill="#000000" font-family="sans-serif" font-size="14" lengthAdjust="spacing" textLength="287.8408" x="27" y="573.332">buildBaseLayerControl(): Promise&lt;void&gt;</text><ellipse cx="18" cy="586.2822" fill="#84BE84" rx="3" ry="3" style="stroke:#038048;stroke-width:1;"/><text fill="#000000" font-family="sans-serif" font-size="14" lengthAdjust="spacing" textLength="235.6074" x="27" y="589.6289">toggleVisibility(on: boolean): void</text><ellipse cx="18" cy="602.5791" fill="#84BE84" rx="3" ry="3" style="stroke:#038048;stroke-width:1;"/><text fill="#000000" font-family="sans-serif" font-size="14" lengthAdjust="spacing" textLength="253.2646" x="27" y="605.9257">clearDataFromMap(layer: any): void</text><ellipse cx="18" cy="618.8759" fill="#84BE84" rx="3" ry="3" style="stroke:#038048;stroke-width:1;"/><text fill="#000000" font-family="sans-serif" font-size="14" lengthAdjust="spacing" textLength="630.793" x="27" y="622.2226">renderData(featureCollection: OSMapsCartographicFeatureCollection, layer: any, ...): void</text><ellipse cx="18" cy="635.1728" fill="#84BE84" rx="3" ry="3" style="stroke:#038048;stroke-width:1;"/><text fill="#000000" font-family="sans-serif" font-size="14" lengthAdjust="spacing" textLength="216.8086" x="27" y="638.5195">updateReferenceLayers(): void</text><ellipse cx="18" cy="651.4697" fill="#84BE84" rx="3" ry="3" style="stroke:#038048;stroke-width:1;"/><text fill="#000000" font-family="sans-serif" font-size="14" lengthAdjust="spacing" textLength="247.2012" x="27" y="654.8164">updateSettings(settings: any): void</text><ellipse cx="18" cy="667.7666" fill="#84BE84" rx="3" ry="3" style="stroke:#038048;stroke-width:1;"/><text fill="#000000" font-family="sans-serif" font-size="14" lengthAdjust="spacing" textLength="233.4678" x="27" y="671.1132">ToggleSpinner(on: boolean): void</text></g><!--class LegendManager--><g class="entity" data-entity="LegendManager" data-source-line="35" data-uid="ent0005" id="entity_LegendManager"><rect fill="#F1F1F1" height="129.4844" rx="2.5" ry="2.5" style="stroke:#181818;stroke-width:0.5;" width="354.5898" x="699.1" y="524.49"/><ellipse cx="815.6254" cy="540.49" fill="#ADD1B2" rx="11" ry="11" style="stroke:#181818;stroke-width:1;"/><path d="M818.5941,546.1306 Q818.016,546.4275 817.3754,546.5681 Q816.7348,546.7244 816.0316,546.7244 Q813.5316,546.7244 812.2035,545.0837 Q810.891,543.4275 810.891,540.3025 Q810.891,537.1775 812.2035,535.5212 Q813.5316,533.865 816.0316,533.865 Q816.7348,533.865 817.3754,534.0212 Q818.0316,534.1775 818.5941,534.4744 L818.5941,537.1931 Q817.9691,536.615 817.3754,536.3494 Q816.7816,536.0681 816.1566,536.0681 Q814.8129,536.0681 814.1254,537.1462 Q813.4379,538.2087 813.4379,540.3025 Q813.4379,542.3962 814.1254,543.4744 Q814.8129,544.5369 816.1566,544.5369 Q816.7816,544.5369 817.3754,544.2712 Q817.9691,543.99 818.5941,543.4119 L818.5941,546.1306 Z " fill="#000000"/><text fill="#000000" font-family="sans-serif" font-size="14" lengthAdjust="spacing" textLength="113.0391" x="836.1254" y="545.3367">LegendManager</text><line style="stroke:#181818;stroke-width:0.5;" x1="700.1" x2="1052.6898" y1="556.49" y2="556.49"/><line style="stroke:#181818;stroke-width:0.5;" x1="700.1" x2="1052.6898" y1="564.49" y2="564.49"/><ellipse cx="710.1" cy="578.1384" fill="#84BE84" rx="3" ry="3" style="stroke:#038048;stroke-width:1;"/><text fill="#000000" font-family="sans-serif" font-size="14" lengthAdjust="spacing" textLength="271.1748" x="719.1" y="581.4851">updatePointsLegend(points: any): void</text><ellipse cx="710.1" cy="594.4353" fill="#84BE84" rx="3" ry="3" style="stroke:#038048;stroke-width:1;"/><text fill="#000000" font-family="sans-serif" font-size="14" lengthAdjust="spacing" textLength="305.04" x="719.1" y="597.782">updateFeaturesLegend(features: any): void</text><ellipse cx="710.1" cy="610.7322" fill="#84BE84" rx="3" ry="3" style="stroke:#038048;stroke-width:1;"/><text fill="#000000" font-family="sans-serif" font-size="14" lengthAdjust="spacing" textLength="257.3594" x="719.1" y="614.0789">updateSizeLegend(points: any): void</text><ellipse cx="710.1" cy="627.0291" fill="#84BE84" rx="3" ry="3" style="stroke:#038048;stroke-width:1;"/><text fill="#000000" font-family="sans-serif" font-size="14" lengthAdjust="spacing" textLength="328.5898" x="719.1" y="630.3757">updateRefLegend(refLayerManager: any): void</text><ellipse cx="710.1" cy="643.3259" fill="#84BE84" rx="3" ry="3" style="stroke:#038048;stroke-width:1;"/><text fill="#000000" font-family="sans-serif" font-size="14" lengthAdjust="spacing" textLength="283.0898" x="719.1" y="646.6726">setLegendVisibility(show: boolean): void</text></g><!--class SettingsChangeTypes--><g class="entity" data-entity="SettingsChangeTypes" data-source-line="43" data-uid="ent0006" id="entity_SettingsChangeTypes"><rect fill="#F1F1F1" height="210.9688" rx="2.5" ry="2.5" style="stroke:#181818;stroke-width:0.5;" width="272.2988" x="827.25" y="220.93"/><ellipse cx="882.8228" cy="236.93" fill="#ADD1B2" rx="11" ry="11" style="stroke:#181818;stroke-width:1;"/><path d="M885.7915,242.5706 Q885.2134,242.8675 884.5728,243.0081 Q883.9321,243.1644 883.229,243.1644 Q880.729,243.1644 879.4009,241.5237 Q878.0884,239.8675 878.0884,236.7425 Q878.0884,233.6175 879.4009,231.9612 Q880.729,230.305 883.229,230.305 Q883.9321,230.305 884.5728,230.4612 Q885.229,230.6175 885.7915,230.9144 L885.7915,233.6331 Q885.1665,233.055 884.5728,232.7894 Q883.979,232.5081 883.354,232.5081 Q882.0103,232.5081 881.3228,233.5862 Q880.6353,234.6487 880.6353,236.7425 Q880.6353,238.8362 881.3228,239.9144 Q882.0103,240.9769 883.354,240.9769 Q883.979,240.9769 884.5728,240.7112 Q885.1665,240.43 885.7915,239.8519 L885.7915,242.5706 Z " fill="#000000"/><text fill="#000000" font-family="sans-serif" font-size="14" lengthAdjust="spacing" textLength="152.6533" x="903.3228" y="241.7767">SettingsChangeTypes</text><line style="stroke:#181818;stroke-width:0.5;" x1="828.25" x2="1098.5488" y1="252.93" y2="252.93"/><ellipse cx="838.25" cy="266.5784" fill="none" rx="3" ry="3" style="stroke:#038048;stroke-width:1;"/><text fill="#000000" font-family="sans-serif" font-size="14" lengthAdjust="spacing" textLength="208.4346" x="847.25" y="269.9251">ShouldRebuildPoints: boolean</text><ellipse cx="838.25" cy="282.8753" fill="none" rx="3" ry="3" style="stroke:#038048;stroke-width:1;"/><text fill="#000000" font-family="sans-serif" font-size="14" lengthAdjust="spacing" textLength="199.1172" x="847.25" y="286.222">ShouldRezoomMap: boolean</text><ellipse cx="838.25" cy="299.1722" fill="none" rx="3" ry="3" style="stroke:#038048;stroke-width:1;"/><text fill="#000000" font-family="sans-serif" font-size="14" lengthAdjust="spacing" textLength="228.6826" x="847.25" y="302.5189">ShouldRebuildPolygons: boolean</text><ellipse cx="838.25" cy="315.4691" fill="none" rx="3" ry="3" style="stroke:#038048;stroke-width:1;"/><text fill="#000000" font-family="sans-serif" font-size="14" lengthAdjust="spacing" textLength="195.4258" x="847.25" y="318.8157">ShouldRebuildMap: boolean</text><ellipse cx="838.25" cy="331.7659" fill="none" rx="3" ry="3" style="stroke:#038048;stroke-width:1;"/><text fill="#000000" font-family="sans-serif" font-size="14" lengthAdjust="spacing" textLength="246.1758" x="847.25" y="335.1126">ShouldUpdateZoomLimits: boolean</text><ellipse cx="838.25" cy="348.0628" fill="none" rx="3" ry="3" style="stroke:#038048;stroke-width:1;"/><text fill="#000000" font-family="sans-serif" font-size="14" lengthAdjust="spacing" textLength="246.2988" x="847.25" y="351.4095">ShouldRebuildBaseLayers: boolean</text><ellipse cx="838.25" cy="364.3597" fill="none" rx="3" ry="3" style="stroke:#038048;stroke-width:1;"/><text fill="#000000" font-family="sans-serif" font-size="14" lengthAdjust="spacing" textLength="142.0029" x="847.25" y="367.7064">AnySetting: boolean</text><ellipse cx="838.25" cy="380.6566" fill="none" rx="3" ry="3" style="stroke:#038048;stroke-width:1;"/><text fill="#000000" font-family="sans-serif" font-size="14" lengthAdjust="spacing" textLength="125.3027" x="847.25" y="384.0032">AnyData: boolean</text><line style="stroke:#181818;stroke-width:0.5;" x1="828.25" x2="1098.5488" y1="391.305" y2="391.305"/><ellipse cx="838.25" cy="404.9534" fill="#84BE84" rx="3" ry="3" style="stroke:#038048;stroke-width:1;"/><text fill="#000000" font-family="sans-serif" font-size="14" lengthAdjust="spacing" textLength="179.1152" x="847.25" y="408.3001">ChangeEverything(): void</text><ellipse cx="838.25" cy="421.2503" fill="#84BE84" rx="3" ry="3" style="stroke:#038048;stroke-width:1;"/><text fill="#000000" font-family="sans-serif" font-size="14" lengthAdjust="spacing" textLength="239.5449" x="847.25" y="424.597">SetAutozoom(isOn: boolean): void</text></g><!--class VisualStatus--><g class="entity" data-entity="VisualStatus" data-source-line="56" data-uid="ent0007" id="entity_VisualStatus"><rect fill="#F1F1F1" height="64.2969" rx="2.5" ry="2.5" style="stroke:#181818;stroke-width:0.5;" width="217.2012" x="1134.8" y="294.26"/><ellipse cx="1195.7937" cy="310.26" fill="#ADD1B2" rx="11" ry="11" style="stroke:#181818;stroke-width:1;"/><path d="M1198.7624,315.9006 Q1198.1843,316.1975 1197.5437,316.3381 Q1196.903,316.4944 1196.1999,316.4944 Q1193.6999,316.4944 1192.3718,314.8537 Q1191.0593,313.1975 1191.0593,310.0725 Q1191.0593,306.9475 1192.3718,305.2912 Q1193.6999,303.635 1196.1999,303.635 Q1196.903,303.635 1197.5437,303.7912 Q1198.1999,303.9475 1198.7624,304.2444 L1198.7624,306.9631 Q1198.1374,306.385 1197.5437,306.1194 Q1196.9499,305.8381 1196.3249,305.8381 Q1194.9812,305.8381 1194.2937,306.9162 Q1193.6062,307.9787 1193.6062,310.0725 Q1193.6062,312.1662 1194.2937,313.2444 Q1194.9812,314.3069 1196.3249,314.3069 Q1196.9499,314.3069 1197.5437,314.0412 Q1198.1374,313.76 1198.7624,313.1819 L1198.7624,315.9006 Z " fill="#000000"/><text fill="#000000" font-family="sans-serif" font-size="14" lengthAdjust="spacing" textLength="86.7139" x="1216.2937" y="315.1067">VisualStatus</text><line style="stroke:#181818;stroke-width:0.5;" x1="1135.8" x2="1351.0012" y1="326.26" y2="326.26"/><line style="stroke:#181818;stroke-width:0.5;" x1="1135.8" x2="1351.0012" y1="334.26" y2="334.26"/><ellipse cx="1145.8" cy="347.9084" fill="#84BE84" rx="3" ry="3" style="stroke:#038048;stroke-width:1;"/><text fill="#000000" font-family="sans-serif" font-size="14" lengthAdjust="spacing" textLength="191.2012" x="1154.8" y="351.2551">GetStatusMessage(): string</text></g><!--link OSPowerBIVisual to OSPowerBIUIManager--><g class="link" data-entity-1="OSPowerBIVisual" data-entity-2="OSPowerBIUIManager" data-source-line="60" data-uid="lnk8" id="link_OSPowerBIVisual_OSPowerBIUIManager"><path codeLine="60" d="M857.44,153.26 C830.22,171.85 805.245,188.9165 775.795,209.0265" fill="none" id="OSPowerBIVisual-to-OSPowerBIUIManager" style="stroke:#181818;stroke-width:1;"/><polygon fill="#181818" points="770.84,212.41,780.5281,210.638,774.9691,209.5904,776.0168,204.0314,770.84,212.41" style="stroke:#181818;stroke-width:1;"/></g><!--link OSPowerBIVisual to SettingsChangeTypes--><g class="link" data-entity-1="OSPowerBIVisual" data-entity-2="SettingsChangeTypes" data-source-line="61" data-uid="lnk9" id="link_OSPowerBIVisual_SettingsChangeTypes"><path codeLine="61" d="M963.4,153.26 C963.4,174.39 963.4,191.91 963.4,214.61" fill="none" id="OSPowerBIVisual-to-SettingsChangeTypes" style="stroke:#181818;stroke-width:1;"/><polygon fill="#181818" points="963.4,220.61,967.4,211.61,963.4,215.61,959.4,211.61,963.4,220.61" style="stroke:#181818;stroke-width:1;"/></g><!--link OSPowerBIVisual to VisualStatus--><g class="link" data-entity-1="OSPowerBIVisual" data-entity-2="VisualStatus" data-source-line="62" data-uid="lnk10" id="link_OSPowerBIVisual_VisualStatus"><path codeLine="62" d="M1048.4,153.13 C1070.91,172.41 1095.14,193.31 1117.4,212.78 C1148.42,239.93 1178.882,267.1843 1204.082,289.8843" fill="none" id="OSPowerBIVisual-to-VisualStatus" style="stroke:#181818;stroke-width:1;"/><polygon fill="#181818" points="1208.54,293.9,1204.5302,284.9044,1204.825,290.5535,1199.1758,290.8484,1208.54,293.9" style="stroke:#181818;stroke-width:1;"/></g><!--link OSPowerBIUIManager to OSPowerBIMapManager--><g class="link" data-entity-1="OSPowerBIUIManager" data-entity-2="OSPowerBIMapManager" data-source-line="63" data-uid="lnk11" id="link_OSPowerBIUIManager_OSPowerBIMapManager"><path codeLine="63" d="M488.54,440.29 C467.88,460.26 450.9449,476.6109 431.1149,495.7709" fill="none" id="OSPowerBIUIManager-to-OSPowerBIMapManager" style="stroke:#181818;stroke-width:1;"/><polygon fill="#181818" points="426.8,499.94,436.0518,496.5629,430.3958,496.4657,430.4929,490.8097,426.8,499.94" style="stroke:#181818;stroke-width:1;"/></g><!--link OSPowerBIUIManager to LegendManager--><g class="link" data-entity-1="OSPowerBIUIManager" data-entity-2="LegendManager" data-source-line="64" data-uid="lnk12" id="link_OSPowerBIUIManager_LegendManager"><path codeLine="64" d="M722.68,440.29 C752.58,469.07 779.3561,494.8402 805.7061,520.1902" fill="none" id="OSPowerBIUIManager-to-LegendManager" style="stroke:#181818;stroke-width:1;"/><polygon fill="#181818" points="810.03,524.35,806.3174,515.2277,806.4268,520.8835,800.771,520.9929,810.03,524.35" style="stroke:#181818;stroke-width:1;"/></g><!--SRC=[ZLN1Rjim3BtdAtnKiROV40m5qhJTWZMBKRSzRDX1iHX7W28Aajp27VRleopRYHrxM0-5Gpq-ae-ab2lkNBB9Kdm7UxjwbQxaAlazI-ZlKsa4zy3GU8dQpPDu-b9RDz5uCKzIYmVfuFCRId4J7Rangif0GHv0pBLVNxaM2eXfrHsknCzVuoG5-0Uq1-wzrCKQ1IX6m84fGWKuRx4Avu6Wyq_1EkayY0ng5yUa0EtbJe8bBDTLX9g8k-EUF-EIMt62kqmik59vrvB_cStolcelgpNNl03R2lUCHQ7WaQgbe2cTC5zQlT7pP8keWEjUeX6zvcRXlPNRCcgsn_SKJMd6VNpjynr3ZZaF7dVe6Kv4k2sb4lq0DNTVC6xaDwXYUmMBpL-9UKBQKXaJdHRY3jxMu5oeyk2A4_W9in3trgAT13ZmBvgNVe-M0eY50klxoGdfZEBLWZ0hlKCcm7EfNDt47Z3cJSKkkNu2BS3sYMWKNYMyR-oza3xC43lGls5Mvqqcna6NjusgR8kb5YEfr81RxcWIAh1Br3IazH2F21aRIXicjr99NqtsCYUB3PFwG2GXkWhavy5jNNi0iXrmcZzOecgMRavbaQkZKQUubfkzp1-6eClao7oPN5zVZyZy13kWG7ciqB4HIBTwhlauJpKkG6QarjIjaSAxRZn2GMKD-X3Zf2YrTn70JFrZQZYQKbjm8yyaF9CVy5-yf4Q3i_GL56aoFNSWCIBqfEDXvQTBRtLSxhakuBaou5e1ekd-3MpbzuGv6tZQ6ln0F33ffYwXR8-b4azGpspQbDa0-uX0HCCpSThugwgedunfp1H5l7z-K917UP3-dnpTRWrH2rqrUfqVX9KuMZjzu-EMUPg5JjWluAEXlU0ksdiY-0rVpQkhcv4tOHGsqinHt6bIiv7tfXVoU4DDGNlhynS0]--></g></svg>